M48
; DRILL file KiCad 10.0.0 date 2026-06-25T19:53:43
; FORMAT={-:-/ absolute / metric / decimal}
; #@! TF.CreationDate,2026-06-25T19:53:43+03:00
; #@! TF.GenerationSoftware,Kicad,Pcbnew,10.0.0
; #@! TF.FileFunction,Plated,1,2,PTH
FMAT,2
METRIC
; #@! TA.AperFunction,Plated,PTH,ComponentDrill
T1C0.800
; #@! TA.AperFunction,Plated,PTH,ComponentDrill
T2C1.000
; #@! TA.AperFunction,Plated,PTH,ComponentDrill
T3C1.100
; #@! TA.AperFunction,Plated,PTH,ComponentDrill
T4C1.200
; #@! TA.AperFunction,Plated,PTH,ComponentDrill
T5C1.300
; #@! TA.AperFunction,Plated,PTH,ComponentDrill
T6C1.400
; #@! TA.AperFunction,Plated,PTH,ComponentDrill
T7C1.500
; #@! TA.AperFunction,Plated,PTH,ComponentDrill
T8C2.000
%
G90
G05
T1
X126.0Y-32.0
X126.0Y-34.5
X138.92Y-48.995
X149.08Y-48.995
X190.0Y-93.92
X190.0Y-104.08
T2
X22.0Y-59.0
X22.0Y-69.0
X40.5Y-22.0
X62.0Y-22.0
X69.0Y-30.0
X69.0Y-35.0
X79.712Y-31.5
X79.712Y-36.5
X108.792Y-26.5
X108.792Y-41.5
X139.5Y-32.0
X139.5Y-34.54
X159.0Y-49.0
T3
X181.95Y-56.46
X181.95Y-61.54
T4
X151.5Y-82.57
X151.5Y-110.07
X173.0Y-82.5
X173.0Y-110.0
T5
X22.465Y-24.828
X27.545Y-24.828
X197.172Y-56.465
X197.172Y-61.545
T6
X27.0Y-84.0
X33.4Y-102.0
X45.0Y-84.0
X45.0Y-102.0
T7
X138.55Y-60.18
X144.0Y-65.18
X149.45Y-60.18
T8
X78.0Y-90.43
X78.0Y-100.43
X119.0Y-90.43
X119.0Y-100.43
M30
