  0
SECTION
  2
HEADER
  9
$ANGBASE
  50
0.0
  9
$ANGDIR
  70
1
  9
$MEASUREMENT
  70
1
  9
$INSUNITS
  70
4
  0
ENDSEC
  0
SECTION
  2
TABLES
  0
TABLE
  2
LTYPE
  70
4
  0
LTYPE
  5
40F
  2
CONTINUOUS
  70
0
  3
Solid line
  72
65
  73
0
  40
0.0
  0
LTYPE
  5
410
  2
DASHDOT
 70
0
  3
Dash Dot ____ _ ____ _
 72
65
 73
4
 40
2.0
 49
1.25
 49
-0.25
 49
0.25
 49
-0.25
  0
LTYPE
  5
411
  2
DASHED
 70
0
  3
Dashed __ __ __ __ __
 72
65
 73
2
 40
0.75
 49
0.5
 49
-0.25
  0
LTYPE
  5
43B
  2
DOTTED
 70
0
  3
Dotted .  .  .  .
 72
65
 73
2
 40
0.2
 49
0.0
 49
-0.2
  0
ENDTAB
  0
TABLE
  2
STYLE
  70
4
  0
STYLE
  2
KICAD
  70
0
  40
0
  41
1
  42
1
  50
0
  71
0
  3
isocp.shx
  0
STYLE
  2
KICADB
  70
0
  40
0
  41
1
  42
1
  50
0
  71
0
  3
isocp.shx
  0
STYLE
  2
KICADI
  70
0
  40
0
  41
1
  42
1
  50
15
  71
0
  3
isocp.shx
  0
STYLE
  2
KICADBI
  70
0
  40
0
  41
1
  42
1
  50
15
  71
0
  3
isocp.shx
  0
ENDTAB
  0
TABLE
  2
LAYER
  70
2
  0
LAYER
  2
B.Cu
  70
0
  62
153
  420
5078980
  6
CONTINUOUS
  0
LAYER
  2
Edge.Cuts
  70
0
  62
254
  420
13685453
  6
CONTINUOUS
  0
ENDTAB
  0
ENDSEC
  0
SECTION
  2
ENTITIES
0
LINE
8
Edge.Cuts
6
CONTINUOUS
10
208.0095670000000041
20
-11.9769030000000001
11
208.0230969999999786
21
-11.9904329999999995
0
LINE
8
Edge.Cuts
6
CONTINUOUS
10
208.0230969999999786
20
-11.9904329999999995
11
208.0249999999999773
21
-12.
0
LINE
8
Edge.Cuts
6
CONTINUOUS
10
208.0249999999999773
20
-12.
11
208.0249999999999773
21
-124.
0
LINE
8
Edge.Cuts
6
CONTINUOUS
10
208.0249999999999773
20
-124.
11
208.0230969999999786
21
-124.0095669999999899
0
LINE
8
Edge.Cuts
6
CONTINUOUS
10
208.0230969999999786
20
-124.0095669999999899
11
208.0095670000000041
21
-124.0230969999999928
0
LINE
8
Edge.Cuts
6
CONTINUOUS
10
208.0095670000000041
20
-124.0230969999999928
11
208.
21
-124.0249999999999915
0
LINE
8
Edge.Cuts
6
CONTINUOUS
10
208.
20
-124.0249999999999915
11
14.
21
-124.0249999999999915
0
LINE
8
Edge.Cuts
6
CONTINUOUS
10
14.
20
-124.0249999999999915
11
13.9904329999999995
21
-124.0230969999999928
0
LINE
8
Edge.Cuts
6
CONTINUOUS
10
13.9904329999999995
20
-124.0230969999999928
11
13.9769030000000001
21
-124.0095669999999899
0
LINE
8
Edge.Cuts
6
CONTINUOUS
10
13.9769030000000001
20
-124.0095669999999899
11
13.9749999999999996
21
-124.
0
LINE
8
Edge.Cuts
6
CONTINUOUS
10
13.9749999999999996
20
-124.
11
13.9749999999999996
21
-12.
0
LINE
8
Edge.Cuts
6
CONTINUOUS
10
13.9749999999999996
20
-12.
11
13.9769030000000001
21
-11.9904329999999995
0
LINE
8
Edge.Cuts
6
CONTINUOUS
10
13.9769030000000001
20
-11.9904329999999995
11
13.9904329999999995
21
-11.9769030000000001
0
LINE
8
Edge.Cuts
6
CONTINUOUS
10
13.9904329999999995
20
-11.9769030000000001
11
14.
21
-11.9749999999999996
0
LINE
8
Edge.Cuts
6
CONTINUOUS
10
14.
20
-11.9749999999999996
11
208.
21
-11.9749999999999996
0
LINE
8
Edge.Cuts
6
CONTINUOUS
10
208.
20
-11.9749999999999996
11
208.0095670000000041
21
-11.9769030000000001
0
LINE
8
Edge.Cuts
6
CONTINUOUS
10
14.0249999999999986
20
-12.0249999999999986
11
14.0249999999999986
21
-123.9749999999999943
0
LINE
8
Edge.Cuts
6
CONTINUOUS
10
14.0249999999999986
20
-123.9749999999999943
11
207.9749999999999943
21
-123.9749999999999943
0
LINE
8
Edge.Cuts
6
CONTINUOUS
10
207.9749999999999943
20
-123.9749999999999943
11
207.9749999999999943
21
-12.0249999999999986
0
LINE
8
Edge.Cuts
6
CONTINUOUS
10
207.9749999999999943
20
-12.0249999999999986
11
14.0249999999999986
21
-12.0249999999999986
  0
ENDSEC
  0
EOF
