%TF.GenerationSoftware,KiCad,Pcbnew,10.0.0*%
%TF.CreationDate,2026-06-02T12:24:16+03:00*%
%TF.ProjectId,180V_DC_Driver,31383056-5f44-4435-9f44-72697665722e,rev?*%
%TF.SameCoordinates,Original*%
%TF.FileFunction,Copper,L2,Bot*%
%TF.FilePolarity,Positive*%
%FSLAX46Y46*%
G04 Gerber Fmt 4.6, Leading zero omitted, Abs format (unit mm)*
G04 Created by KiCad (PCBNEW 10.0.0) date 2026-06-02 12:24:16*
%MOMM*%
%LPD*%
G01*
G04 APERTURE LIST*
G04 Aperture macros list*
%AMRoundRect*
0 Rectangle with rounded corners*
0 $1 Rounding radius*
0 $2 $3 $4 $5 $6 $7 $8 $9 X,Y pos of 4 corners*
0 Add a 4 corners polygon primitive as box body*
4,1,4,$2,$3,$4,$5,$6,$7,$8,$9,$2,$3,0*
0 Add four circle primitives for the rounded corners*
1,1,$1+$1,$2,$3*
1,1,$1+$1,$4,$5*
1,1,$1+$1,$6,$7*
1,1,$1+$1,$8,$9*
0 Add four rect primitives between the rounded corners*
20,1,$1+$1,$2,$3,$4,$5,0*
20,1,$1+$1,$4,$5,$6,$7,0*
20,1,$1+$1,$6,$7,$8,$9,0*
20,1,$1+$1,$8,$9,$2,$3,0*%
G04 Aperture macros list end*
%TA.AperFunction,ComponentPad*%
%ADD10RoundRect,0.250000X0.550000X-0.550000X0.550000X0.550000X-0.550000X0.550000X-0.550000X-0.550000X0*%
%TD*%
%TA.AperFunction,ComponentPad*%
%ADD11C,1.600000*%
%TD*%
%TA.AperFunction,ComponentPad*%
%ADD12R,2.500000X4.500000*%
%TD*%
%TA.AperFunction,ComponentPad*%
%ADD13O,2.500000X4.500000*%
%TD*%
%TA.AperFunction,ComponentPad*%
%ADD14R,1.700000X1.700000*%
%TD*%
%TA.AperFunction,ComponentPad*%
%ADD15C,1.700000*%
%TD*%
%TA.AperFunction,ComponentPad*%
%ADD16C,2.000000*%
%TD*%
%TA.AperFunction,ComponentPad*%
%ADD17RoundRect,0.250000X1.050000X1.050000X-1.050000X1.050000X-1.050000X-1.050000X1.050000X-1.050000X0*%
%TD*%
%TA.AperFunction,ComponentPad*%
%ADD18C,2.600000*%
%TD*%
%TA.AperFunction,ComponentPad*%
%ADD19RoundRect,0.250000X1.750000X-1.750000X1.750000X1.750000X-1.750000X1.750000X-1.750000X-1.750000X0*%
%TD*%
%TA.AperFunction,ComponentPad*%
%ADD20C,4.000000*%
%TD*%
%TA.AperFunction,ComponentPad*%
%ADD21RoundRect,0.250000X-0.600000X-0.750000X0.600000X-0.750000X0.600000X0.750000X-0.600000X0.750000X0*%
%TD*%
%TA.AperFunction,ComponentPad*%
%ADD22O,1.700000X2.000000*%
%TD*%
%TA.AperFunction,ComponentPad*%
%ADD23R,2.800000X2.800000*%
%TD*%
%TA.AperFunction,ComponentPad*%
%ADD24C,2.800000*%
%TD*%
%TA.AperFunction,ComponentPad*%
%ADD25RoundRect,0.250000X-1.050000X1.050000X-1.050000X-1.050000X1.050000X-1.050000X1.050000X1.050000X0*%
%TD*%
%TA.AperFunction,ComponentPad*%
%ADD26C,2.400000*%
%TD*%
%TA.AperFunction,ComponentPad*%
%ADD27R,2.000000X2.000000*%
%TD*%
%TA.AperFunction,Conductor*%
%ADD28C,3.000000*%
%TD*%
%TA.AperFunction,Conductor*%
%ADD29C,1.000000*%
%TD*%
G04 APERTURE END LIST*
D10*
%TO.P,C2,1*%
%TO.N,Net-(BR1--)*%
X126000000Y-34500000D03*
D11*
%TO.P,C2,2*%
%TO.N,Net-(J3-Pin_1)*%
X126000000Y-32000000D03*
%TD*%
D12*
%TO.P,Q1,1,G_1*%
%TO.N,Net-(J4-Pin_1)*%
X144550000Y-104820000D03*
D13*
%TO.P,Q1,2,D_2*%
%TO.N,Net-(D2-A)*%
X150000000Y-99820000D03*
%TO.P,Q1,3,S_3*%
%TO.N,Net-(BR1--)*%
X155450000Y-104820000D03*
%TD*%
D14*
%TO.P,J3,1,Pin_1_1*%
%TO.N,Net-(J3-Pin_1)*%
X139500000Y-32000000D03*
D15*
%TO.P,J3,2,Pin_2_2*%
%TO.N,Net-(BR1--)*%
X139500000Y-34540000D03*
%TD*%
D11*
%TO.P,R3,1*%
%TO.N,Net-(J4-Pin_1)*%
X144920000Y-116005000D03*
%TO.P,R3,2*%
%TO.N,Net-(BR1--)*%
X155080000Y-116005000D03*
%TD*%
D16*
%TO.P,TH1,1*%
%TO.N,Net-(F2-Pad1)*%
X22000000Y-59000000D03*
%TO.P,TH1,2*%
%TO.N,Net-(BR1-~_2)*%
X22000000Y-69000000D03*
%TD*%
D17*
%TO.P,J1,1,1_1*%
%TO.N,Net-(BR1-~_1)*%
X27545000Y-24827500D03*
D18*
%TO.P,J1,2,2_2*%
%TO.N,Net-(F2-Pad1)*%
X22465000Y-24827500D03*
%TD*%
D14*
%TO.P,J4,1,Pin_1_1*%
%TO.N,Net-(J4-Pin_1)*%
X135000000Y-116000000D03*
%TD*%
D19*
%TO.P,C5,1,+_1*%
%TO.N,Net-(BR1-+)*%
X126000000Y-78000000D03*
D20*
%TO.P,C5,2,-_2*%
%TO.N,Net-(BR1--)*%
X126000000Y-68000000D03*
%TD*%
D21*
%TO.P,PS1,1,AC_1_1*%
%TO.N,Net-(PS1-AC_1)*%
X79712500Y-31500000D03*
D22*
%TO.P,PS1,2,AC_2_2*%
%TO.N,Net-(BR1-~_1)*%
X79712500Y-36500000D03*
%TO.P,PS1,3,-V0_3*%
%TO.N,Net-(J3-Pin_1)*%
X108792500Y-26500000D03*
%TO.P,PS1,4,+V0_4*%
%TO.N,Net-(BR1--)*%
X108792500Y-41500000D03*
%TD*%
D23*
%TO.P,BR1,1,+_1*%
%TO.N,Net-(BR1-+)*%
X33400000Y-102000000D03*
D24*
%TO.P,BR1,2,~_1_2*%
%TO.N,Net-(BR1-~_1)*%
X45000000Y-102000000D03*
%TO.P,BR1,3,-_3*%
%TO.N,Net-(BR1--)*%
X45000000Y-84000000D03*
%TO.P,BR1,4,~_2_4*%
%TO.N,Net-(BR1-~_2)*%
X27000000Y-84000000D03*
%TD*%
D19*
%TO.P,C4,1,+_1*%
%TO.N,Net-(BR1-+)*%
X80000000Y-78319501D03*
D20*
%TO.P,C4,2,-_2*%
%TO.N,Net-(BR1--)*%
X80000000Y-68319501D03*
%TD*%
D11*
%TO.P,R1,1*%
%TO.N,Net-(BR1-+)*%
X187000000Y-80649501D03*
%TO.P,R1,2*%
%TO.N,Net-(BR1--)*%
X187000000Y-70489501D03*
%TD*%
D25*
%TO.P,J2,1,1_1*%
%TO.N,Net-(BR1-+)*%
X96827500Y-103455000D03*
D18*
%TO.P,J2,2,2_2*%
%TO.N,Net-(D2-A)*%
X96827500Y-108535000D03*
%TD*%
D26*
%TO.P,C1,1,1_1*%
%TO.N,Net-(BR1-+)*%
X165000000Y-87069501D03*
%TO.P,C1,2,2_2*%
%TO.N,Net-(BR1--)*%
X165000000Y-59569501D03*
%TD*%
D27*
%TO.P,D2,1,K_1*%
%TO.N,Net-(BR1-+)*%
X112050000Y-103460000D03*
D16*
%TO.P,D2,2,A_2*%
%TO.N,Net-(D2-A)*%
X112050000Y-108540000D03*
%TD*%
D14*
%TO.P,F2,1*%
%TO.N,Net-(F2-Pad1)*%
X40500000Y-22000000D03*
D15*
%TO.P,F2,2*%
%TO.N,Net-(PS1-AC_1)*%
X62000000Y-22000000D03*
%TD*%
%TO.N,Net-(BR1--)*%
D28*
X155450000Y-115635000D02*
X155080000Y-116005000D01*
X198000000Y-70489501D02*
X198000000Y-104820000D01*
D29*
X119000000Y-41500000D02*
X126000000Y-34500000D01*
D28*
X134430499Y-59569501D02*
X165000000Y-59569501D01*
X176080000Y-59569501D02*
X187000000Y-70489501D01*
D29*
X139460000Y-34500000D02*
X139500000Y-34540000D01*
D28*
X126000000Y-68000000D02*
X134430499Y-59569501D01*
X155450000Y-104820000D02*
X155450000Y-115635000D01*
X60680499Y-68319501D02*
X80000000Y-68319501D01*
D29*
X126000000Y-34500000D02*
X139460000Y-34500000D01*
D28*
X80000000Y-68319501D02*
X125680499Y-68319501D01*
X187000000Y-70489501D02*
X198000000Y-70489501D01*
X165000000Y-59569501D02*
X176080000Y-59569501D01*
X45000000Y-84000000D02*
X60680499Y-68319501D01*
D29*
X108792500Y-41500000D02*
X119000000Y-41500000D01*
D28*
X198000000Y-104820000D02*
X155450000Y-104820000D01*
X125680499Y-68319501D02*
X126000000Y-68000000D01*
%TO.N,Net-(BR1-+)*%
X53000000Y-118000000D02*
X80000000Y-91000000D01*
X34000000Y-118000000D02*
X53000000Y-118000000D01*
X97050000Y-103915000D02*
X97085000Y-103915000D01*
X126000000Y-78000000D02*
X135069501Y-87069501D01*
X80000000Y-78319501D02*
X80319501Y-78000000D01*
X187000000Y-82000000D02*
X181930499Y-87069501D01*
X112000000Y-92000000D02*
X126000000Y-78000000D01*
X33400000Y-102000000D02*
X33000000Y-102000000D01*
X97085000Y-103915000D02*
X99000000Y-102000000D01*
X181930499Y-87069501D02*
X165000000Y-87069501D01*
X99000000Y-102000000D02*
X110545000Y-102000000D01*
X110545000Y-102000000D02*
X112000000Y-103455000D01*
X187000000Y-80649501D02*
X187000000Y-82000000D01*
X33000000Y-102000000D02*
X25500000Y-109500000D01*
X135069501Y-87069501D02*
X165000000Y-87069501D01*
X80319501Y-78000000D02*
X117000000Y-78000000D01*
X117000000Y-78000000D02*
X126000000Y-78000000D01*
X25500000Y-109500000D02*
X34000000Y-118000000D01*
X112000000Y-103455000D02*
X112000000Y-92000000D01*
X80000000Y-91000000D02*
X80000000Y-78319501D01*
%TO.N,Net-(J3-Pin_1)*%
D29*
X126000000Y-32000000D02*
X139500000Y-32000000D01*
X108792500Y-26500000D02*
X120500000Y-26500000D01*
X120500000Y-26500000D02*
X126000000Y-32000000D01*
%TO.N,Net-(D2-A)*%
D28*
X102055000Y-114000000D02*
X112000000Y-114000000D01*
X112000000Y-114000000D02*
X118000000Y-114000000D01*
X147000000Y-96000000D02*
X150000000Y-99000000D01*
X112000000Y-108535000D02*
X112000000Y-114000000D01*
X97050000Y-108995000D02*
X102055000Y-114000000D01*
X118000000Y-114000000D02*
X136000000Y-96000000D01*
X136000000Y-96000000D02*
X147000000Y-96000000D01*
X150000000Y-99000000D02*
X150000000Y-99820000D01*
%TO.N,Net-(PS1-AC_1)*%
X62000000Y-22000000D02*
X70212500Y-22000000D01*
X70212500Y-22000000D02*
X79712500Y-31500000D01*
%TO.N,Net-(F2-Pad1)*%
X22465000Y-17535000D02*
X23000000Y-17000000D01*
X23000000Y-17000000D02*
X35500000Y-17000000D01*
X22465000Y-24827500D02*
X22465000Y-17535000D01*
X35500000Y-17000000D02*
X40500000Y-22000000D01*
X22465000Y-24827500D02*
X22465000Y-58535000D01*
X22465000Y-58535000D02*
X22000000Y-59000000D01*
%TO.N,Net-(J4-Pin_1)*%
X144550000Y-104820000D02*
X144550000Y-115635000D01*
X144915000Y-116000000D02*
X144920000Y-116005000D01*
X144550000Y-115635000D02*
X144920000Y-116005000D01*
X135000000Y-116000000D02*
X144915000Y-116000000D01*
%TO.N,Net-(BR1-~_1)*%
X79712500Y-36500000D02*
X75212500Y-41000000D01*
X31827500Y-24827500D02*
X27545000Y-24827500D01*
X36000000Y-29000000D02*
X31827500Y-24827500D01*
X36000000Y-36000000D02*
X36000000Y-29000000D01*
X75212500Y-41000000D02*
X36000000Y-41000000D01*
X36000000Y-90000000D02*
X36000000Y-36000000D01*
X45000000Y-102000000D02*
X45000000Y-99000000D01*
X45000000Y-99000000D02*
X36000000Y-90000000D01*
%TO.N,Net-(BR1-~_2)*%
X22000000Y-79000000D02*
X27000000Y-84000000D01*
X22000000Y-69000000D02*
X22000000Y-79000000D01*
%TD*%
M02*
