  0
SECTION
  2
HEADER
  9
$ACADVER
  1
AC1014
  9
$HANDSEED
  5
FFFF
  9
$INSUNITS
 70
     0
  9
$MEASUREMENT
 70
     1
  0
ENDSEC
  0
SECTION
  2
TABLES
  0
TABLE
  2
VPORT
  5
8
330
0
100
AcDbSymbolTable
 70
     4
  0
VPORT
  5
2E
330
8
100
AcDbSymbolTableRecord
100
AcDbViewportTableRecord
  2
*ACTIVE
 70
     0
 10
0.0
 20
0.0
 11
1.0
 21
1.0
 12
210.0
 22
148.5
 13
0.0
 23
0.0
 14
10.0
 24
10.0
 15
10.0
 25
10.0
 16
0.0
 26
0.0
 36
1.0
 17
0.0
 27
0.0
 37
0.0
 40
341.0
 41
1.24
 42
50.0
 43
0.0
 44
0.0
 50
0.0
 51
0.0
 71
     0
 72
   100
 73
     1
 74
     3
 75
     0
 76
     0
 77
     0
 78
     0
  0
ENDTAB
  0
TABLE
  2
LTYPE
  5
5
330
0
100
AcDbSymbolTable
 70
     1
  0
LTYPE
  5
14
330
5
100
AcDbSymbolTableRecord
100
AcDbLinetypeTableRecord
  2
BYBLOCK
 70
     0
  3

 72
    65
 73
     0
 40
0.0
  0
LTYPE
  5
15
330
5
100
AcDbSymbolTableRecord
100
AcDbLinetypeTableRecord
  2
BYLAYER
 70
     0
  3

 72
    65
 73
     0
 40
0.0
  0
LTYPE
  5
16
330
5
100
AcDbSymbolTableRecord
100
AcDbLinetypeTableRecord
  2
CONTINUOUS
 70
     0
  3
Solid line
 72
    65
 73
     0
 40
0.0
  0
ENDTAB
  0
TABLE
  2
LAYER
  5
2
100
AcDbSymbolTable
 70
3
  0
LAYER
  5
50
100
AcDbSymbolTableRecord
100
AcDbLayerTableRecord
  2
0
 70
0
  6
CONTINUOUS
  0
LAYER
  5
51
100
AcDbSymbolTableRecord
100
AcDbLayerTableRecord
  2
B.Cu
 70
0
  6
CONTINUOUS
  0
LAYER
  5
52
100
AcDbSymbolTableRecord
100
AcDbLayerTableRecord
  2
Edge.Cuts
 70
0
  6
CONTINUOUS
  0
ENDTAB
  0
TABLE
  2
STYLE
  5
3
330
0
100
AcDbSymbolTable
 70
     1
  0
STYLE
  5
11
330
3
100
AcDbSymbolTableRecord
100
AcDbTextStyleTableRecord
  2
STANDARD
 70
     0
 40
0.0
 41
1.0
 50
0.0
 71
     0
 42
2.5
  3
txt
  4

  0
ENDTAB
  0
TABLE
  2
VIEW
  5
6
330
0
100
AcDbSymbolTable
 70
     0
  0
ENDTAB
  0
TABLE
  2
UCS
  5
7
330
0
100
AcDbSymbolTable
 70
     0
  0
ENDTAB
  0
TABLE
  2
APPID
  5
9
330
0
100
AcDbSymbolTable
 70
     2
  0
APPID
  5
12
330
9
100
AcDbSymbolTableRecord
100
AcDbRegAppTableRecord
  2
ACAD
 70
     0
  0
ENDTAB
  0
TABLE
  2
DIMSTYLE
  5
A
330
0
100
AcDbSymbolTable
 70
     1
  0
DIMSTYLE
105
27
330
A
100
AcDbSymbolTableRecord
100
AcDbDimStyleTableRecord
  2
ISO-25
 70
     0
  3

  4

  5

  6

  7

 40
1.0
 41
2.5
 42
0.625
 43
3.75
 44
1.25
 45
0.0
 46
0.0
 47
0.0
 48
0.0
140
2.5
141
2.5
142
0.0
143
0.03937007874016
144
1.0
145
0.0
146
1.0
147
0.625
 71
     0
 72
     0
 73
     0
 74
     0
 75
     0
 76
     0
 77
     1
 78
     8
170
     0
171
     3
172
     1
173
     0
174
     0
175
     0
176
     0
177
     0
178
     0
270
     2
271
     2
272
     2
273
     2
274
     3
340
11
275
     0
280
     0
281
     0
282
     0
283
     0
284
     8
285
     0
286
     0
287
     3
288
     0
  0
ENDTAB
  0
TABLE
  2
BLOCK_RECORD
  5
1
330
0
100
AcDbSymbolTable
 70
     1
  0
BLOCK_RECORD
  5
1F
330
1
100
AcDbSymbolTableRecord
100
AcDbBlockTableRecord
  2
*MODEL_SPACE
  0
BLOCK_RECORD
  5
1B
330
1
100
AcDbSymbolTableRecord
100
AcDbBlockTableRecord
  2
*PAPER_SPACE
  0
ENDTAB
  0
ENDSEC
  0
SECTION
  2
BLOCKS
  0
BLOCK
  5
20
330
1F
100
AcDbEntity
  8
0
100
AcDbBlockBegin
  2
*MODEL_SPACE
 70
     0
 10
0.0
 20
0.0
 30
0.0
  3
*MODEL_SPACE
  1

  0
ENDBLK
  5
21
330
1F
100
AcDbEntity
  8
0
100
AcDbBlockEnd
  0
BLOCK
  5
1C
330
1B
100
AcDbEntity
 67
     1
  8
0
100
AcDbBlockBegin
  2
*PAPER_SPACE
  1

  0
ENDBLK
  5
1D
330
1B
100
AcDbEntity
 67
     1
  8
0
100
AcDbBlockEnd
  0
ENDSEC
  0
SECTION
  2
ENTITIES
  0
SPLINE
  5
100
100
AcDbEntity
  8
B.Cu
 62
7
100
AcDbSpline
 70
8
 71
3
 72
8
 73
4
 74
0
 40
0
 40
0
 40
0
 40
0
 40
1
 40
1
 40
1
 40
1
 10
18.897026
 20
153.699924
 30
0.0
 10
18.897050
 20
153.567329
 30
0.0
 10
18.949741
 20
153.440173
 30
0.0
 10
19.043511
 20
153.346424
 30
0.0
  0
LWPOLYLINE
  5
101
100
AcDbEntity
  8
B.Cu
 62
7
100
AcDbPolyline
 90
19
 70
0
 10
9.457524
 20
196.520926
 30
0.0
 10
10.439946
 20
196.520926
 30
0.0
 10
11.445805
 20
196.407626
 30
0.0
 10
12.426274
 20
196.179126
 30
0.0
 10
13.375493
 20
195.845126
 30
0.0
 10
14.268071
 20
195.417326
 30
0.0
 10
15.129399
 20
194.882226
 30
0.0
 10
15.904790
 20
194.263026
 30
0.0
 10
16.619633
 20
193.548226
 30
0.0
 10
17.246587
 20
192.761126
 30
0.0
 10
17.779791
 20
191.909526
 30
0.0
 10
18.217291
 20
191.005225
 30
0.0
 10
18.547369
 20
190.059925
 30
0.0
 10
18.771978
 20
189.071625
 30
0.0
 10
18.883306
 20
188.063825
 30
0.0
 10
18.885306
 20
188.053825
 30
0.0
 10
18.897026
 20
187.579225
 30
0.0
 10
18.897026
 20
187.565225
 30
0.0
 10
18.897026
 20
153.699924
 30
0.0
  0
LWPOLYLINE
  5
102
100
AcDbEntity
  8
B.Cu
 62
7
100
AcDbPolyline
 90
68
 70
0
 10
19.043511
 20
153.346424
 30
0.0
 10
35.166561
 20
137.223424
 30
0.0
 10
35.174561
 20
137.213424
 30
0.0
 10
35.500731
 20
136.875524
 30
0.0
 10
35.504731
 20
136.875524
 30
0.0
 10
36.151211
 20
136.061024
 30
0.0
 10
36.680511
 20
135.215324
 30
0.0
 10
37.114101
 20
134.316924
 30
0.0
 10
37.444181
 20
133.371624
 30
0.0
 10
37.666841
 20
132.391124
 30
0.0
 10
37.780121
 20
131.400924
 30
0.0
 10
37.780121
 20
130.381324
 30
0.0
 10
37.666841
 20
129.391124
 30
0.0
 10
37.444181
 20
128.410624
 30
0.0
 10
37.114101
 20
127.465324
 30
0.0
 10
36.680511
 20
126.566924
 30
0.0
 10
36.151211
 20
125.721224
 30
0.0
 10
35.508631
 20
124.912624
 30
0.0
 10
35.500631
 20
124.902624
 30
0.0
 10
34.830711
 20
124.232724
 30
0.0
 10
34.820711
 20
124.222724
 30
0.0
 10
34.025791
 20
123.587924
 30
0.0
 10
33.172281
 20
123.054724
 30
0.0
 10
32.267981
 20
122.621124
 30
0.0
 10
31.309001
 20
122.285224
 30
0.0
 10
30.344151
 20
122.062524
 30
0.0
 10
29.361731
 20
121.959024
 30
0.0
 10
28.330481
 20
121.959024
 30
0.0
 10
27.350011
 20
122.062524
 30
0.0
 10
26.379308
 20
122.287124
 30
0.0
 10
25.424230
 20
122.621124
 30
0.0
 10
24.527746
 20
123.050824
 30
0.0
 10
23.666417
 20
123.587924
 30
0.0
 10
22.877355
 20
124.218824
 30
0.0
 10
22.517980
 20
124.562524
 30
0.0
 10
22.512080
 20
124.572524
 30
0.0
 10
3.629266
 20
143.459224
 30
0.0
 10
3.621466
 20
143.469224
 30
0.0
 10
3.295294
 20
143.807124
 30
0.0
 10
3.291394
 20
143.807124
 30
0.0
 10
2.650769
 20
144.609824
 30
0.0
 10
2.385144
 20
145.035624
 30
0.0
 10
2.117566
 20
145.461424
 30
0.0
 10
1.685926
 20
146.352024
 30
0.0
 10
1.346082
 20
147.326624
 30
0.0
 10
1.127332
 20
148.283724
 30
0.0
 10
1.014051
 20
149.307124
 30
0.0
 10
1.012051
 20
149.317124
 30
0.0
 10
1.000331
 20
149.791724
 30
0.0
 10
1.000331
 20
149.805724
 30
0.0
 10
1.000331
 20
187.567425
 30
0.0
 10
1.000331
 20
187.581425
 30
0.0
 10
1.012051
 20
188.056025
 30
0.0
 10
1.014051
 20
188.066025
 30
0.0
 10
1.127332
 20
189.089525
 30
0.0
 10
1.346082
 20
190.046525
 30
0.0
 10
1.685926
 20
191.021125
 30
0.0
 10
2.117566
 20
191.911726
 30
0.0
 10
2.650769
 20
192.761326
 30
0.0
 10
3.287488
 20
193.560226
 30
0.0
 10
3.295288
 20
193.570226
 30
0.0
 10
3.992553
 20
194.265526
 30
0.0
 10
4.769897
 20
194.884726
 30
0.0
 10
5.623413
 20
195.415926
 30
0.0
 10
6.521850
 20
195.847626
 30
0.0
 10
7.471069
 20
196.181626
 30
0.0
 10
8.451538
 20
196.410126
 30
0.0
 10
9.457524
 20
196.520926
 30
0.0
  0
SPLINE
  5
103
100
AcDbEntity
  8
B.Cu
 62
7
100
AcDbSpline
 70
8
 71
3
 72
8
 73
4
 74
0
 40
0
 40
0
 40
0
 40
0
 40
1
 40
1
 40
1
 40
1
 10
676.168529
 20
211.395826
 30
0.0
 10
676.163328
 20
211.375426
 30
0.0
 10
676.159420
 20
211.354718
 30
0.0
 10
676.156829
 20
211.333826
 30
0.0
  0
SPLINE
  5
104
100
AcDbEntity
  8
B.Cu
 62
7
100
AcDbSpline
 70
8
 71
3
 72
8
 73
4
 74
0
 40
0
 40
0
 40
0
 40
0
 40
1
 40
1
 40
1
 40
1
 10
676.156829
 20
211.333826
 30
0.0
 10
676.135352
 20
211.335214
 30
0.0
 10
676.113807
 20
211.335214
 30
0.0
 10
676.092329
 20
211.333826
 30
0.0
  0
SPLINE
  5
105
100
AcDbEntity
  8
B.Cu
 62
7
100
AcDbSpline
 70
8
 71
3
 72
8
 73
4
 74
0
 40
0
 40
0
 40
0
 40
0
 40
1
 40
1
 40
1
 40
1
 10
676.092329
 20
211.333826
 30
0.0
 10
675.951090
 20
211.170542
 30
0.0
 10
675.930605
 20
210.935045
 30
0.0
 10
676.041529
 20
210.749826
 30
0.0
  0
SPLINE
  5
106
100
AcDbEntity
  8
B.Cu
 62
7
100
AcDbSpline
 70
8
 71
3
 72
8
 73
4
 74
0
 40
0
 40
0
 40
0
 40
0
 40
1
 40
1
 40
1
 40
1
 10
676.041529
 20
210.749826
 30
0.0
 10
676.037445
 20
210.734329
 30
0.0
 10
676.034108
 20
210.718644
 30
0.0
 10
676.031529
 20
210.702826
 30
0.0
  0
LWPOLYLINE
  5
107
100
AcDbEntity
  8
B.Cu
 62
7
100
AcDbPolyline
 90
10
 70
0
 10
668.094259
 20
220.169326
 30
0.0
 10
675.941919
 20
220.169326
 30
0.0
 10
676.158709
 20
220.126326
 30
0.0
 10
676.293479
 20
220.040326
 30
0.0
 10
676.389179
 20
219.895826
 30
0.0
 10
676.432179
 20
219.680926
 30
0.0
 10
676.432179
 20
211.839126
 30
0.0
 10
676.389179
 20
211.624326
 30
0.0
 10
676.291579
 20
211.477826
 30
0.0
 10
676.168529
 20
211.395826
 30
0.0
  0
SPLINE
  5
108
100
AcDbEntity
  8
B.Cu
 62
7
100
AcDbSpline
 70
8
 71
3
 72
8
 73
4
 74
0
 40
0
 40
0
 40
0
 40
0
 40
1
 40
1
 40
1
 40
1
 10
676.062729
 20
210.692826
 30
0.0
 10
676.070709
 20
210.668784
 30
0.0
 10
676.080504
 20
210.645383
 30
0.0
 10
676.092029
 20
210.622826
 30
0.0
  0
LWPOLYLINE
  5
109
100
AcDbEntity
  8
B.Cu
 62
7
100
AcDbPolyline
 90
2
 70
0
 10
676.031529
 20
210.702826
 30
0.0
 10
676.062729
 20
210.692826
 30
0.0
  0
SPLINE
  5
10a
100
AcDbEntity
  8
B.Cu
 62
7
100
AcDbSpline
 70
8
 71
3
 72
8
 73
4
 74
0
 40
0
 40
0
 40
0
 40
0
 40
1
 40
1
 40
1
 40
1
 10
648.822109
 20
46.040521
 30
0.0
 10
648.763586
 20
46.002451
 30
0.0
 10
648.713685
 20
45.952546
 30
0.0
 10
648.675619
 20
45.894021
 30
0.0
  0
SPLINE
  5
10b
100
AcDbEntity
  8
B.Cu
 62
7
100
AcDbSpline
 70
8
 71
3
 72
8
 73
4
 74
0
 40
0
 40
0
 40
0
 40
0
 40
1
 40
1
 40
1
 40
1
 10
648.675619
 20
45.894021
 30
0.0
 10
648.607364
 20
45.908465
 30
0.0
 10
648.536843
 20
45.908465
 30
0.0
 10
648.468589
 20
45.894021
 30
0.0
  0
LWPOLYLINE
  5
10c
100
AcDbEntity
  8
B.Cu
 62
7
100
AcDbPolyline
 90
46
 70
0
 10
676.092029
 20
210.622826
 30
0.0
 10
692.804920
 20
193.909926
 30
0.0
 10
692.810920
 20
193.899926
 30
0.0
 10
692.812920
 20
193.899926
 30
0.0
 10
693.150810
 20
193.546426
 30
0.0
 10
693.785580
 20
192.749526
 30
0.0
 10
694.031670
 20
192.364826
 30
0.0
 10
694.035670
 20
192.364826
 30
0.0
 10
694.324730
 20
191.894126
 30
0.0
 10
694.328730
 20
191.884126
 30
0.0
 10
694.752550
 20
191.003225
 30
0.0
 10
695.082630
 20
190.057925
 30
0.0
 10
695.309200
 20
189.067725
 30
0.0
 10
695.418570
 20
188.093125
 30
0.0
 10
695.418570
 20
188.083125
 30
0.0
 10
695.434170
 20
187.575325
 30
0.0
 10
695.434170
 20
187.561325
 30
0.0
 10
695.434170
 20
74.209722
 30
0.0
 10
695.434170
 20
74.195722
 30
0.0
 10
695.418570
 20
73.687922
 30
0.0
 10
695.418570
 20
73.677922
 30
0.0
 10
695.307240
 20
72.699422
 30
0.0
 10
695.211540
 20
72.273622
 30
0.0
 10
695.082630
 20
71.713122
 30
0.0
 10
694.854120
 20
71.058822
 30
0.0
 10
694.852120
 20
71.058822
 30
0.0
 10
694.754420
 20
70.773722
 30
0.0
 10
694.322780
 20
69.879122
 30
0.0
 10
693.781760
 20
69.013922
 30
0.0
 10
693.150900
 20
68.222922
 30
0.0
 10
692.813010
 20
67.869422
 30
0.0
 10
692.805010
 20
67.859422
 30
0.0
 10
673.619459
 20
48.673821
 30
0.0
 10
673.611459
 20
48.663821
 30
0.0
 10
673.252079
 20
48.320121
 30
0.0
 10
672.463019
 20
47.689221
 30
0.0
 10
672.039189
 20
47.425521
 30
0.0
 10
672.037189
 20
47.425521
 30
0.0
 10
671.615319
 20
47.159921
 30
0.0
 10
670.711019
 20
46.724321
 30
0.0
 10
669.763749
 20
46.392321
 30
0.0
 10
668.781329
 20
46.163821
 30
0.0
 10
667.789139
 20
46.050521
 30
0.0
 10
667.283279
 20
46.040521
 30
0.0
 10
667.273279
 20
46.040521
 30
0.0
 10
648.822109
 20
46.040521
 30
0.0
  0
SPLINE
  5
10d
100
AcDbEntity
  8
B.Cu
 62
7
100
AcDbSpline
 70
8
 71
3
 72
8
 73
4
 74
0
 40
0
 40
0
 40
0
 40
0
 40
1
 40
1
 40
1
 40
1
 10
582.542237
 20
23.668721
 30
0.0
 10
582.524100
 20
23.652963
 30
0.0
 10
582.507123
 20
23.635919
 30
0.0
 10
582.491437
 20
23.617721
 30
0.0
  0
SPLINE
  5
10e
100
AcDbEntity
  8
B.Cu
 62
7
100
AcDbSpline
 70
8
 71
3
 72
8
 73
4
 74
0
 40
0
 40
0
 40
0
 40
0
 40
1
 40
1
 40
1
 40
1
 10
582.491437
 20
23.617721
 30
0.0
 10
582.472201
 20
23.632161
 30
0.0
 10
582.451948
 20
23.645195
 30
0.0
 10
582.430837
 20
23.656721
 30
0.0
  0
LWPOLYLINE
  5
10f
100
AcDbEntity
  8
B.Cu
 62
7
100
AcDbPolyline
 90
18
 70
0
 10
648.468589
 20
45.894021
 30
0.0
 10
628.874838
 20
26.296321
 30
0.0
 10
628.861138
 20
26.284321
 30
0.0
 10
628.519338
 20
25.964021
 30
0.0
 10
628.517338
 20
25.964021
 30
0.0
 10
627.695068
 20
25.307821
 30
0.0
 10
627.689068
 20
25.307821
 30
0.0
 10
627.317978
 20
25.069521
 30
0.0
 10
627.311978
 20
25.069521
 30
0.0
 10
626.864718
 20
24.788221
 30
0.0
 10
625.960418
 20
24.354621
 30
0.0
 10
625.022918
 20
24.024621
 30
0.0
 10
624.024868
 20
23.801921
 30
0.0
 10
623.015108
 20
23.686721
 30
0.0
 10
623.007108
 20
23.686721
 30
0.0
 10
622.532498
 20
23.668721
 30
0.0
 10
622.514898
 20
23.668721
 30
0.0
 10
582.542237
 20
23.668721
 30
0.0
  0
SPLINE
  5
110
100
AcDbEntity
  8
B.Cu
 62
7
100
AcDbSpline
 70
8
 71
3
 72
8
 73
4
 74
0
 40
0
 40
0
 40
0
 40
0
 40
1
 40
1
 40
1
 40
1
 10
373.000661
 20
59.696122
 30
0.0
 10
372.932406
 20
59.710565
 30
0.0
 10
372.861885
 20
59.710565
 30
0.0
 10
372.793631
 20
59.696122
 30
0.0
  0
SPLINE
  5
111
100
AcDbEntity
  8
B.Cu
 62
7
100
AcDbSpline
 70
8
 71
3
 72
8
 73
4
 74
0
 40
0
 40
0
 40
0
 40
0
 40
1
 40
1
 40
1
 40
1
 10
372.793631
 20
59.696122
 30
0.0
 10
372.755567
 20
59.754646
 30
0.0
 10
372.705670
 20
59.804550
 30
0.0
 10
372.647151
 20
59.842622
 30
0.0
  0
LWPOLYLINE
  5
112
100
AcDbEntity
  8
B.Cu
 62
7
100
AcDbPolyline
 90
24
 70
0
 10
582.430837
 20
23.656721
 30
0.0
 10
581.891777
 20
23.531721
 30
0.0
 10
580.882007
 20
23.428221
 30
0.0
 10
580.870307
 20
23.428221
 30
0.0
 10
580.393737
 20
23.410221
 30
0.0
 10
580.374237
 20
23.410221
 30
0.0
 10
499.395724
 20
23.410221
 30
0.0
 10
413.010952
 20
23.410221
 30
0.0
 10
412.993352
 20
23.410221
 30
0.0
 10
412.514842
 20
23.428221
 30
0.0
 10
412.503142
 20
23.428221
 30
0.0
 10
411.495332
 20
23.531721
 30
0.0
 10
410.514862
 20
23.760221
 30
0.0
 10
409.571502
 20
24.092221
 30
0.0
 10
408.667202
 20
24.525821
 30
0.0
 10
408.268762
 20
24.773921
 30
0.0
 10
408.264762
 20
24.773921
 30
0.0
 10
407.815542
 20
25.057121
 30
0.0
 10
407.042102
 20
25.670321
 30
0.0
 10
407.034102
 20
25.680321
 30
0.0
 10
406.666912
 20
26.033821
 30
0.0
 10
406.664912
 20
26.033821
 30
0.0
 10
406.656912
 20
26.043821
 30
0.0
 10
373.000661
 20
59.696122
 30
0.0
  0
SPLINE
  5
113
100
AcDbEntity
  8
B.Cu
 62
7
100
AcDbSpline
 70
8
 71
3
 72
8
 73
4
 74
0
 40
0
 40
0
 40
0
 40
0
 40
1
 40
1
 40
1
 40
1
 10
223.144906
 20
59.842622
 30
0.0
 10
223.079045
 20
59.801873
 30
0.0
 10
223.023549
 20
59.746381
 30
0.0
 10
222.982796
 20
59.680522
 30
0.0
  0
SPLINE
  5
114
100
AcDbEntity
  8
B.Cu
 62
7
100
AcDbSpline
 70
8
 71
3
 72
8
 73
4
 74
0
 40
0
 40
0
 40
0
 40
0
 40
1
 40
1
 40
1
 40
1
 10
222.982796
 20
59.680522
 30
0.0
 10
222.904919
 20
59.689719
 30
0.0
 10
222.825969
 20
59.680470
 30
0.0
 10
222.752326
 20
59.653522
 30
0.0
  0
LWPOLYLINE
  5
115
100
AcDbEntity
  8
B.Cu
 62
7
100
AcDbPolyline
 90
2
 70
0
 10
372.647151
 20
59.842622
 30
0.0
 10
223.144906
 20
59.842622
 30
0.0
  0
SPLINE
  5
116
100
AcDbEntity
  8
B.Cu
 62
7
100
AcDbSpline
 70
8
 71
3
 72
8
 73
4
 74
0
 40
0
 40
0
 40
0
 40
0
 40
1
 40
1
 40
1
 40
1
 10
219.094126
 20
57.077122
 30
0.0
 10
219.084697
 20
57.060618
 30
0.0
 10
219.076217
 20
57.043591
 30
0.0
 10
219.068726
 20
57.026122
 30
0.0
  0
SPLINE
  5
117
100
AcDbEntity
  8
B.Cu
 62
7
100
AcDbSpline
 70
8
 71
3
 72
8
 73
4
 74
0
 40
0
 40
0
 40
0
 40
0
 40
1
 40
1
 40
1
 40
1
 10
219.068726
 20
57.026122
 30
0.0
 10
219.009743
 20
57.013649
 30
0.0
 10
218.953501
 20
56.990611
 30
0.0
 10
218.902716
 20
56.958122
 30
0.0
  0
LWPOLYLINE
  5
118
100
AcDbEntity
  8
B.Cu
 62
7
100
AcDbPolyline
 90
7
 70
0
 10
222.752326
 20
59.653522
 30
0.0
 10
222.601936
 20
59.466022
 30
0.0
 10
221.894906
 20
58.766722
 30
0.0
 10
221.105846
 20
58.128122
 30
0.0
 10
220.271866
 20
57.608522
 30
0.0
 10
219.365616
 20
57.169122
 30
0.0
 10
219.094126
 20
57.077122
 30
0.0
  0
SPLINE
  5
119
100
AcDbEntity
  8
B.Cu
 62
7
100
AcDbSpline
 70
8
 71
3
 72
8
 73
4
 74
0
 40
0
 40
0
 40
0
 40
0
 40
1
 40
1
 40
1
 40
1
 10
55.723712
 20
54.329822
 30
0.0
 10
55.699819
 20
54.293388
 30
0.0
 10
55.680791
 20
54.253987
 30
0.0
 10
55.667112
 20
54.212622
 30
0.0
  0
SPLINE
  5
11a
100
AcDbEntity
  8
B.Cu
 62
7
100
AcDbSpline
 70
8
 71
3
 72
8
 73
4
 74
0
 40
0
 40
0
 40
0
 40
0
 40
1
 40
1
 40
1
 40
1
 10
55.667112
 20
54.212622
 30
0.0
 10
55.624322
 20
54.218184
 30
0.0
 10
55.580992
 20
54.218184
 30
0.0
 10
55.538202
 20
54.212622
 30
0.0
  0
LWPOLYLINE
  5
11b
100
AcDbEntity
  8
B.Cu
 62
7
100
AcDbPolyline
 90
93
 70
0
 10
218.902716
 20
56.958122
 30
0.0
 10
165.580445
 20
3.628020
 30
0.0
 10
165.566745
 20
3.616020
 30
0.0
 10
165.197605
 20
3.274220
 30
0.0
 10
165.193605
 20
3.274220
 30
0.0
 10
164.420165
 20
2.657020
 30
0.0
 10
163.994385
 20
2.393320
 30
0.0
 10
163.558845
 20
2.121920
 30
0.0
 10
162.662355
 20
1.692220
 30
0.0
 10
161.722905
 20
1.362120
 30
0.0
 10
160.736575
 20
1.131620
 30
0.0
 10
159.724855
 20
1.018320
 30
0.0
 10
159.240485
 20
1.008320
 30
0.0
 10
159.230485
 20
1.008320
 30
0.0
 10
51.533221
 20
1.008320
 30
0.0
 10
51.523221
 20
1.008320
 30
0.0
 10
51.038841
 20
1.018320
 30
0.0
 10
50.027131
 20
1.131620
 30
0.0
 10
49.536891
 20
1.246920
 30
0.0
 10
49.040801
 20
1.362120
 30
0.0
 10
48.347441
 20
1.594520
 30
0.0
 10
48.111111
 20
1.686520
 30
0.0
 10
47.197051
 20
2.124020
 30
0.0
 10
46.343531
 20
2.655220
 30
0.0
 10
45.552521
 20
3.286120
 30
0.0
 10
45.195091
 20
3.620120
 30
0.0
 10
45.183391
 20
3.632120
 30
0.0
 10
18.749793
 20
30.069621
 30
0.0
 10
18.738073
 20
30.081621
 30
0.0
 10
18.396276
 20
30.446821
 30
0.0
 10
18.386476
 20
30.458821
 30
0.0
 10
17.761476
 20
31.236221
 30
0.0
 10
17.238037
 20
32.076021
 30
0.0
 10
16.800537
 20
32.984221
 30
0.0
 10
16.468506
 20
33.933521
 30
0.0
 10
16.245850
 20
34.908121
 30
0.0
 10
16.133184
 20
35.890021
 30
0.0
 10
16.133184
 20
36.909521
 30
0.0
 10
16.246466
 20
37.899821
 30
0.0
 10
16.469122
 20
38.880221
 30
0.0
 10
16.799200
 20
39.825521
 30
0.0
 10
17.232794
 20
40.724021
 30
0.0
 10
17.762092
 20
41.569721
 30
0.0
 10
18.400763
 20
42.372421
 30
0.0
 10
18.738654
 20
42.725921
 30
0.0
 10
18.746454
 20
42.735921
 30
0.0
 10
45.183961
 20
69.177422
 30
0.0
 10
45.195661
 20
69.189422
 30
0.0
 10
45.553091
 20
69.523422
 30
0.0
 10
46.344101
 20
70.152322
 30
0.0
 10
47.197621
 20
70.695222
 30
0.0
 10
47.744491
 20
70.960922
 30
0.0
 10
47.748491
 20
70.960922
 30
0.0
 10
48.109821
 20
71.130822
 30
0.0
 10
48.330521
 20
71.208822
 30
0.0
 10
48.332521
 20
71.208822
 30
0.0
 10
49.047371
 20
71.458822
 30
0.0
 10
49.527841
 20
71.572022
 30
0.0
 10
49.537841
 20
71.572022
 30
0.0
 10
50.020261
 20
71.673622
 30
0.0
 10
51.043701
 20
71.790722
 30
0.0
 10
51.051701
 20
71.790722
 30
0.0
 10
51.524361
 20
71.808722
 30
0.0
 10
51.541961
 20
71.808722
 30
0.0
 10
53.016572
 20
71.808722
 30
0.0
 10
53.036072
 20
71.808722
 30
0.0
 10
53.508722
 20
71.790722
 30
0.0
 10
53.514722
 20
71.790722
 30
0.0
 10
54.530352
 20
71.675522
 30
0.0
 10
55.510822
 20
71.458722
 30
0.0
 10
56.458082
 20
71.126722
 30
0.0
 10
57.370192
 20
70.687222
 30
0.0
 10
58.215902
 20
70.148222
 30
0.0
 10
58.991292
 20
69.531022
 30
0.0
 10
59.715902
 20
68.806422
 30
0.0
 10
60.327222
 20
68.048622
 30
0.0
 10
60.866292
 20
67.191122
 30
0.0
 10
61.301832
 20
66.281022
 30
0.0
 10
61.633862
 20
65.327922
 30
0.0
 10
61.858472
 20
64.355222
 30
0.0
 10
61.969802
 20
63.366922
 30
0.0
 10
61.969802
 20
62.349322
 30
0.0
 10
61.856522
 20
61.357122
 30
0.0
 10
61.633862
 20
60.378622
 30
0.0
 10
61.303792
 20
59.433322
 30
0.0
 10
60.874102
 20
58.542722
 30
0.0
 10
60.327222
 20
57.669622
 30
0.0
 10
59.713942
 20
56.898222
 30
0.0
 10
58.991292
 20
56.175522
 30
0.0
 10
58.215902
 20
55.556422
 30
0.0
 10
57.362382
 20
55.025122
 30
0.0
 10
56.446362
 20
54.585722
 30
0.0
 10
55.723712
 20
54.329822
 30
0.0
  0
SPLINE
  5
11c
100
AcDbEntity
  8
B.Cu
 62
7
100
AcDbSpline
 70
8
 71
3
 72
8
 73
4
 74
0
 40
0
 40
0
 40
0
 40
0
 40
1
 40
1
 40
1
 40
1
 10
38.077261
 20
36.751721
 30
0.0
 10
37.882003
 20
36.556460
 30
0.0
 10
37.882003
 20
36.239882
 30
0.0
 10
38.077261
 20
36.044621
 30
0.0
  0
LWPOLYLINE
  5
11d
100
AcDbEntity
  8
B.Cu
 62
7
100
AcDbPolyline
 90
2
 70
0
 10
55.538202
 20
54.212622
 30
0.0
 10
38.077261
 20
36.751721
 30
0.0
  0
SPLINE
  5
11e
100
AcDbEntity
  8
B.Cu
 62
7
100
AcDbSpline
 70
8
 71
3
 72
8
 73
4
 74
0
 40
0
 40
0
 40
0
 40
0
 40
1
 40
1
 40
1
 40
1
 10
55.085082
 20
19.034921
 30
0.0
 10
55.178830
 20
18.941143
 30
0.0
 10
55.305991
 20
18.888446
 30
0.0
 10
55.438592
 20
18.888421
 30
0.0
  0
LWPOLYLINE
  5
11f
100
AcDbEntity
  8
B.Cu
 62
7
100
AcDbPolyline
 90
2
 70
0
 10
38.077261
 20
36.044621
 30
0.0
 10
55.085082
 20
19.034921
 30
0.0
  0
SPLINE
  5
120
100
AcDbEntity
  8
B.Cu
 62
7
100
AcDbSpline
 70
8
 71
3
 72
8
 73
4
 74
0
 40
0
 40
0
 40
0
 40
0
 40
1
 40
1
 40
1
 40
1
 10
155.327264
 20
18.888421
 30
0.0
 10
155.385787
 20
18.926491
 30
0.0
 10
155.435688
 20
18.976395
 30
0.0
 10
155.473754
 20
19.034921
 30
0.0
  0
SPLINE
  5
121
100
AcDbEntity
  8
B.Cu
 62
7
100
AcDbSpline
 70
8
 71
3
 72
8
 73
4
 74
0
 40
0
 40
0
 40
0
 40
0
 40
1
 40
1
 40
1
 40
1
 10
155.473754
 20
19.034921
 30
0.0
 10
155.542009
 20
19.020477
 30
0.0
 10
155.612530
 20
19.020477
 30
0.0
 10
155.680784
 20
19.034921
 30
0.0
  0
LWPOLYLINE
  5
122
100
AcDbEntity
  8
B.Cu
 62
7
100
AcDbPolyline
 90
2
 70
0
 10
55.438592
 20
18.888421
 30
0.0
 10
155.327264
 20
18.888421
 30
0.0
  0
SPLINE
  5
123
100
AcDbEntity
  8
B.Cu
 62
7
100
AcDbSpline
 70
8
 71
3
 72
8
 73
4
 74
0
 40
0
 40
0
 40
0
 40
0
 40
1
 40
1
 40
1
 40
1
 10
381.900511
 20
75.966922
 30
0.0
 10
381.986576
 20
75.907702
 30
0.0
 10
382.089029
 20
75.876928
 30
0.0
 10
382.193481
 20
75.878922
 30
0.0
  0
LWPOLYLINE
  5
124
100
AcDbEntity
  8
B.Cu
 62
7
100
AcDbPolyline
 90
36
 70
0
 10
155.680784
 20
19.034921
 30
0.0
 10
211.751096
 20
75.107122
 30
0.0
 10
211.759096
 20
75.117122
 30
0.0
 10
212.116526
 20
75.460822
 30
0.0
 10
212.903636
 20
76.087822
 30
0.0
 10
213.384096
 20
76.384622
 30
0.0
 10
213.388096
 20
76.384622
 30
0.0
 10
213.390096
 20
76.384622
 30
0.0
 10
213.753376
 20
76.615122
 30
0.0
 10
214.663536
 20
77.054622
 30
0.0
 10
215.472126
 20
77.333922
 30
0.0
 10
215.476126
 20
77.333922
 30
0.0
 10
215.482126
 20
77.333922
 30
0.0
 10
215.603216
 20
77.378922
 30
0.0
 10
215.765326
 20
77.413922
 30
0.0
 10
215.773326
 20
77.423922
 30
0.0
 10
215.779326
 20
77.423922
 30
0.0
 10
216.584006
 20
77.615322
 30
0.0
 10
217.597676
 20
77.720822
 30
0.0
 10
217.609376
 20
77.720822
 30
0.0
 10
218.085946
 20
77.738822
 30
0.0
 10
218.105446
 20
77.738822
 30
0.0
 10
221.603486
 20
77.738822
 30
0.0
 10
376.546851
 20
77.738822
 30
0.0
 10
376.564451
 20
77.738822
 30
0.0
 10
377.042971
 20
77.720822
 30
0.0
 10
377.054671
 20
77.720822
 30
0.0
 10
378.062481
 20
77.617322
 30
0.0
 10
379.044901
 20
77.388722
 30
0.0
 10
379.986311
 20
77.058722
 30
0.0
 10
380.898421
 20
76.619222
 30
0.0
 10
381.261701
 20
76.388722
 30
0.0
 10
381.263701
 20
76.388722
 30
0.0
 10
381.267701
 20
76.388722
 30
0.0
 10
381.744261
 20
76.095822
 30
0.0
 10
381.900511
 20
75.966922
 30
0.0
  0
SPLINE
  5
125
100
AcDbEntity
  8
B.Cu
 62
7
100
AcDbSpline
 70
8
 71
3
 72
8
 73
4
 74
0
 40
0
 40
0
 40
0
 40
0
 40
1
 40
1
 40
1
 40
1
 10
383.623111
 20
74.592822
 30
0.0
 10
383.623134
 20
74.460228
 30
0.0
 10
383.675824
 20
74.333072
 30
0.0
 10
383.769591
 20
74.239322
 30
0.0
  0
LWPOLYLINE
  5
126
100
AcDbEntity
  8
B.Cu
 62
7
100
AcDbPolyline
 90
8
 70
0
 10
382.193481
 20
75.878922
 30
0.0
 10
382.216881
 20
75.854922
 30
0.0
 10
383.125081
 20
75.854922
 30
0.0
 10
383.345781
 20
75.811922
 30
0.0
 10
383.486411
 20
75.715922
 30
0.0
 10
383.580111
 20
75.577222
 30
0.0
 10
383.623111
 20
75.358422
 30
0.0
 10
383.623111
 20
74.592822
 30
0.0
  0
SPLINE
  5
127
100
AcDbEntity
  8
B.Cu
 62
7
100
AcDbSpline
 70
8
 71
3
 72
8
 73
4
 74
0
 40
0
 40
0
 40
0
 40
0
 40
1
 40
1
 40
1
 40
1
 10
416.554752
 20
41.460021
 30
0.0
 10
416.623006
 20
41.445578
 30
0.0
 10
416.693528
 20
41.445578
 30
0.0
 10
416.761782
 20
41.460021
 30
0.0
  0
SPLINE
  5
128
100
AcDbEntity
  8
B.Cu
 62
7
100
AcDbSpline
 70
8
 71
3
 72
8
 73
4
 74
0
 40
0
 40
0
 40
0
 40
0
 40
1
 40
1
 40
1
 40
1
 10
416.761782
 20
41.460021
 30
0.0
 10
416.799846
 20
41.401497
 30
0.0
 10
416.849743
 20
41.351593
 30
0.0
 10
416.908262
 20
41.313521
 30
0.0
  0
LWPOLYLINE
  5
129
100
AcDbEntity
  8
B.Cu
 62
7
100
AcDbPolyline
 90
2
 70
0
 10
383.769591
 20
74.239322
 30
0.0
 10
416.554752
 20
41.460021
 30
0.0
  0
SPLINE
  5
12a
100
AcDbEntity
  8
B.Cu
 62
7
100
AcDbSpline
 70
8
 71
3
 72
8
 73
4
 74
0
 40
0
 40
0
 40
0
 40
0
 40
1
 40
1
 40
1
 40
1
 10
578.511787
 20
41.313521
 30
0.0
 10
578.529923
 20
41.329279
 30
0.0
 10
578.546901
 20
41.346323
 30
0.0
 10
578.562587
 20
41.364521
 30
0.0
  0
SPLINE
  5
12b
100
AcDbEntity
  8
B.Cu
 62
7
100
AcDbSpline
 70
8
 71
3
 72
8
 73
4
 74
0
 40
0
 40
0
 40
0
 40
0
 40
1
 40
1
 40
1
 40
1
 10
578.562587
 20
41.364521
 30
0.0
 10
578.581884
 20
41.350767
 30
0.0
 10
578.602135
 20
41.338403
 30
0.0
 10
578.623187
 20
41.327521
 30
0.0
  0
LWPOLYLINE
  5
12c
100
AcDbEntity
  8
B.Cu
 62
7
100
AcDbPolyline
 90
3
 70
0
 10
416.908262
 20
41.313521
 30
0.0
 10
499.398504
 20
41.313521
 30
0.0
 10
578.511787
 20
41.313521
 30
0.0
  0
SPLINE
  5
12d
100
AcDbEntity
  8
B.Cu
 62
7
100
AcDbSpline
 70
8
 71
3
 72
8
 73
4
 74
0
 40
0
 40
0
 40
0
 40
0
 40
1
 40
1
 40
1
 40
1
 10
618.623418
 20
41.573821
 30
0.0
 10
618.681937
 20
41.611893
 30
0.0
 10
618.731834
 20
41.661797
 30
0.0
 10
618.769898
 20
41.720321
 30
0.0
  0
SPLINE
  5
12e
100
AcDbEntity
  8
B.Cu
 62
7
100
AcDbSpline
 70
8
 71
3
 72
8
 73
4
 74
0
 40
0
 40
0
 40
0
 40
0
 40
1
 40
1
 40
1
 40
1
 10
618.769898
 20
41.720321
 30
0.0
 10
618.838152
 20
41.705878
 30
0.0
 10
618.908674
 20
41.705878
 30
0.0
 10
618.976928
 20
41.720321
 30
0.0
  0
LWPOLYLINE
  5
12f
100
AcDbEntity
  8
B.Cu
 62
7
100
AcDbPolyline
 90
6
 70
0
 10
578.623187
 20
41.327521
 30
0.0
 10
579.160287
 20
41.450521
 30
0.0
 10
580.154437
 20
41.563821
 30
0.0
 10
580.658337
 20
41.573821
 30
0.0
 10
580.668337
 20
41.573821
 30
0.0
 10
618.623418
 20
41.573821
 30
0.0
  0
SPLINE
  5
130
100
AcDbEntity
  8
B.Cu
 62
7
100
AcDbSpline
 70
8
 71
3
 72
8
 73
4
 74
0
 40
0
 40
0
 40
0
 40
0
 40
1
 40
1
 40
1
 40
1
 10
663.371869
 20
63.945522
 30
0.0
 10
663.504473
 20
63.945545
 30
0.0
 10
663.631638
 20
63.998242
 30
0.0
 10
663.725389
 20
64.092022
 30
0.0
  0
LWPOLYLINE
  5
131
100
AcDbEntity
  8
B.Cu
 62
7
100
AcDbPolyline
 90
17
 70
0
 10
618.976928
 20
41.720321
 30
0.0
 10
638.570678
 20
61.317922
 30
0.0
 10
638.584378
 20
61.329922
 30
0.0
 10
638.953518
 20
61.673622
 30
0.0
 10
638.957518
 20
61.673622
 30
0.0
 10
639.727048
 20
62.286822
 30
0.0
 10
640.156738
 20
62.564222
 30
0.0
 10
640.162738
 20
62.564222
 30
0.0
 10
640.586568
 20
62.827922
 30
0.0
 10
641.488908
 20
63.261522
 30
0.0
 10
642.418598
 20
63.587622
 30
0.0
 10
643.416638
 20
63.812222
 30
0.0
 10
644.430319
 20
63.927522
 30
0.0
 10
644.438319
 20
63.927522
 30
0.0
 10
644.910969
 20
63.945522
 30
0.0
 10
644.930469
 20
63.945522
 30
0.0
 10
663.371869
 20
63.945522
 30
0.0
  0
SPLINE
  5
132
100
AcDbEntity
  8
B.Cu
 62
7
100
AcDbSpline
 70
8
 71
3
 72
8
 73
4
 74
0
 40
0
 40
0
 40
0
 40
0
 40
1
 40
1
 40
1
 40
1
 10
677.391399
 20
77.752222
 30
0.0
 10
677.485170
 20
77.845970
 30
0.0
 10
677.537864
 20
77.973126
 30
0.0
 10
677.537889
 20
78.105722
 30
0.0
  0
LWPOLYLINE
  5
133
100
AcDbEntity
  8
B.Cu
 62
7
100
AcDbPolyline
 90
2
 70
0
 10
663.725389
 20
64.092022
 30
0.0
 10
677.391399
 20
77.752222
 30
0.0
  0
SPLINE
  5
134
100
AcDbEntity
  8
B.Cu
 62
7
100
AcDbSpline
 70
8
 71
3
 72
8
 73
4
 74
0
 40
0
 40
0
 40
0
 40
0
 40
1
 40
1
 40
1
 40
1
 10
677.537889
 20
183.664325
 30
0.0
 10
677.499823
 20
183.722850
 30
0.0
 10
677.449922
 20
183.772755
 30
0.0
 10
677.391399
 20
183.810825
 30
0.0
  0
SPLINE
  5
135
100
AcDbEntity
  8
B.Cu
 62
7
100
AcDbSpline
 70
8
 71
3
 72
8
 73
4
 74
0
 40
0
 40
0
 40
0
 40
0
 40
1
 40
1
 40
1
 40
1
 10
677.391399
 20
183.810825
 30
0.0
 10
677.405839
 20
183.879070
 30
0.0
 10
677.405839
 20
183.949581
 30
0.0
 10
677.391399
 20
184.017825
 30
0.0
  0
LWPOLYLINE
  5
136
100
AcDbEntity
  8
B.Cu
 62
7
100
AcDbPolyline
 90
2
 70
0
 10
677.537889
 20
78.105722
 30
0.0
 10
677.537889
 20
183.664325
 30
0.0
  0
SPLINE
  5
137
100
AcDbEntity
  8
B.Cu
 62
7
100
AcDbSpline
 70
8
 71
3
 72
8
 73
4
 74
0
 40
0
 40
0
 40
0
 40
0
 40
1
 40
1
 40
1
 40
1
 10
660.248829
 20
201.158426
 30
0.0
 10
660.180571
 20
201.172871
 30
0.0
 10
660.110046
 20
201.172871
 30
0.0
 10
660.041789
 20
201.158426
 30
0.0
  0
SPLINE
  5
138
100
AcDbEntity
  8
B.Cu
 62
7
100
AcDbSpline
 70
8
 71
3
 72
8
 73
4
 74
0
 40
0
 40
0
 40
0
 40
0
 40
1
 40
1
 40
1
 40
1
 10
660.041789
 20
201.158426
 30
0.0
 10
660.003725
 20
201.216950
 30
0.0
 10
659.953828
 20
201.266854
 30
0.0
 10
659.895309
 20
201.304926
 30
0.0
  0
LWPOLYLINE
  5
139
100
AcDbEntity
  8
B.Cu
 62
7
100
AcDbPolyline
 90
2
 70
0
 10
677.391399
 20
184.017825
 30
0.0
 10
660.248829
 20
201.158426
 30
0.0
  0
SPLINE
  5
13a
100
AcDbEntity
  8
B.Cu
 62
7
100
AcDbSpline
 70
8
 71
3
 72
8
 73
4
 74
0
 40
0
 40
0
 40
0
 40
0
 40
1
 40
1
 40
1
 40
1
 10
611.213678
 20
211.887326
 30
0.0
 10
611.202619
 20
211.907146
 30
0.0
 10
611.190224
 20
211.926190
 30
0.0
 10
611.176578
 20
211.944326
 30
0.0
  0
SPLINE
  5
13b
100
AcDbEntity
  8
B.Cu
 62
7
100
AcDbSpline
 70
8
 71
3
 72
8
 73
4
 74
0
 40
0
 40
0
 40
0
 40
0
 40
1
 40
1
 40
1
 40
1
 10
611.176578
 20
211.944326
 30
0.0
 10
611.193956
 20
211.959514
 30
0.0
 10
611.210261
 20
211.975886
 30
0.0
 10
611.225378
 20
211.993326
 30
0.0
  0
LWPOLYLINE
  5
13c
100
AcDbEntity
  8
B.Cu
 62
7
100
AcDbPolyline
 90
21
 70
0
 10
659.895309
 20
201.304926
 30
0.0
 10
620.024218
 20
201.304926
 30
0.0
 10
620.004718
 20
201.304926
 30
0.0
 10
619.526208
 20
201.322926
 30
0.0
 10
619.514508
 20
201.322926
 30
0.0
 10
618.506698
 20
201.426426
 30
0.0
 10
617.524278
 20
201.654926
 30
0.0
 10
616.582868
 20
201.985026
 30
0.0
 10
615.672708
 20
202.424426
 30
0.0
 10
614.825058
 20
202.951826
 30
0.0
 10
614.049668
 20
203.570926
 30
0.0
 10
613.327008
 20
204.293626
 30
0.0
 10
612.705918
 20
205.074826
 30
0.0
 10
612.166848
 20
205.938126
 30
0.0
 10
611.739118
 20
206.822926
 30
0.0
 10
611.407088
 20
207.774026
 30
0.0
 10
611.184428
 20
208.752526
 30
0.0
 10
611.071148
 20
209.744726
 30
0.0
 10
611.071148
 20
210.762326
 30
0.0
 10
611.182478
 20
211.746726
 30
0.0
 10
611.213678
 20
211.887326
 30
0.0
  0
SPLINE
  5
13d
100
AcDbEntity
  8
B.Cu
 62
7
100
AcDbSpline
 70
8
 71
3
 72
8
 73
4
 74
0
 40
0
 40
0
 40
0
 40
0
 40
1
 40
1
 40
1
 40
1
 10
618.295638
 20
219.063226
 30
0.0
 10
618.327010
 20
219.055478
 30
0.0
 10
618.359060
 20
219.050789
 30
0.0
 10
618.391338
 20
219.049226
 30
0.0
  0
LWPOLYLINE
  5
13e
100
AcDbEntity
  8
B.Cu
 62
7
100
AcDbPolyline
 90
6
 70
0
 10
611.225378
 20
211.993326
 30
0.0
 10
611.207778
 20
212.011326
 30
0.0
 10
611.207778
 20
219.054226
 30
0.0
 10
618.246838
 20
219.054226
 30
0.0
 10
618.266338
 20
219.034226
 30
0.0
 10
618.295638
 20
219.063226
 30
0.0
  0
SPLINE
  5
13f
100
AcDbEntity
  8
B.Cu
 62
7
100
AcDbSpline
 70
8
 71
3
 72
8
 73
4
 74
0
 40
0
 40
0
 40
0
 40
0
 40
1
 40
1
 40
1
 40
1
 10
667.108479
 20
219.181726
 30
0.0
 10
667.277259
 20
219.228685
 30
0.0
 10
667.409152
 20
219.360554
 30
0.0
 10
667.456139
 20
219.529326
 30
0.0
  0
SPLINE
  5
140
100
AcDbEntity
  8
B.Cu
 62
7
100
AcDbSpline
 70
8
 71
3
 72
8
 73
4
 74
0
 40
0
 40
0
 40
0
 40
0
 40
1
 40
1
 40
1
 40
1
 10
667.456139
 20
219.529326
 30
0.0
 10
667.508848
 20
219.552857
 30
0.0
 10
667.557083
 20
219.585337
 30
0.0
 10
667.598709
 20
219.625326
 30
0.0
  0
LWPOLYLINE
  5
141
100
AcDbEntity
  8
B.Cu
 62
7
100
AcDbPolyline
 90
13
 70
0
 10
618.391338
 20
219.049226
 30
0.0
 10
618.518298
 20
219.080226
 30
0.0
 10
619.514388
 20
219.183726
 30
0.0
 10
619.526088
 20
219.183726
 30
0.0
 10
620.004598
 20
219.201726
 30
0.0
 10
620.024098
 20
219.201726
 30
0.0
 10
663.809249
 20
219.201726
 30
0.0
 10
666.502609
 20
219.201726
 30
0.0
 10
666.522109
 20
219.201726
 30
0.0
 10
667.031879
 20
219.181726
 30
0.0
 10
667.041879
 20
219.191726
 30
0.0
 10
667.049879
 20
219.181726
 30
0.0
 10
667.108479
 20
219.181726
 30
0.0
  0
LWPOLYLINE
  5
142
100
AcDbEntity
  8
B.Cu
 62
7
100
AcDbPolyline
 90
5
 70
0
 10
667.598709
 20
219.625326
 30
0.0
 10
667.649509
 20
219.885126
 30
0.0
 10
667.745209
 20
220.029626
 30
0.0
 10
667.881929
 20
220.117626
 30
0.0
 10
668.094259
 20
220.169326
 30
0.0
  0
SPLINE
  5
143
100
AcDbEntity
  8
B.Cu
 62
7
100
AcDbSpline
 70
8
 71
3
 72
8
 73
4
 74
0
 40
0
 40
0
 40
0
 40
0
 40
1
 40
1
 40
1
 40
1
 10
661.108459
 20
254.344827
 30
0.0
 10
661.141712
 20
254.273759
 30
0.0
 10
661.191223
 20
254.211515
 30
0.0
 10
661.252989
 20
254.163127
 30
0.0
  0
SPLINE
  5
144
100
AcDbEntity
  8
B.Cu
 62
7
100
AcDbSpline
 70
8
 71
3
 72
8
 73
4
 74
0
 40
0
 40
0
 40
0
 40
0
 40
1
 40
1
 40
1
 40
1
 10
661.252989
 20
254.163127
 30
0.0
 10
661.235663
 20
254.088621
 30
0.0
 10
661.235663
 20
254.011133
 30
0.0
 10
661.252989
 20
253.936627
 30
0.0
  0
LWPOLYLINE
  5
145
100
AcDbEntity
  8
B.Cu
 62
7
100
AcDbPolyline
 90
21
 70
0
 10
591.996627
 20
264.559928
 30
0.0
 10
592.006627
 20
264.559928
 30
0.0
 10
614.672648
 20
264.559928
 30
0.0
 10
652.250769
 20
264.559928
 30
0.0
 10
652.260769
 20
264.559928
 30
0.0
 10
652.764669
 20
264.549928
 30
0.0
 10
653.758809
 20
264.436628
 30
0.0
 10
654.745139
 20
264.206128
 30
0.0
 10
655.682639
 20
263.878028
 30
0.0
 10
656.600609
 20
263.434628
 30
0.0
 10
657.440449
 20
262.911228
 30
0.0
 10
658.217799
 20
262.292028
 30
0.0
 10
658.938499
 20
261.569428
 30
0.0
 10
659.559599
 20
260.792027
 30
0.0
 10
660.094749
 20
259.934627
 30
0.0
 10
660.528349
 20
259.036227
 30
0.0
 10
660.858419
 20
258.094827
 30
0.0
 10
661.081079
 20
257.120227
 30
0.0
 10
661.194359
 20
256.120227
 30
0.0
 10
661.194359
 20
255.100627
 30
0.0
 10
661.108459
 20
254.344827
 30
0.0
  0
SPLINE
  5
146
100
AcDbEntity
  8
B.Cu
 62
7
100
AcDbSpline
 70
8
 71
3
 72
8
 73
4
 74
0
 40
0
 40
0
 40
0
 40
0
 40
1
 40
1
 40
1
 40
1
 10
676.307649
 20
236.147127
 30
0.0
 10
676.312030
 20
236.107099
 30
0.0
 10
676.321230
 20
236.067748
 30
0.0
 10
676.335049
 20
236.029927
 30
0.0
  0
SPLINE
  5
147
100
AcDbEntity
  8
B.Cu
 62
7
100
AcDbSpline
 70
8
 71
3
 72
8
 73
4
 74
0
 40
0
 40
0
 40
0
 40
0
 40
1
 40
1
 40
1
 40
1
 10
676.335049
 20
236.029927
 30
0.0
 10
676.325301
 20
236.017370
 30
0.0
 10
676.316158
 20
236.004355
 30
0.0
 10
676.307649
 20
235.990927
 30
0.0
  0
LWPOLYLINE
  5
148
100
AcDbEntity
  8
B.Cu
 62
7
100
AcDbPolyline
 90
10
 70
0
 10
661.252989
 20
253.936627
 30
0.0
 10
674.817449
 20
240.372127
 30
0.0
 10
674.833049
 20
240.356127
 30
0.0
 10
675.100629
 20
240.063127
 30
0.0
 10
675.588909
 20
239.389327
 30
0.0
 10
675.956099
 20
238.670527
 30
0.0
 10
676.200239
 20
237.910827
 30
0.0
 10
676.329149
 20
237.098327
 30
0.0
 10
676.329149
 20
236.287727
 30
0.0
 10
676.307649
 20
236.147127
 30
0.0
  0
SPLINE
  5
149
100
AcDbEntity
  8
B.Cu
 62
7
100
AcDbSpline
 70
8
 71
3
 72
8
 73
4
 74
0
 40
0
 40
0
 40
0
 40
0
 40
1
 40
1
 40
1
 40
1
 10
668.614329
 20
232.164427
 30
0.0
 10
668.583064
 20
232.189062
 30
0.0
 10
668.548970
 20
232.209876
 30
0.0
 10
668.512769
 20
232.226427
 30
0.0
  0
SPLINE
  5
14a
100
AcDbEntity
  8
B.Cu
 62
7
100
AcDbSpline
 70
8
 71
3
 72
8
 73
4
 74
0
 40
0
 40
0
 40
0
 40
0
 40
1
 40
1
 40
1
 40
1
 10
668.512769
 20
232.226427
 30
0.0
 10
668.510851
 20
232.242212
 30
0.0
 10
668.508182
 20
232.257896
 30
0.0
 10
668.504769
 20
232.273427
 30
0.0
  0
LWPOLYLINE
  5
14b
100
AcDbEntity
  8
B.Cu
 62
7
100
AcDbPolyline
 90
19
 70
0
 10
676.307649
 20
235.990927
 30
0.0
 10
676.417029
 20
235.299527
 30
0.0
 10
676.417029
 20
234.610027
 30
0.0
 10
676.311559
 20
233.934227
 30
0.0
 10
676.094759
 20
233.270227
 30
0.0
 10
675.782259
 20
232.656927
 30
0.0
 10
675.370149
 20
232.092427
 30
0.0
 10
674.887729
 20
231.604127
 30
0.0
 10
674.331089
 20
231.201827
 30
0.0
 10
673.711949
 20
230.885427
 30
0.0
 10
673.042029
 20
230.664727
 30
0.0
 10
672.362339
 20
230.559227
 30
0.0
 10
671.672889
 20
230.559227
 30
0.0
 10
670.997109
 20
230.664727
 30
0.0
 10
670.325229
 20
230.885427
 30
0.0
 10
669.711949
 20
231.197927
 30
0.0
 10
669.149449
 20
231.604127
 30
0.0
 10
668.667029
 20
232.092427
 30
0.0
 10
668.614329
 20
232.164427
 30
0.0
  0
SPLINE
  5
14c
100
AcDbEntity
  8
B.Cu
 62
7
100
AcDbSpline
 70
8
 71
3
 72
8
 73
4
 74
0
 40
0
 40
0
 40
0
 40
0
 40
1
 40
1
 40
1
 40
1
 10
653.918839
 20
246.623327
 30
0.0
 10
653.816431
 20
246.724253
 30
0.0
 10
653.675533
 20
246.776208
 30
0.0
 10
653.532119
 20
246.765927
 30
0.0
  0
LWPOLYLINE
  5
14d
100
AcDbEntity
  8
B.Cu
 62
7
100
AcDbPolyline
 90
6
 70
0
 10
668.504769
 20
232.273427
 30
0.0
 10
667.811409
 20
232.777327
 30
0.0
 10
667.522349
 20
233.042927
 30
0.0
 10
667.506749
 20
233.056927
 30
0.0
 10
653.940339
 20
246.623327
 30
0.0
 10
653.918839
 20
246.623327
 30
0.0
  0
SPLINE
  5
14e
100
AcDbEntity
  8
B.Cu
 62
7
100
AcDbSpline
 70
8
 71
3
 72
8
 73
4
 74
0
 40
0
 40
0
 40
0
 40
0
 40
1
 40
1
 40
1
 40
1
 10
620.342438
 20
246.667927
 30
0.0
 10
620.209830
 20
246.667927
 30
0.0
 10
620.082653
 20
246.615249
 30
0.0
 10
619.988884
 20
246.521480
 30
0.0
  0
SPLINE
  5
14f
100
AcDbEntity
  8
B.Cu
 62
7
100
AcDbSpline
 70
8
 71
3
 72
8
 73
4
 74
0
 40
0
 40
0
 40
0
 40
0
 40
1
 40
1
 40
1
 40
1
 10
619.988884
 20
246.521480
 30
0.0
 10
619.895116
 20
246.427712
 30
0.0
 10
619.842438
 20
246.300535
 30
0.0
 10
619.842438
 20
246.167927
 30
0.0
  0
LWPOLYLINE
  5
150
100
AcDbEntity
  8
B.Cu
 62
7
100
AcDbPolyline
 90
5
 70
0
 10
653.532119
 20
246.765927
 30
0.0
 10
652.746969
 20
246.677927
 30
0.0
 10
652.260639
 20
246.667927
 30
0.0
 10
652.250639
 20
246.667927
 30
0.0
 10
620.342438
 20
246.667927
 30
0.0
  0
SPLINE
  5
151
100
AcDbEntity
  8
B.Cu
 62
7
100
AcDbSpline
 70
8
 71
3
 72
8
 73
4
 74
0
 40
0
 40
0
 40
0
 40
0
 40
1
 40
1
 40
1
 40
1
 10
609.504498
 20
246.167927
 30
0.0
 10
609.504498
 20
246.300535
 30
0.0
 10
609.451819
 20
246.427712
 30
0.0
 10
609.358051
 20
246.521480
 30
0.0
  0
SPLINE
  5
152
100
AcDbEntity
  8
B.Cu
 62
7
100
AcDbSpline
 70
8
 71
3
 72
8
 73
4
 74
0
 40
0
 40
0
 40
0
 40
0
 40
1
 40
1
 40
1
 40
1
 10
609.358051
 20
246.521480
 30
0.0
 10
609.264283
 20
246.615249
 30
0.0
 10
609.137106
 20
246.667927
 30
0.0
 10
609.004497
 20
246.667927
 30
0.0
  0
LWPOLYLINE
  5
153
100
AcDbEntity
  8
B.Cu
 62
7
100
AcDbPolyline
 90
26
 70
0
 10
619.842438
 20
246.167927
 30
0.0
 10
619.842438
 20
234.978427
 30
0.0
 10
619.842438
 20
234.959427
 30
0.0
 10
619.824838
 20
234.543427
 30
0.0
 10
619.697888
 20
233.748527
 30
0.0
 10
619.449838
 20
232.984827
 30
0.0
 10
619.084608
 20
232.270027
 30
0.0
 10
618.606088
 20
231.607827
 30
0.0
 10
618.033818
 20
231.033627
 30
0.0
 10
617.375618
 20
230.557127
 30
0.0
 10
616.654918
 20
230.184027
 30
0.0
 10
615.879528
 20
229.937927
 30
0.0
 10
615.076788
 20
229.809027
 30
0.0
 10
614.270148
 20
229.809027
 30
0.0
 10
613.467418
 20
229.937927
 30
0.0
 10
612.692028
 20
230.184027
 30
0.0
 10
611.971318
 20
230.557127
 30
0.0
 10
611.313118
 20
231.033627
 30
0.0
 10
610.740858
 20
231.607827
 30
0.0
 10
610.262338
 20
232.270027
 30
0.0
 10
609.897108
 20
232.984827
 30
0.0
 10
609.649058
 20
233.748527
 30
0.0
 10
609.518198
 20
234.559027
 30
0.0
 10
609.504498
 20
234.959427
 30
0.0
 10
609.504498
 20
234.978427
 30
0.0
 10
609.504498
 20
246.167927
 30
0.0
  0
SPLINE
  5
154
100
AcDbEntity
  8
B.Cu
 62
7
100
AcDbSpline
 70
8
 71
3
 72
8
 73
4
 74
0
 40
0
 40
0
 40
0
 40
0
 40
1
 40
1
 40
1
 40
1
 10
595.910747
 20
246.667927
 30
0.0
 10
595.852225
 20
246.629857
 30
0.0
 10
595.802324
 20
246.579952
 30
0.0
 10
595.764257
 20
246.521427
 30
0.0
  0
SPLINE
  5
155
100
AcDbEntity
  8
B.Cu
 62
7
100
AcDbSpline
 70
8
 71
3
 72
8
 73
4
 74
0
 40
0
 40
0
 40
0
 40
0
 40
1
 40
1
 40
1
 40
1
 10
595.764257
 20
246.521427
 30
0.0
 10
595.696003
 20
246.535871
 30
0.0
 10
595.625481
 20
246.535871
 30
0.0
 10
595.557227
 20
246.521427
 30
0.0
  0
LWPOLYLINE
  5
156
100
AcDbEntity
  8
B.Cu
 62
7
100
AcDbPolyline
 90
2
 70
0
 10
609.004497
 20
246.667927
 30
0.0
 10
595.910747
 20
246.667927
 30
0.0
  0
SPLINE
  5
157
100
AcDbEntity
  8
B.Cu
 62
7
100
AcDbSpline
 70
8
 71
3
 72
8
 73
4
 74
0
 40
0
 40
0
 40
0
 40
0
 40
1
 40
1
 40
1
 40
1
 10
466.779003
 20
206.778726
 30
0.0
 10
466.789198
 20
206.801395
 30
0.0
 10
466.797688
 20
206.824794
 30
0.0
 10
466.804403
 20
206.848726
 30
0.0
  0
SPLINE
  5
158
100
AcDbEntity
  8
B.Cu
 62
7
100
AcDbSpline
 70
8
 71
3
 72
8
 73
4
 74
0
 40
0
 40
0
 40
0
 40
0
 40
1
 40
1
 40
1
 40
1
 10
466.804403
 20
206.848726
 30
0.0
 10
466.856265
 20
206.896214
 30
0.0
 10
466.897526
 20
206.954108
 30
0.0
 10
466.925493
 20
207.018626
 30
0.0
  0
SPLINE
  5
159
100
AcDbEntity
  8
B.Cu
 62
7
100
AcDbSpline
 70
8
 71
3
 72
8
 73
4
 74
0
 40
0
 40
0
 40
0
 40
0
 40
1
 40
1
 40
1
 40
1
 10
466.925493
 20
207.018626
 30
0.0
 10
466.965620
 20
207.033369
 30
0.0
 10
467.003691
 20
207.053197
 30
0.0
 10
467.038773
 20
207.077626
 30
0.0
  0
LWPOLYLINE
  5
15a
100
AcDbEntity
  8
B.Cu
 62
7
100
AcDbPolyline
 90
56
 70
0
 10
595.557227
 20
246.521427
 30
0.0
 10
530.305275
 20
181.263625
 30
0.0
 10
530.293575
 20
181.251625
 30
0.0
 10
529.936155
 20
180.917625
 30
0.0
 10
529.149045
 20
180.290625
 30
0.0
 10
528.721305
 20
180.013325
 30
0.0
 10
528.719305
 20
180.013325
 30
0.0
 10
528.295475
 20
179.747725
 30
0.0
 10
527.391185
 20
179.312125
 30
0.0
 10
526.438055
 20
178.978125
 30
0.0
 10
525.473215
 20
178.763325
 30
0.0
 10
524.475165
 20
178.648125
 30
0.0
 10
524.471165
 20
178.648125
 30
0.0
 10
523.963355
 20
178.628125
 30
0.0
 10
523.945755
 20
178.628125
 30
0.0
 10
482.408644
 20
178.628125
 30
0.0
 10
482.391044
 20
178.628125
 30
0.0
 10
481.883224
 20
178.648125
 30
0.0
 10
481.879224
 20
178.648125
 30
0.0
 10
480.887034
 20
178.763325
 30
0.0
 10
480.347974
 20
178.886325
 30
0.0
 10
480.343974
 20
178.886325
 30
0.0
 10
480.341974
 20
178.886325
 30
0.0
 10
479.906424
 20
178.982325
 30
0.0
 10
479.199394
 20
179.230425
 30
0.0
 10
479.197394
 20
179.230425
 30
0.0
 10
478.966924
 20
179.310425
 30
0.0
 10
478.078254
 20
179.740125
 30
0.0
 10
478.050854
 20
179.760125
 30
0.0
 10
478.021554
 20
179.770125
 30
0.0
 10
478.017554
 20
179.786125
 30
0.0
 10
477.203104
 20
180.295925
 30
0.0
 10
476.417944
 20
180.920925
 30
0.0
 10
476.060524
 20
181.254925
 30
0.0
 10
476.048824
 20
181.266925
 30
0.0
 10
464.736323
 20
192.581426
 30
0.0
 10
464.736323
 20
192.581426
 30
0.0
 10
464.380853
 20
192.960326
 30
0.0
 10
464.370853
 20
192.972326
 30
0.0
 10
463.751703
 20
193.741926
 30
0.0
 10
463.222413
 20
194.587626
 30
0.0
 10
462.784913
 20
195.497726
 30
0.0
 10
462.452883
 20
196.450826
 30
0.0
 10
462.230223
 20
197.419626
 30
0.0
 10
462.116943
 20
198.411826
 30
0.0
 10
462.116943
 20
199.429426
 30
0.0
 10
462.230223
 20
200.423526
 30
0.0
 10
462.452883
 20
201.400126
 30
0.0
 10
462.782953
 20
202.345426
 30
0.0
 10
463.212643
 20
203.238026
 30
0.0
 10
463.751703
 20
204.097326
 30
0.0
 10
464.380613
 20
204.888326
 30
0.0
 10
465.095453
 20
205.603226
 30
0.0
 10
465.870853
 20
206.222326
 30
0.0
 10
466.718503
 20
206.749726
 30
0.0
 10
466.779003
 20
206.778726
 30
0.0
  0
SPLINE
  5
15b
100
AcDbEntity
  8
B.Cu
 62
7
100
AcDbSpline
 70
8
 71
3
 72
8
 73
4
 74
0
 40
0
 40
0
 40
0
 40
0
 40
1
 40
1
 40
1
 40
1
 10
475.062214
 20
207.077626
 30
0.0
 10
475.097296
 20
207.053197
 30
0.0
 10
475.135367
 20
207.033369
 30
0.0
 10
475.175494
 20
207.018626
 30
0.0
  0
SPLINE
  5
15c
100
AcDbEntity
  8
B.Cu
 62
7
100
AcDbSpline
 70
8
 71
3
 72
8
 73
4
 74
0
 40
0
 40
0
 40
0
 40
0
 40
1
 40
1
 40
1
 40
1
 10
475.175494
 20
207.018626
 30
0.0
 10
475.203464
 20
206.954107
 30
0.0
 10
475.244729
 20
206.896213
 30
0.0
 10
475.296594
 20
206.848726
 30
0.0
  0
SPLINE
  5
15d
100
AcDbEntity
  8
B.Cu
 62
7
100
AcDbSpline
 70
8
 71
3
 72
8
 73
4
 74
0
 40
0
 40
0
 40
0
 40
0
 40
1
 40
1
 40
1
 40
1
 10
475.296594
 20
206.848726
 30
0.0
 10
475.303309
 20
206.824794
 30
0.0
 10
475.311799
 20
206.801395
 30
0.0
 10
475.321994
 20
206.778726
 30
0.0
  0
LWPOLYLINE
  5
15e
100
AcDbEntity
  8
B.Cu
 62
7
100
AcDbPolyline
 90
18
 70
0
 10
467.038773
 20
207.077626
 30
0.0
 10
467.150103
 20
207.421326
 30
0.0
 10
467.450883
 20
208.009226
 30
0.0
 10
467.841513
 20
208.546326
 30
0.0
 10
468.314163
 20
209.015126
 30
0.0
 10
468.845413
 20
209.403826
 30
0.0
 10
469.427453
 20
209.704626
 30
0.0
 10
470.054403
 20
209.899926
 30
0.0
 10
470.712604
 20
210.009226
 30
0.0
 10
471.388384
 20
210.009226
 30
0.0
 10
472.050494
 20
209.899926
 30
0.0
 10
472.669634
 20
209.704626
 30
0.0
 10
473.253624
 20
209.403826
 30
0.0
 10
473.792684
 20
209.009226
 30
0.0
 10
474.259484
 20
208.546326
 30
0.0
 10
474.650104
 20
208.009226
 30
0.0
 10
474.950884
 20
207.421326
 30
0.0
 10
475.062214
 20
207.077626
 30
0.0
  0
SPLINE
  5
15f
100
AcDbEntity
  8
B.Cu
 62
7
100
AcDbSpline
 70
8
 71
3
 72
8
 73
4
 74
0
 40
0
 40
0
 40
0
 40
0
 40
1
 40
1
 40
1
 40
1
 10
485.949234
 20
196.671126
 30
0.0
 10
486.017488
 20
196.656682
 30
0.0
 10
486.088010
 20
196.656682
 30
0.0
 10
486.156264
 20
196.671126
 30
0.0
  0
SPLINE
  5
160
100
AcDbEntity
  8
B.Cu
 62
7
100
AcDbSpline
 70
8
 71
3
 72
8
 73
4
 74
0
 40
0
 40
0
 40
0
 40
0
 40
1
 40
1
 40
1
 40
1
 10
486.156264
 20
196.671126
 30
0.0
 10
486.194330
 20
196.612601
 30
0.0
 10
486.244231
 20
196.562696
 30
0.0
 10
486.302754
 20
196.524626
 30
0.0
  0
LWPOLYLINE
  5
161
100
AcDbEntity
  8
B.Cu
 62
7
100
AcDbPolyline
 90
8
 70
0
 10
475.321994
 20
206.778726
 30
0.0
 10
475.382494
 20
206.749726
 30
0.0
 10
476.230154
 20
206.222326
 30
0.0
 10
476.999684
 20
205.609026
 30
0.0
 10
477.007684
 20
205.599026
 30
0.0
 10
477.378784
 20
205.243626
 30
0.0
 10
477.384784
 20
205.233626
 30
0.0
 10
485.949234
 20
196.671126
 30
0.0
  0
SPLINE
  5
162
100
AcDbEntity
  8
B.Cu
 62
7
100
AcDbSpline
 70
8
 71
3
 72
8
 73
4
 74
0
 40
0
 40
0
 40
0
 40
0
 40
1
 40
1
 40
1
 40
1
 10
520.050795
 20
196.524626
 30
0.0
 10
520.109317
 20
196.562696
 30
0.0
 10
520.159218
 20
196.612601
 30
0.0
 10
520.197285
 20
196.671126
 30
0.0
  0
SPLINE
  5
163
100
AcDbEntity
  8
B.Cu
 62
7
100
AcDbSpline
 70
8
 71
3
 72
8
 73
4
 74
0
 40
0
 40
0
 40
0
 40
0
 40
1
 40
1
 40
1
 40
1
 10
520.197285
 20
196.671126
 30
0.0
 10
520.265539
 20
196.656682
 30
0.0
 10
520.336061
 20
196.656682
 30
0.0
 10
520.404315
 20
196.671126
 30
0.0
  0
LWPOLYLINE
  5
164
100
AcDbEntity
  8
B.Cu
 62
7
100
AcDbPolyline
 90
2
 70
0
 10
486.302754
 20
196.524626
 30
0.0
 10
520.050795
 20
196.524626
 30
0.0
  0
LWPOLYLINE
  5
165
100
AcDbEntity
  8
B.Cu
 62
7
100
AcDbPolyline
 90
14
 70
0
 10
520.404315
 20
196.671126
 30
0.0
 10
585.656267
 20
261.928928
 30
0.0
 10
585.667967
 20
261.940928
 30
0.0
 10
586.025387
 20
262.274928
 30
0.0
 10
586.822267
 20
262.909728
 30
0.0
 10
587.292967
 20
263.208528
 30
0.0
 10
587.300967
 20
263.208528
 30
0.0
 10
587.302967
 20
263.208528
 30
0.0
 10
587.664287
 20
263.427228
 30
0.0
 10
588.574447
 20
263.866728
 30
0.0
 10
589.515857
 20
264.196828
 30
0.0
 10
590.498277
 20
264.425328
 30
0.0
 10
591.490467
 20
264.538628
 30
0.0
 10
591.996627
 20
264.559928
 30
0.0
  0
SPLINE
  5
166
100
AcDbEntity
  8
B.Cu
 62
7
100
AcDbSpline
 70
8
 71
3
 72
8
 73
4
 74
0
 40
0
 40
0
 40
0
 40
0
 40
1
 40
1
 40
1
 40
1
 10
497.318864
 20
257.998727
 30
0.0
 10
497.186256
 20
257.998727
 30
0.0
 10
497.059079
 20
257.946049
 30
0.0
 10
496.965311
 20
257.852281
 30
0.0
  0
SPLINE
  5
167
100
AcDbEntity
  8
B.Cu
 62
7
100
AcDbSpline
 70
8
 71
3
 72
8
 73
4
 74
0
 40
0
 40
0
 40
0
 40
0
 40
1
 40
1
 40
1
 40
1
 10
496.965311
 20
257.852281
 30
0.0
 10
496.871543
 20
257.758513
 30
0.0
 10
496.818864
 20
257.631336
 30
0.0
 10
496.818864
 20
257.498727
 30
0.0
  0
LWPOLYLINE
  5
168
100
AcDbEntity
  8
B.Cu
 62
7
100
AcDbPolyline
 90
27
 70
0
 10
489.840144
 20
268.339228
 30
0.0
 10
490.695604
 20
268.339228
 30
0.0
 10
490.705604
 20
268.339228
 30
0.0
 10
527.732945
 20
268.339228
 30
0.0
 10
527.744645
 20
268.339228
 30
0.0
 10
528.141135
 20
268.329228
 30
0.0
 10
528.951675
 20
268.202228
 30
0.0
 10
529.725115
 20
267.944428
 30
0.0
 10
530.443865
 20
267.583128
 30
0.0
 10
531.100115
 20
267.098728
 30
0.0
 10
531.678245
 20
266.528428
 30
0.0
 10
532.146995
 20
265.883828
 30
0.0
 10
532.518085
 20
265.149528
 30
0.0
 10
532.771995
 20
264.378028
 30
0.0
 10
532.896995
 20
263.579228
 30
0.0
 10
532.896995
 20
262.770628
 30
0.0
 10
532.770035
 20
261.969828
 30
0.0
 10
532.518085
 20
261.188528
 30
0.0
 10
532.150895
 20
260.469827
 30
0.0
 10
531.672385
 20
259.813527
 30
0.0
 10
531.098165
 20
259.239327
 30
0.0
 10
530.441915
 20
258.766727
 30
0.0
 10
529.725115
 20
258.405327
 30
0.0
 10
528.951675
 20
258.147527
 30
0.0
 10
528.139175
 20
258.016727
 30
0.0
 10
527.721205
 20
257.998727
 30
0.0
 10
497.318864
 20
257.998727
 30
0.0
  0
SPLINE
  5
169
100
AcDbEntity
  8
B.Cu
 62
7
100
AcDbSpline
 70
8
 71
3
 72
8
 73
4
 74
0
 40
0
 40
0
 40
0
 40
0
 40
1
 40
1
 40
1
 40
1
 10
495.969314
 20
218.103626
 30
0.0
 10
495.925976
 20
218.024142
 30
0.0
 10
495.905031
 20
217.934383
 30
0.0
 10
495.908714
 20
217.843926
 30
0.0
  0
SPLINE
  5
16a
100
AcDbEntity
  8
B.Cu
 62
7
100
AcDbSpline
 70
8
 71
3
 72
8
 73
4
 74
0
 40
0
 40
0
 40
0
 40
0
 40
1
 40
1
 40
1
 40
1
 10
495.908714
 20
217.843926
 30
0.0
 10
495.896409
 20
217.832850
 30
0.0
 10
495.884661
 20
217.821169
 30
0.0
 10
495.873514
 20
217.808926
 30
0.0
  0
LWPOLYLINE
  5
16b
100
AcDbEntity
  8
B.Cu
 62
7
100
AcDbPolyline
 90
8
 70
0
 10
496.818864
 20
257.498727
 30
0.0
 10
496.818864
 20
220.940126
 30
0.0
 10
496.818864
 20
220.918126
 30
0.0
 10
496.803264
 20
220.517726
 30
0.0
 10
496.674354
 20
219.701326
 30
0.0
 10
496.426304
 20
218.945426
 30
0.0
 10
496.055214
 20
218.220826
 30
0.0
 10
495.969314
 20
218.103626
 30
0.0
  0
SPLINE
  5
16c
100
AcDbEntity
  8
B.Cu
 62
7
100
AcDbSpline
 70
8
 71
3
 72
8
 73
4
 74
0
 40
0
 40
0
 40
0
 40
0
 40
1
 40
1
 40
1
 40
1
 10
487.426244
 20
217.808926
 30
0.0
 10
487.415130
 20
217.821166
 30
0.0
 10
487.403415
 20
217.832847
 30
0.0
 10
487.391144
 20
217.843926
 30
0.0
  0
SPLINE
  5
16d
100
AcDbEntity
  8
B.Cu
 62
7
100
AcDbSpline
 70
8
 71
3
 72
8
 73
4
 74
0
 40
0
 40
0
 40
0
 40
0
 40
1
 40
1
 40
1
 40
1
 10
487.391144
 20
217.843926
 30
0.0
 10
487.394828
 20
217.934383
 30
0.0
 10
487.373883
 20
218.024142
 30
0.0
 10
487.330544
 20
218.103626
 30
0.0
  0
LWPOLYLINE
  5
16e
100
AcDbEntity
  8
B.Cu
 62
7
100
AcDbPolyline
 90
4
 70
0
 10
495.873514
 20
217.808926
 30
0.0
 10
495.873514
 20
212.908526
 30
0.0
 10
487.426244
 20
212.908526
 30
0.0
 10
487.426244
 20
217.808926
 30
0.0
  0
SPLINE
  5
16f
100
AcDbEntity
  8
B.Cu
 62
7
100
AcDbSpline
 70
8
 71
3
 72
8
 73
4
 74
0
 40
0
 40
0
 40
0
 40
0
 40
1
 40
1
 40
1
 40
1
 10
486.481004
 20
259.466927
 30
0.0
 10
486.476747
 20
259.587732
 30
0.0
 10
486.428870
 20
259.702905
 30
0.0
 10
486.346234
 20
259.791127
 30
0.0
  0
LWPOLYLINE
  5
170
100
AcDbEntity
  8
B.Cu
 62
7
100
AcDbPolyline
 90
8
 70
0
 10
487.330544
 20
218.103626
 30
0.0
 10
487.244644
 20
218.220826
 30
0.0
 10
486.873554
 20
218.945426
 30
0.0
 10
486.625504
 20
219.701326
 30
0.0
 10
486.496604
 20
220.517726
 30
0.0
 10
486.479004
 20
220.916126
 30
0.0
 10
486.481004
 20
220.916126
 30
0.0
 10
486.481004
 20
259.466927
 30
0.0
  0
LWPOLYLINE
  5
171
100
AcDbEntity
  8
B.Cu
 62
7
100
AcDbPolyline
 90
19
 70
0
 10
486.346234
 20
259.791127
 30
0.0
 10
486.344234
 20
259.801127
 30
0.0
 10
486.340234
 20
259.811127
 30
0.0
 10
486.334234
 20
259.825127
 30
0.0
 10
486.320534
 20
259.839127
 30
0.0
 10
485.840074
 20
260.503127
 30
0.0
 10
485.476784
 20
261.210228
 30
0.0
 10
485.226784
 20
261.981628
 30
0.0
 10
485.099834
 20
262.780528
 30
0.0
 10
485.099834
 20
263.612528
 30
0.0
 10
485.226784
 20
264.407428
 30
0.0
 10
485.478744
 20
265.175028
 30
0.0
 10
485.840074
 20
265.882028
 30
0.0
 10
486.322494
 20
266.548028
 30
0.0
 10
486.894754
 20
267.120328
 30
0.0
 10
487.549054
 20
267.602728
 30
0.0
 10
488.269754
 20
267.966028
 30
0.0
 10
489.045144
 20
268.223828
 30
0.0
 10
489.840144
 20
268.339228
 30
0.0
  0
SPLINE
  5
172
100
AcDbEntity
  8
B.Cu
 62
7
100
AcDbSpline
 70
8
 71
3
 72
8
 73
4
 74
0
 40
0
 40
0
 40
0
 40
0
 40
1
 40
1
 40
1
 40
1
 10
455.652653
 20
315.653929
 30
0.0
 10
455.531095
 20
315.560525
 30
0.0
 10
455.459103
 20
315.416519
 30
0.0
 10
455.457333
 20
315.263229
 30
0.0
  0
LWPOLYLINE
  5
173
100
AcDbEntity
  8
B.Cu
 62
7
100
AcDbPolyline
 90
15
 70
0
 10
453.783503
 20
320.520929
 30
0.0
 10
454.303043
 20
320.520929
 30
0.0
 10
454.826473
 20
320.419329
 30
0.0
 10
455.314753
 20
320.220129
 30
0.0
 10
455.760073
 20
319.921229
 30
0.0
 10
456.138973
 20
319.540429
 30
0.0
 10
456.433903
 20
319.100929
 30
0.0
 10
456.638973
 20
318.606829
 30
0.0
 10
456.740543
 20
318.091229
 30
0.0
 10
456.740543
 20
317.558029
 30
0.0
 10
456.637023
 20
317.040429
 30
0.0
 10
456.433903
 20
316.548229
 30
0.0
 10
456.138973
 20
316.110729
 30
0.0
 10
455.762023
 20
315.727929
 30
0.0
 10
455.652653
 20
315.653929
 30
0.0
  0
SPLINE
  5
174
100
AcDbEntity
  8
B.Cu
 62
7
100
AcDbSpline
 70
8
 71
3
 72
8
 73
4
 74
0
 40
0
 40
0
 40
0
 40
0
 40
1
 40
1
 40
1
 40
1
 10
453.387103
 20
300.233929
 30
0.0
 10
453.293336
 20
300.140179
 30
0.0
 10
453.240646
 20
300.013023
 30
0.0
 10
453.240623
 20
299.880429
 30
0.0
  0
LWPOLYLINE
  5
175
100
AcDbEntity
  8
B.Cu
 62
7
100
AcDbPolyline
 90
9
 70
0
 10
455.457333
 20
315.263229
 30
0.0
 10
455.433933
 20
315.240229
 30
0.0
 10
455.433933
 20
302.892629
 30
0.0
 10
455.422233
 20
302.697229
 30
0.0
 10
455.322633
 20
302.334029
 30
0.0
 10
455.131223
 20
302.001929
 30
0.0
 10
455.012083
 20
301.859329
 30
0.0
 10
455.000383
 20
301.845329
 30
0.0
 10
453.387103
 20
300.233929
 30
0.0
  0
SPLINE
  5
176
100
AcDbEntity
  8
B.Cu
 62
7
100
AcDbSpline
 70
8
 71
3
 72
8
 73
4
 74
0
 40
0
 40
0
 40
0
 40
0
 40
1
 40
1
 40
1
 40
1
 10
453.240623
 20
268.521128
 30
0.0
 10
453.288027
 20
268.429974
 30
0.0
 10
453.362361
 20
268.355636
 30
0.0
 10
453.453513
 20
268.308228
 30
0.0
  0
SPLINE
  5
177
100
AcDbEntity
  8
B.Cu
 62
7
100
AcDbSpline
 70
8
 71
3
 72
8
 73
4
 74
0
 40
0
 40
0
 40
0
 40
0
 40
1
 40
1
 40
1
 40
1
 10
453.453513
 20
268.308228
 30
0.0
 10
453.470775
 20
268.208737
 30
0.0
 10
453.517756
 20
268.116803
 30
0.0
 10
453.588273
 20
268.044528
 30
0.0
  0
LWPOLYLINE
  5
178
100
AcDbEntity
  8
B.Cu
 62
7
100
AcDbPolyline
 90
2
 70
0
 10
453.240623
 20
299.880429
 30
0.0
 10
453.240623
 20
268.521128
 30
0.0
  0
SPLINE
  5
179
100
AcDbEntity
  8
B.Cu
 62
7
100
AcDbSpline
 70
8
 71
3
 72
8
 73
4
 74
0
 40
0
 40
0
 40
0
 40
0
 40
1
 40
1
 40
1
 40
1
 10
455.755933
 20
259.789627
 30
0.0
 10
455.673301
 20
259.701403
 30
0.0
 10
455.625428
 20
259.586231
 30
0.0
 10
455.621173
 20
259.465427
 30
0.0
  0
LWPOLYLINE
  5
17a
100
AcDbEntity
  8
B.Cu
 62
7
100
AcDbPolyline
 90
18
 70
0
 10
453.588273
 20
268.044528
 30
0.0
 10
453.828513
 20
267.966528
 30
0.0
 10
454.553123
 20
267.601228
 30
0.0
 10
455.207413
 20
267.118828
 30
0.0
 10
455.779683
 20
266.546528
 30
0.0
 10
456.258193
 20
265.890328
 30
0.0
 10
456.623433
 20
265.173528
 30
0.0
 10
456.875383
 20
264.405928
 30
0.0
 10
457.002333
 20
263.611028
 30
0.0
 10
457.002333
 20
262.779028
 30
0.0
 10
456.875383
 20
261.980128
 30
0.0
 10
456.625383
 20
261.208728
 30
0.0
 10
456.258193
 20
260.491927
 30
0.0
 10
455.781633
 20
259.837627
 30
0.0
 10
455.767933
 20
259.823627
 30
0.0
 10
455.761933
 20
259.809627
 30
0.0
 10
455.757933
 20
259.799627
 30
0.0
 10
455.755933
 20
259.789627
 30
0.0
  0
SPLINE
  5
17b
100
AcDbEntity
  8
B.Cu
 62
7
100
AcDbSpline
 70
8
 71
3
 72
8
 73
4
 74
0
 40
0
 40
0
 40
0
 40
0
 40
1
 40
1
 40
1
 40
1
 10
455.636773
 20
228.439627
 30
0.0
 10
455.637920
 20
228.295406
 30
0.0
 10
455.701287
 20
228.158706
 30
0.0
 10
455.810603
 20
228.064627
 30
0.0
  0
LWPOLYLINE
  5
17c
100
AcDbEntity
  8
B.Cu
 62
7
100
AcDbPolyline
 90
3
 70
0
 10
455.621173
 20
259.465427
 30
0.0
 10
455.621173
 20
228.455627
 30
0.0
 10
455.636773
 20
228.439627
 30
0.0
  0
SPLINE
  5
17d
100
AcDbEntity
  8
B.Cu
 62
7
100
AcDbSpline
 70
8
 71
3
 72
8
 73
4
 74
0
 40
0
 40
0
 40
0
 40
0
 40
1
 40
1
 40
1
 40
1
 10
415.368812
 20
173.173525
 30
0.0
 10
415.275045
 20
173.079775
 30
0.0
 10
415.222355
 20
172.952620
 30
0.0
 10
415.222332
 20
172.820025
 30
0.0
  0
LWPOLYLINE
  5
17e
100
AcDbEntity
  8
B.Cu
 62
7
100
AcDbPolyline
 90
20
 70
0
 10
455.810603
 20
228.064627
 30
0.0
 10
456.408253
 20
227.588027
 30
0.0
 10
457.125053
 20
226.871227
 30
0.0
 10
457.748103
 20
226.095826
 30
0.0
 10
458.285213
 20
225.240426
 30
0.0
 10
458.716853
 20
224.338026
 30
0.0
 10
459.050833
 20
223.384926
 30
0.0
 10
459.275443
 20
222.412226
 30
0.0
 10
459.386773
 20
221.406426
 30
0.0
 10
459.386773
 20
220.424026
 30
0.0
 10
459.275443
 20
219.429826
 30
0.0
 10
459.050833
 20
218.429826
 30
0.0
 10
458.714903
 20
217.474726
 30
0.0
 10
458.279353
 20
216.576326
 30
0.0
 10
457.750053
 20
215.732626
 30
0.0
 10
457.136773
 20
214.961126
 30
0.0
 10
457.128773
 20
214.951126
 30
0.0
 10
456.781113
 20
214.585826
 30
0.0
 10
456.773113
 20
214.575826
 30
0.0
 10
415.368812
 20
173.173525
 30
0.0
  0
SPLINE
  5
17f
100
AcDbEntity
  8
B.Cu
 62
7
100
AcDbSpline
 70
8
 71
3
 72
8
 73
4
 74
0
 40
0
 40
0
 40
0
 40
0
 40
1
 40
1
 40
1
 40
1
 10
415.222332
 20
145.739924
 30
0.0
 10
415.222332
 20
145.607316
 30
0.0
 10
415.275010
 20
145.480139
 30
0.0
 10
415.368779
 20
145.386371
 30
0.0
  0
SPLINE
  5
180
100
AcDbEntity
  8
B.Cu
 62
7
100
AcDbSpline
 70
8
 71
3
 72
8
 73
4
 74
0
 40
0
 40
0
 40
0
 40
0
 40
1
 40
1
 40
1
 40
1
 10
415.368779
 20
145.386371
 30
0.0
 10
415.462547
 20
145.292603
 30
0.0
 10
415.589724
 20
145.239924
 30
0.0
 10
415.722332
 20
145.239924
 30
0.0
  0
LWPOLYLINE
  5
181
100
AcDbEntity
  8
B.Cu
 62
7
100
AcDbPolyline
 90
2
 70
0
 10
415.222332
 20
172.820025
 30
0.0
 10
415.222332
 20
145.739924
 30
0.0
  0
SPLINE
  5
182
100
AcDbEntity
  8
B.Cu
 62
7
100
AcDbSpline
 70
8
 71
3
 72
8
 73
4
 74
0
 40
0
 40
0
 40
0
 40
0
 40
1
 40
1
 40
1
 40
1
 10
578.509447
 20
145.239924
 30
0.0
 10
578.526104
 20
145.254534
 30
0.0
 10
578.541772
 20
145.270236
 30
0.0
 10
578.556347
 20
145.286924
 30
0.0
  0
SPLINE
  5
183
100
AcDbEntity
  8
B.Cu
 62
7
100
AcDbSpline
 70
8
 71
3
 72
8
 73
4
 74
0
 40
0
 40
0
 40
0
 40
0
 40
1
 40
1
 40
1
 40
1
 10
578.556347
 20
145.286924
 30
0.0
 10
578.574415
 20
145.274014
 30
0.0
 10
578.593324
 20
145.262321
 30
0.0
 10
578.612947
 20
145.251924
 30
0.0
  0
LWPOLYLINE
  5
184
100
AcDbEntity
  8
B.Cu
 62
7
100
AcDbPolyline
 90
3
 70
0
 10
415.722332
 20
145.239924
 30
0.0
 10
499.396164
 20
145.239924
 30
0.0
 10
578.509447
 20
145.239924
 30
0.0
  0
SPLINE
  5
185
100
AcDbEntity
  8
B.Cu
 62
7
100
AcDbSpline
 70
8
 71
3
 72
8
 73
4
 74
0
 40
0
 40
0
 40
0
 40
0
 40
1
 40
1
 40
1
 40
1
 10
598.185747
 20
127.454224
 30
0.0
 10
598.091996
 20
127.548003
 30
0.0
 10
597.964832
 20
127.600701
 30
0.0
 10
597.832227
 20
127.600724
 30
0.0
  0
LWPOLYLINE
  5
186
100
AcDbEntity
  8
B.Cu
 62
7
100
AcDbPolyline
 90
57
 70
0
 10
578.612947
 20
145.251924
 30
0.0
 10
579.152017
 20
145.365224
 30
0.0
 10
580.146157
 20
145.480424
 30
0.0
 10
580.150157
 20
145.480424
 30
0.0
 10
580.654067
 20
145.502424
 30
0.0
 10
580.656067
 20
145.502424
 30
0.0
 10
601.745917
 20
145.502424
 30
0.0
 10
601.747917
 20
145.502424
 30
0.0
 10
602.253777
 20
145.480424
 30
0.0
 10
602.257777
 20
145.480424
 30
0.0
 10
603.255827
 20
145.365224
 30
0.0
 10
604.220667
 20
145.150324
 30
0.0
 10
605.175747
 20
144.816324
 30
0.0
 10
606.074187
 20
144.384724
 30
0.0
 10
606.468717
 20
144.138624
 30
0.0
 10
606.470717
 20
144.138624
 30
0.0
 10
606.472717
 20
144.138624
 30
0.0
 10
606.925837
 20
143.855424
 30
0.0
 10
607.701227
 20
143.228424
 30
0.0
 10
607.711227
 20
143.218424
 30
0.0
 10
608.074507
 20
142.878624
 30
0.0
 10
608.086207
 20
142.866624
 30
0.0
 10
651.224879
 20
99.731823
 30
0.0
 10
651.236579
 20
99.717823
 30
0.0
 10
651.238579
 20
99.717823
 30
0.0
 10
651.562799
 20
99.370223
 30
0.0
 10
652.219049
 20
98.546023
 30
0.0
 10
652.223049
 20
98.536023
 30
0.0
 10
652.744529
 20
97.709823
 30
0.0
 10
653.174219
 20
96.811423
 30
0.0
 10
653.508199
 20
95.862223
 30
0.0
 10
653.730859
 20
94.887623
 30
0.0
 10
653.844139
 20
93.879823
 30
0.0
 10
653.844139
 20
92.895423
 30
0.0
 10
653.732809
 20
91.879823
 30
0.0
 10
653.508199
 20
90.903223
 30
0.0
 10
653.172269
 20
89.948123
 30
0.0
 10
652.736719
 20
89.049723
 30
0.0
 10
652.213279
 20
88.217623
 30
0.0
 10
651.578519
 20
87.418823
 30
0.0
 10
650.873439
 20
86.713722
 30
0.0
 10
650.088279
 20
86.086822
 30
0.0
 10
649.242579
 20
85.557522
 30
0.0
 10
648.336329
 20
85.121922
 30
0.0
 10
647.389059
 20
84.789922
 30
0.0
 10
646.406639
 20
84.561422
 30
0.0
 10
645.416409
 20
84.448122
 30
0.0
 10
644.402739
 20
84.448122
 30
0.0
 10
643.412498
 20
84.561422
 30
0.0
 10
642.424218
 20
84.791922
 30
0.0
 10
641.486718
 20
85.120022
 30
0.0
 10
640.584378
 20
85.553622
 30
0.0
 10
639.728908
 20
86.086822
 30
0.0
 10
638.939838
 20
86.717622
 30
0.0
 10
638.582418
 20
87.061423
 30
0.0
 10
638.574418
 20
87.071423
 30
0.0
 10
598.185747
 20
127.454224
 30
0.0
  0
SPLINE
  5
187
100
AcDbEntity
  8
B.Cu
 62
7
100
AcDbSpline
 70
8
 71
3
 72
8
 73
4
 74
0
 40
0
 40
0
 40
0
 40
0
 40
1
 40
1
 40
1
 40
1
 10
582.543167
 20
127.600724
 30
0.0
 10
582.525030
 20
127.584966
 30
0.0
 10
582.508053
 20
127.567922
 30
0.0
 10
582.492367
 20
127.549724
 30
0.0
  0
SPLINE
  5
188
100
AcDbEntity
  8
B.Cu
 62
7
100
AcDbSpline
 70
8
 71
3
 72
8
 73
4
 74
0
 40
0
 40
0
 40
0
 40
0
 40
1
 40
1
 40
1
 40
1
 10
582.492367
 20
127.549724
 30
0.0
 10
582.473069
 20
127.563477
 30
0.0
 10
582.452818
 20
127.575842
 30
0.0
 10
582.431767
 20
127.586724
 30
0.0
  0
LWPOLYLINE
  5
189
100
AcDbEntity
  8
B.Cu
 62
7
100
AcDbPolyline
 90
2
 70
0
 10
597.832227
 20
127.600724
 30
0.0
 10
582.543167
 20
127.600724
 30
0.0
  0
SPLINE
  5
18a
100
AcDbEntity
  8
B.Cu
 62
7
100
AcDbSpline
 70
8
 71
3
 72
8
 73
4
 74
0
 40
0
 40
0
 40
0
 40
0
 40
1
 40
1
 40
1
 40
1
 10
410.187582
 20
127.338424
 30
0.0
 10
410.129073
 20
127.300381
 30
0.0
 10
410.079176
 20
127.250512
 30
0.0
 10
410.041102
 20
127.192024
 30
0.0
  0
SPLINE
  5
18b
100
AcDbEntity
  8
B.Cu
 62
7
100
AcDbSpline
 70
8
 71
3
 72
8
 73
4
 74
0
 40
0
 40
0
 40
0
 40
0
 40
1
 40
1
 40
1
 40
1
 10
410.041102
 20
127.192024
 30
0.0
 10
409.972848
 20
127.206467
 30
0.0
 10
409.902326
 20
127.206467
 30
0.0
 10
409.834072
 20
127.192024
 30
0.0
  0
LWPOLYLINE
  5
18c
100
AcDbEntity
  8
B.Cu
 62
7
100
AcDbPolyline
 90
7
 70
0
 10
582.431767
 20
127.586724
 30
0.0
 10
581.879037
 20
127.461724
 30
0.0
 10
580.898567
 20
127.350424
 30
0.0
 10
580.396617
 20
127.338424
 30
0.0
 10
580.394617
 20
127.338424
 30
0.0
 10
499.396574
 20
127.338424
 30
0.0
 10
410.187582
 20
127.338424
 30
0.0
  0
SPLINE
  5
18d
100
AcDbEntity
  8
B.Cu
 62
7
100
AcDbSpline
 70
8
 71
3
 72
8
 73
4
 74
0
 40
0
 40
0
 40
0
 40
0
 40
1
 40
1
 40
1
 40
1
 10
193.737886
 20
121.781823
 30
0.0
 10
193.669631
 20
121.796267
 30
0.0
 10
193.599110
 20
121.796267
 30
0.0
 10
193.530856
 20
121.781823
 30
0.0
  0
SPLINE
  5
18e
100
AcDbEntity
  8
B.Cu
 62
7
100
AcDbSpline
 70
8
 71
3
 72
8
 73
4
 74
0
 40
0
 40
0
 40
0
 40
0
 40
1
 40
1
 40
1
 40
1
 10
193.530856
 20
121.781823
 30
0.0
 10
193.492792
 20
121.840348
 30
0.0
 10
193.442894
 20
121.890252
 30
0.0
 10
193.384376
 20
121.928324
 30
0.0
  0
LWPOLYLINE
  5
18f
100
AcDbEntity
  8
B.Cu
 62
7
100
AcDbPolyline
 90
28
 70
0
 10
409.834072
 20
127.192024
 30
0.0
 10
382.902431
 20
100.252523
 30
0.0
 10
382.890731
 20
100.240523
 30
0.0
 10
382.533301
 20
99.906523
 30
0.0
 10
381.742291
 20
99.275623
 30
0.0
 10
381.316511
 20
99.012023
 30
0.0
 10
380.902451
 20
98.750223
 30
0.0
 10
379.984481
 20
98.308823
 30
0.0
 10
379.043071
 20
97.978823
 30
0.0
 10
378.060651
 20
97.750223
 30
0.0
 10
377.068461
 20
97.637023
 30
0.0
 10
376.562601
 20
97.627023
 30
0.0
 10
376.552601
 20
97.627023
 30
0.0
 10
221.611186
 20
97.627023
 30
0.0
 10
221.601186
 20
97.627023
 30
0.0
 10
221.097286
 20
97.637023
 30
0.0
 10
220.105096
 20
97.750223
 30
0.0
 10
219.614866
 20
97.863523
 30
0.0
 10
219.124626
 20
97.978823
 30
0.0
 10
218.409786
 20
98.228823
 30
0.0
 10
218.407786
 20
98.228823
 30
0.0
 10
218.179276
 20
98.308823
 30
0.0
 10
217.269116
 20
98.748323
 30
0.0
 10
216.421466
 20
99.275623
 30
0.0
 10
215.630446
 20
99.906523
 30
0.0
 10
215.273026
 20
100.240523
 30
0.0
 10
215.261326
 20
100.252523
 30
0.0
 10
193.737886
 20
121.781823
 30
0.0
  0
SPLINE
  5
190
100
AcDbEntity
  8
B.Cu
 62
7
100
AcDbSpline
 70
8
 71
3
 72
8
 73
4
 74
0
 40
0
 40
0
 40
0
 40
0
 40
1
 40
1
 40
1
 40
1
 10
225.162246
 20
115.672823
 30
0.0
 10
225.230501
 20
115.658380
 30
0.0
 10
225.301022
 20
115.658380
 30
0.0
 10
225.369276
 20
115.672823
 30
0.0
  0
SPLINE
  5
191
100
AcDbEntity
  8
B.Cu
 62
7
100
AcDbSpline
 70
8
 71
3
 72
8
 73
4
 74
0
 40
0
 40
0
 40
0
 40
0
 40
1
 40
1
 40
1
 40
1
 10
225.369276
 20
115.672823
 30
0.0
 10
225.407343
 20
115.614298
 30
0.0
 10
225.457244
 20
115.564394
 30
0.0
 10
225.515766
 20
115.526323
 30
0.0
  0
LWPOLYLINE
  5
192
100
AcDbEntity
  8
B.Cu
 62
7
100
AcDbPolyline
 90
50
 70
0
 10
193.384376
 20
121.928324
 30
0.0
 10
96.876553
 20
121.928324
 30
0.0
 10
96.874553
 20
121.928324
 30
0.0
 10
96.366743
 20
121.950324
 30
0.0
 10
95.380413
 20
122.053824
 30
0.0
 10
94.415573
 20
122.276524
 30
0.0
 10
93.448773
 20
122.614424
 30
0.0
 10
92.558153
 20
123.042124
 30
0.0
 10
91.696823
 20
123.579224
 30
0.0
 10
90.911663
 20
124.206224
 30
0.0
 10
90.206583
 20
124.911224
 30
0.0
 10
89.579633
 20
125.698424
 30
0.0
 10
89.050333
 20
126.542124
 30
0.0
 10
88.608933
 20
127.456224
 30
0.0
 10
88.278853
 20
128.399524
 30
0.0
 10
88.056193
 20
129.380024
 30
0.0
 10
87.942913
 20
130.387824
 30
0.0
 10
87.942913
 20
131.372224
 30
0.0
 10
88.056193
 20
132.380024
 30
0.0
 10
88.278853
 20
133.360524
 30
0.0
 10
88.608933
 20
134.303824
 30
0.0
 10
89.050333
 20
135.217924
 30
0.0
 10
89.579633
 20
136.061624
 30
0.0
 10
90.206583
 20
136.848724
 30
0.0
 10
90.911663
 20
137.553824
 30
0.0
 10
91.696823
 20
138.180824
 30
0.0
 10
92.558153
 20
138.717924
 30
0.0
 10
93.448773
 20
139.145624
 30
0.0
 10
94.415573
 20
139.483524
 30
0.0
 10
95.380413
 20
139.706224
 30
0.0
 10
96.366743
 20
139.809724
 30
0.0
 10
96.874553
 20
139.831724
 30
0.0
 10
96.876553
 20
139.831724
 30
0.0
 10
197.296486
 20
139.831724
 30
0.0
 10
197.298486
 20
139.831724
 30
0.0
 10
197.808256
 20
139.809724
 30
0.0
 10
198.794576
 20
139.706224
 30
0.0
 10
199.759426
 20
139.483524
 30
0.0
 10
200.724266
 20
139.145624
 30
0.0
 10
201.618796
 20
138.715924
 30
0.0
 10
201.993796
 20
138.477724
 30
0.0
 10
201.995796
 20
138.477724
 30
0.0
 10
201.999796
 20
138.477724
 30
0.0
 10
202.482216
 20
138.180924
 30
0.0
 10
203.277146
 20
137.546124
 30
0.0
 10
203.281146
 20
137.546124
 30
0.0
 10
203.622946
 20
137.216024
 30
0.0
 10
203.624946
 20
137.216024
 30
0.0
 10
203.632946
 20
137.206024
 30
0.0
 10
225.162246
 20
115.672823
 30
0.0
  0
SPLINE
  5
193
100
AcDbEntity
  8
B.Cu
 62
7
100
AcDbSpline
 70
8
 71
3
 72
8
 73
4
 74
0
 40
0
 40
0
 40
0
 40
0
 40
1
 40
1
 40
1
 40
1
 10
372.648581
 20
115.526323
 30
0.0
 10
372.781182
 20
115.526349
 30
0.0
 10
372.908342
 20
115.579046
 30
0.0
 10
373.002091
 20
115.672823
 30
0.0
  0
LWPOLYLINE
  5
194
100
AcDbEntity
  8
B.Cu
 62
7
100
AcDbPolyline
 90
2
 70
0
 10
225.515766
 20
115.526323
 30
0.0
 10
372.648581
 20
115.526323
 30
0.0
  0
SPLINE
  5
195
100
AcDbEntity
  8
B.Cu
 62
7
100
AcDbSpline
 70
8
 71
3
 72
8
 73
4
 74
0
 40
0
 40
0
 40
0
 40
0
 40
1
 40
1
 40
1
 40
1
 10
397.177881
 20
139.852524
 30
0.0
 10
397.271649
 20
139.946274
 30
0.0
 10
397.324338
 20
140.073429
 30
0.0
 10
397.324361
 20
140.206024
 30
0.0
  0
LWPOLYLINE
  5
196
100
AcDbEntity
  8
B.Cu
 62
7
100
AcDbPolyline
 90
2
 70
0
 10
373.002091
 20
115.672823
 30
0.0
 10
397.177881
 20
139.852524
 30
0.0
  0
SPLINE
  5
197
100
AcDbEntity
  8
B.Cu
 62
7
100
AcDbSpline
 70
8
 71
3
 72
8
 73
4
 74
0
 40
0
 40
0
 40
0
 40
0
 40
1
 40
1
 40
1
 40
1
 10
445.094233
 20
228.068427
 30
0.0
 10
445.203549
 20
228.162506
 30
0.0
 10
445.266916
 20
228.299206
 30
0.0
 10
445.268063
 20
228.443427
 30
0.0
  0
LWPOLYLINE
  5
198
100
AcDbEntity
  8
B.Cu
 62
7
100
AcDbPolyline
 90
20
 70
0
 10
397.324361
 20
140.206024
 30
0.0
 10
397.324361
 20
176.721625
 30
0.0
 10
397.324361
 20
176.735625
 30
0.0
 10
397.339961
 20
177.241525
 30
0.0
 10
397.339961
 20
177.251525
 30
0.0
 10
397.453241
 20
178.237925
 30
0.0
 10
397.675891
 20
179.216425
 30
0.0
 10
398.005971
 20
180.161725
 30
0.0
 10
398.439561
 20
181.060125
 30
0.0
 10
398.929801
 20
181.845325
 30
0.0
 10
398.933801
 20
181.855325
 30
0.0
 10
398.980701
 20
181.925325
 30
0.0
 10
399.607651
 20
182.712425
 30
0.0
 10
399.945541
 20
183.065925
 30
0.0
 10
399.953541
 20
183.075925
 30
0.0
 10
444.113693
 20
227.238027
 30
0.0
 10
444.125393
 20
227.250027
 30
0.0
 10
444.494533
 20
227.593827
 30
0.0
 10
444.498533
 20
227.593827
 30
0.0
 10
445.094233
 20
228.068427
 30
0.0
  0
SPLINE
  5
199
100
AcDbEntity
  8
B.Cu
 62
7
100
AcDbSpline
 70
8
 71
3
 72
8
 73
4
 74
0
 40
0
 40
0
 40
0
 40
0
 40
1
 40
1
 40
1
 40
1
 10
450.113933
 20
268.043428
 30
0.0
 10
450.185506
 20
268.115961
 30
0.0
 10
450.233209
 20
268.208631
 30
0.0
 10
450.250653
 20
268.309028
 30
0.0
  0
SPLINE
  5
19a
100
AcDbEntity
  8
B.Cu
 62
7
100
AcDbSpline
 70
8
 71
3
 72
8
 73
4
 74
0
 40
0
 40
0
 40
0
 40
0
 40
1
 40
1
 40
1
 40
1
 10
450.250653
 20
268.309028
 30
0.0
 10
450.340801
 20
268.356255
 30
0.0
 10
450.414392
 20
268.429866
 30
0.0
 10
450.461593
 20
268.520028
 30
0.0
  0
LWPOLYLINE
  5
19b
100
AcDbEntity
  8
B.Cu
 62
7
100
AcDbPolyline
 90
17
 70
0
 10
445.268063
 20
228.443427
 30
0.0
 10
445.283663
 20
228.459427
 30
0.0
 10
445.283663
 20
261.770028
 30
0.0
 10
445.283663
 20
261.789028
 30
0.0
 10
445.299263
 20
262.189428
 30
0.0
 10
445.428173
 20
263.005828
 30
0.0
 10
445.674263
 20
263.757728
 30
0.0
 10
446.045353
 20
264.494128
 30
0.0
 10
446.523873
 20
265.154228
 30
0.0
 10
446.797313
 20
265.445228
 30
0.0
 10
446.807313
 20
265.455228
 30
0.0
 10
448.180363
 20
266.830228
 30
0.0
 10
448.195963
 20
266.846228
 30
0.0
 10
448.488933
 20
267.113828
 30
0.0
 10
449.149093
 20
267.600128
 30
0.0
 10
449.873703
 20
267.965428
 30
0.0
 10
450.113933
 20
268.043428
 30
0.0
  0
SPLINE
  5
19c
100
AcDbEntity
  8
B.Cu
 62
7
100
AcDbSpline
 70
8
 71
3
 72
8
 73
4
 74
0
 40
0
 40
0
 40
0
 40
0
 40
1
 40
1
 40
1
 40
1
 10
452.506633
 20
303.291129
 30
0.0
 10
452.600404
 20
303.384877
 30
0.0
 10
452.653097
 20
303.512033
 30
0.0
 10
452.653123
 20
303.644629
 30
0.0
  0
LWPOLYLINE
  5
19d
100
AcDbEntity
  8
B.Cu
 62
7
100
AcDbPolyline
 90
11
 70
0
 10
450.461593
 20
268.520028
 30
0.0
 10
450.461593
 20
300.662529
 30
0.0
 10
450.461593
 20
300.672529
 30
0.0
 10
450.473293
 20
300.838529
 30
0.0
 10
450.570993
 20
301.197929
 30
0.0
 10
450.611993
 20
301.267929
 30
0.0
 10
450.617993
 20
301.277929
 30
0.0
 10
450.760573
 20
301.529929
 30
0.0
 10
450.869943
 20
301.651029
 30
0.0
 10
450.885543
 20
301.668029
 30
0.0
 10
452.506633
 20
303.291129
 30
0.0
  0
SPLINE
  5
19e
100
AcDbEntity
  8
B.Cu
 62
7
100
AcDbSpline
 70
8
 71
3
 72
8
 73
4
 74
0
 40
0
 40
0
 40
0
 40
0
 40
1
 40
1
 40
1
 40
1
 10
452.629723
 20
315.267229
 30
0.0
 10
452.627956
 20
315.420517
 30
0.0
 10
452.555967
 20
315.564523
 30
0.0
 10
452.434413
 20
315.657929
 30
0.0
  0
LWPOLYLINE
  5
19f
100
AcDbEntity
  8
B.Cu
 62
7
100
AcDbPolyline
 90
3
 70
0
 10
452.653123
 20
303.644629
 30
0.0
 10
452.653123
 20
315.244229
 30
0.0
 10
452.629723
 20
315.267229
 30
0.0
  0
SPLINE
  5
1a0
100
AcDbEntity
  8
B.Cu
 62
7
100
AcDbSpline
 70
8
 71
3
 72
8
 73
4
 74
0
 40
0
 40
0
 40
0
 40
0
 40
1
 40
1
 40
1
 40
1
 10
451.776203
 20
316.370729
 30
0.0
 10
451.683188
 20
316.494264
 30
0.0
 10
451.538246
 20
316.567809
 30
0.0
 10
451.383623
 20
316.569929
 30
0.0
  0
LWPOLYLINE
  5
1a1
100
AcDbEntity
  8
B.Cu
 62
7
100
AcDbPolyline
 90
4
 70
0
 10
452.434413
 20
315.657929
 30
0.0
 10
452.319173
 20
315.735929
 30
0.0
 10
451.950033
 20
316.110929
 30
0.0
 10
451.776203
 20
316.370729
 30
0.0
  0
SPLINE
  5
1a2
100
AcDbEntity
  8
B.Cu
 62
7
100
AcDbSpline
 70
8
 71
3
 72
8
 73
4
 74
0
 40
0
 40
0
 40
0
 40
0
 40
1
 40
1
 40
1
 40
1
 10
406.043812
 20
316.592929
 30
0.0
 10
405.911203
 20
316.592929
 30
0.0
 10
405.784026
 20
316.540251
 30
0.0
 10
405.690258
 20
316.446482
 30
0.0
  0
SPLINE
  5
1a3
100
AcDbEntity
  8
B.Cu
 62
7
100
AcDbSpline
 70
8
 71
3
 72
8
 73
4
 74
0
 40
0
 40
0
 40
0
 40
0
 40
1
 40
1
 40
1
 40
1
 10
405.690258
 20
316.446482
 30
0.0
 10
405.596490
 20
316.352714
 30
0.0
 10
405.543812
 20
316.225537
 30
0.0
 10
405.543812
 20
316.092929
 30
0.0
  0
LWPOLYLINE
  5
1a4
100
AcDbEntity
  8
B.Cu
 62
7
100
AcDbPolyline
 90
3
 70
0
 10
451.383623
 20
316.569929
 30
0.0
 10
451.360223
 20
316.592929
 30
0.0
 10
406.043812
 20
316.592929
 30
0.0
  0
SPLINE
  5
1a5
100
AcDbEntity
  8
B.Cu
 62
7
100
AcDbSpline
 70
8
 71
3
 72
8
 73
4
 74
0
 40
0
 40
0
 40
0
 40
0
 40
1
 40
1
 40
1
 40
1
 10
402.668782
 20
315.453929
 30
0.0
 10
402.610273
 20
315.415887
 30
0.0
 10
402.560376
 20
315.366017
 30
0.0
 10
402.522302
 20
315.307529
 30
0.0
  0
SPLINE
  5
1a6
100
AcDbEntity
  8
B.Cu
 62
7
100
AcDbSpline
 70
8
 71
3
 72
8
 73
4
 74
0
 40
0
 40
0
 40
0
 40
0
 40
1
 40
1
 40
1
 40
1
 10
402.522302
 20
315.307529
 30
0.0
 10
402.454044
 20
315.321974
 30
0.0
 10
402.383519
 20
315.321974
 30
0.0
 10
402.315262
 20
315.307529
 30
0.0
  0
LWPOLYLINE
  5
1a7
100
AcDbEntity
  8
B.Cu
 62
7
100
AcDbPolyline
 90
7
 70
0
 10
405.543812
 20
316.092929
 30
0.0
 10
405.543812
 20
315.952329
 30
0.0
 10
405.500812
 20
315.735529
 30
0.0
 10
405.405112
 20
315.592929
 30
0.0
 10
405.264482
 20
315.494929
 30
0.0
 10
405.053552
 20
315.453929
 30
0.0
 10
402.668782
 20
315.453929
 30
0.0
  0
SPLINE
  5
1a8
100
AcDbEntity
  8
B.Cu
 62
7
100
AcDbSpline
 70
8
 71
3
 72
8
 73
4
 74
0
 40
0
 40
0
 40
0
 40
0
 40
1
 40
1
 40
1
 40
1
 10
340.897300
 20
290.133128
 30
0.0
 10
340.812184
 20
290.086987
 30
0.0
 10
340.742295
 20
290.017126
 30
0.0
 10
340.696120
 20
289.932028
 30
0.0
  0
SPLINE
  5
1a9
100
AcDbEntity
  8
B.Cu
 62
7
100
AcDbSpline
 70
8
 71
3
 72
8
 73
4
 74
0
 40
0
 40
0
 40
0
 40
0
 40
1
 40
1
 40
1
 40
1
 10
340.696120
 20
289.932028
 30
0.0
 10
340.600353
 20
289.922139
 30
0.0
 10
340.509477
 20
289.884811
 30
0.0
 10
340.434410
 20
289.824528
 30
0.0
  0
LWPOLYLINE
  5
1aa
100
AcDbEntity
  8
B.Cu
 62
7
100
AcDbPolyline
 90
7
 70
0
 10
402.315262
 20
315.307529
 30
0.0
 10
377.573081
 20
290.563328
 30
0.0
 10
377.414871
 20
290.426628
 30
0.0
 10
377.098471
 20
290.241128
 30
0.0
 10
376.729331
 20
290.147128
 30
0.0
 10
376.547691
 20
290.133128
 30
0.0
 10
340.897300
 20
290.133128
 30
0.0
  0
SPLINE
  5
1ab
100
AcDbEntity
  8
B.Cu
 62
7
100
AcDbSpline
 70
8
 71
3
 72
8
 73
4
 74
0
 40
0
 40
0
 40
0
 40
0
 40
1
 40
1
 40
1
 40
1
 10
340.434410
 20
293.221028
 30
0.0
 10
340.509489
 20
293.160782
 30
0.0
 10
340.600363
 20
293.123489
 30
0.0
 10
340.696120
 20
293.113628
 30
0.0
  0
SPLINE
  5
1ac
100
AcDbEntity
  8
B.Cu
 62
7
100
AcDbSpline
 70
8
 71
3
 72
8
 73
4
 74
0
 40
0
 40
0
 40
0
 40
0
 40
1
 40
1
 40
1
 40
1
 10
340.696120
 20
293.113628
 30
0.0
 10
340.742280
 20
293.028494
 30
0.0
 10
340.812170
 20
292.958597
 30
0.0
 10
340.897300
 20
292.912428
 30
0.0
  0
LWPOLYLINE
  5
1ad
100
AcDbEntity
  8
B.Cu
 62
7
100
AcDbPolyline
 90
32
 70
0
 10
340.434410
 20
289.824528
 30
0.0
 10
340.373910
 20
289.678128
 30
0.0
 10
340.077030
 20
289.228828
 30
0.0
 10
339.709850
 20
288.865628
 30
0.0
 10
339.258670
 20
288.564828
 30
0.0
 10
338.766490
 20
288.363628
 30
0.0
 10
338.245000
 20
288.262028
 30
0.0
 10
337.723520
 20
288.262028
 30
0.0
 10
337.202030
 20
288.363628
 30
0.0
 10
336.709850
 20
288.564828
 30
0.0
 10
336.262580
 20
288.861628
 30
0.0
 10
335.891490
 20
289.228828
 30
0.0
 10
335.594610
 20
289.678128
 30
0.0
 10
335.387580
 20
290.176128
 30
0.0
 10
335.284060
 20
290.699528
 30
0.0
 10
335.272360
 20
290.953428
 30
0.0
 10
335.272360
 20
292.092128
 30
0.0
 10
335.284060
 20
292.346028
 30
0.0
 10
335.387580
 20
292.869528
 30
0.0
 10
335.594610
 20
293.367528
 30
0.0
 10
335.887580
 20
293.803128
 30
0.0
 10
336.266490
 20
294.183928
 30
0.0
 10
336.709850
 20
294.480828
 30
0.0
 10
337.194220
 20
294.682028
 30
0.0
 10
337.723520
 20
294.783528
 30
0.0
 10
338.245000
 20
294.783528
 30
0.0
 10
338.774300
 20
294.682028
 30
0.0
 10
339.264530
 20
294.478828
 30
0.0
 10
339.705940
 20
294.182028
 30
0.0
 10
340.080940
 20
293.803128
 30
0.0
 10
340.373910
 20
293.367528
 30
0.0
 10
340.434410
 20
293.221028
 30
0.0
  0
SPLINE
  5
1ae
100
AcDbEntity
  8
B.Cu
 62
7
100
AcDbSpline
 70
8
 71
3
 72
8
 73
4
 74
0
 40
0
 40
0
 40
0
 40
0
 40
1
 40
1
 40
1
 40
1
 10
375.780111
 20
292.912428
 30
0.0
 10
375.838630
 20
292.950500
 30
0.0
 10
375.888527
 20
293.000404
 30
0.0
 10
375.926591
 20
293.058928
 30
0.0
  0
SPLINE
  5
1af
100
AcDbEntity
  8
B.Cu
 62
7
100
AcDbSpline
 70
8
 71
3
 72
8
 73
4
 74
0
 40
0
 40
0
 40
0
 40
0
 40
1
 40
1
 40
1
 40
1
 10
375.926591
 20
293.058928
 30
0.0
 10
375.994845
 20
293.044485
 30
0.0
 10
376.065367
 20
293.044485
 30
0.0
 10
376.133621
 20
293.058928
 30
0.0
  0
LWPOLYLINE
  5
1b0
100
AcDbEntity
  8
B.Cu
 62
7
100
AcDbPolyline
 90
2
 70
0
 10
340.897300
 20
292.912428
 30
0.0
 10
375.780111
 20
292.912428
 30
0.0
  0
SPLINE
  5
1b1
100
AcDbEntity
  8
B.Cu
 62
7
100
AcDbSpline
 70
8
 71
3
 72
8
 73
4
 74
0
 40
0
 40
0
 40
0
 40
0
 40
1
 40
1
 40
1
 40
1
 10
400.350421
 20
317.279629
 30
0.0
 10
400.364861
 20
317.347874
 30
0.0
 10
400.364861
 20
317.418385
 30
0.0
 10
400.350421
 20
317.486629
 30
0.0
  0
SPLINE
  5
1b2
100
AcDbEntity
  8
B.Cu
 62
7
100
AcDbSpline
 70
8
 71
3
 72
8
 73
4
 74
0
 40
0
 40
0
 40
0
 40
0
 40
1
 40
1
 40
1
 40
1
 10
400.350421
 20
317.486629
 30
0.0
 10
400.408944
 20
317.524700
 30
0.0
 10
400.458845
 20
317.574604
 30
0.0
 10
400.496912
 20
317.633129
 30
0.0
  0
LWPOLYLINE
  5
1b3
100
AcDbEntity
  8
B.Cu
 62
7
100
AcDbPolyline
 90
2
 70
0
 10
376.133621
 20
293.058928
 30
0.0
 10
400.350421
 20
317.279629
 30
0.0
  0
SPLINE
  5
1b4
100
AcDbEntity
  8
B.Cu
 62
7
100
AcDbSpline
 70
8
 71
3
 72
8
 73
4
 74
0
 40
0
 40
0
 40
0
 40
0
 40
1
 40
1
 40
1
 40
1
 10
405.543852
 20
319.873429
 30
0.0
 10
405.543852
 20
319.740821
 30
0.0
 10
405.596530
 20
319.613644
 30
0.0
 10
405.690298
 20
319.519876
 30
0.0
  0
SPLINE
  5
1b5
100
AcDbEntity
  8
B.Cu
 62
7
100
AcDbSpline
 70
8
 71
3
 72
8
 73
4
 74
0
 40
0
 40
0
 40
0
 40
0
 40
1
 40
1
 40
1
 40
1
 10
405.690298
 20
319.519876
 30
0.0
 10
405.784066
 20
319.426108
 30
0.0
 10
405.911243
 20
319.373429
 30
0.0
 10
406.043852
 20
319.373429
 30
0.0
  0
LWPOLYLINE
  5
1b6
100
AcDbEntity
  8
B.Cu
 62
7
100
AcDbPolyline
 90
12
 70
0
 10
400.496912
 20
317.633129
 30
0.0
 10
400.496912
 20
320.014029
 30
0.0
 10
400.539912
 20
320.226929
 30
0.0
 10
400.631712
 20
320.361629
 30
0.0
 10
400.778202
 20
320.461629
 30
0.0
 10
400.985232
 20
320.502629
 30
0.0
 10
405.053592
 20
320.502629
 30
0.0
 10
405.264522
 20
320.461629
 30
0.0
 10
405.409052
 20
320.361629
 30
0.0
 10
405.500852
 20
320.226929
 30
0.0
 10
405.543852
 20
320.014029
 30
0.0
 10
405.543852
 20
319.873429
 30
0.0
  0
SPLINE
  5
1b7
100
AcDbEntity
  8
B.Cu
 62
7
100
AcDbSpline
 70
8
 71
3
 72
8
 73
4
 74
0
 40
0
 40
0
 40
0
 40
0
 40
1
 40
1
 40
1
 40
1
 10
451.563383
 20
319.373429
 30
0.0
 10
451.695701
 20
319.372921
 30
0.0
 10
451.822825
 20
319.424883
 30
0.0
 10
451.916903
 20
319.517929
 30
0.0
  0
LWPOLYLINE
  5
1b8
100
AcDbEntity
  8
B.Cu
 62
7
100
AcDbPolyline
 90
2
 70
0
 10
406.043852
 20
319.373429
 30
0.0
 10
451.563383
 20
319.373429
 30
0.0
  0
LWPOLYLINE
  5
1b9
100
AcDbEntity
  8
B.Cu
 62
7
100
AcDbPolyline
 90
5
 70
0
 10
451.916903
 20
319.517929
 30
0.0
 10
452.319243
 20
319.920229
 30
0.0
 10
452.772373
 20
320.223029
 30
0.0
 10
453.258693
 20
320.422229
 30
0.0
 10
453.783503
 20
320.520929
 30
0.0
  0
SPLINE
  5
1ba
100
AcDbEntity
  8
B.Cu
 62
7
100
AcDbSpline
 70
8
 71
3
 72
8
 73
4
 74
0
 40
0
 40
0
 40
0
 40
0
 40
1
 40
1
 40
1
 40
1
 10
340.433830
 20
349.907630
 30
0.0
 10
340.509762
 20
349.845966
 30
0.0
 10
340.602115
 20
349.807929
 30
0.0
 10
340.699450
 20
349.798230
 30
0.0
  0
SPLINE
  5
1bb
100
AcDbEntity
  8
B.Cu
 62
7
100
AcDbSpline
 70
8
 71
3
 72
8
 73
4
 74
0
 40
0
 40
0
 40
0
 40
0
 40
1
 40
1
 40
1
 40
1
 10
340.699450
 20
349.798230
 30
0.0
 10
340.745154
 20
349.715078
 30
0.0
 10
340.813574
 20
349.646647
 30
0.0
 10
340.896720
 20
349.600930
 30
0.0
  0
LWPOLYLINE
  5
1bc
100
AcDbEntity
  8
B.Cu
 62
7
100
AcDbPolyline
 90
8
 70
0
 10
337.717080
 20
351.479830
 30
0.0
 10
338.250280
 20
351.479830
 30
0.0
 10
338.767860
 20
351.370530
 30
0.0
 10
339.265910
 20
351.165430
 30
0.0
 10
339.701450
 20
350.872430
 30
0.0
 10
340.076450
 20
350.501330
 30
0.0
 10
340.373330
 20
350.056030
 30
0.0
 10
340.433830
 20
349.907630
 30
0.0
  0
SPLINE
  5
1bd
100
AcDbEntity
  8
B.Cu
 62
7
100
AcDbSpline
 70
8
 71
3
 72
8
 73
4
 74
0
 40
0
 40
0
 40
0
 40
0
 40
1
 40
1
 40
1
 40
1
 10
402.336192
 20
330.073329
 30
0.0
 10
402.429957
 20
329.979589
 30
0.0
 10
402.557115
 20
329.926929
 30
0.0
 10
402.689702
 20
329.926929
 30
0.0
  0
LWPOLYLINE
  5
1be
100
AcDbEntity
  8
B.Cu
 62
7
100
AcDbPolyline
 90
8
 70
0
 10
340.896720
 20
349.600930
 30
0.0
 10
382.211171
 20
349.600930
 30
0.0
 10
382.232671
 20
349.600930
 30
0.0
 10
382.394781
 20
349.590930
 30
0.0
 10
382.773691
 20
349.485530
 30
0.0
 10
383.092051
 20
349.298030
 30
0.0
 10
383.240491
 20
349.169030
 30
0.0
 10
402.336192
 20
330.073329
 30
0.0
  0
SPLINE
  5
1bf
100
AcDbEntity
  8
B.Cu
 62
7
100
AcDbSpline
 70
8
 71
3
 72
8
 73
4
 74
0
 40
0
 40
0
 40
0
 40
0
 40
1
 40
1
 40
1
 40
1
 10
405.014082
 20
328.971229
 30
0.0
 10
405.082881
 20
328.952916
 30
0.0
 10
405.154798
 20
328.949507
 30
0.0
 10
405.225022
 20
328.961229
 30
0.0
  0
SPLINE
  5
1c0
100
AcDbEntity
  8
B.Cu
 62
7
100
AcDbSpline
 70
8
 71
3
 72
8
 73
4
 74
0
 40
0
 40
0
 40
0
 40
0
 40
1
 40
1
 40
1
 40
1
 10
405.225022
 20
328.961229
 30
0.0
 10
405.263785
 20
328.900891
 30
0.0
 10
405.315075
 20
328.849597
 30
0.0
 10
405.375412
 20
328.810829
 30
0.0
  0
LWPOLYLINE
  5
1c1
100
AcDbEntity
  8
B.Cu
 62
7
100
AcDbPolyline
 90
9
 70
0
 10
402.689702
 20
329.926929
 30
0.0
 10
402.722902
 20
329.926929
 30
0.0
 10
403.275632
 20
329.926929
 30
0.0
 10
403.748292
 20
329.838929
 30
0.0
 10
404.209232
 20
329.643629
 30
0.0
 10
404.619382
 20
329.370129
 30
0.0
 10
404.994382
 20
328.993229
 30
0.0
 10
405.002382
 20
328.983229
 30
0.0
 10
405.014082
 20
328.971229
 30
0.0
  0
SPLINE
  5
1c2
100
AcDbEntity
  8
B.Cu
 62
7
100
AcDbSpline
 70
8
 71
3
 72
8
 73
4
 74
0
 40
0
 40
0
 40
0
 40
0
 40
1
 40
1
 40
1
 40
1
 10
450.830493
 20
328.810829
 30
0.0
 10
450.963101
 20
328.810829
 30
0.0
 10
451.090278
 20
328.863508
 30
0.0
 10
451.184046
 20
328.957276
 30
0.0
  0
SPLINE
  5
1c3
100
AcDbEntity
  8
B.Cu
 62
7
100
AcDbSpline
 70
8
 71
3
 72
8
 73
4
 74
0
 40
0
 40
0
 40
0
 40
0
 40
1
 40
1
 40
1
 40
1
 10
451.184046
 20
328.957276
 30
0.0
 10
451.277815
 20
329.051044
 30
0.0
 10
451.330493
 20
329.178221
 30
0.0
 10
451.330493
 20
329.310829
 30
0.0
  0
LWPOLYLINE
  5
1c4
100
AcDbEntity
  8
B.Cu
 62
7
100
AcDbPolyline
 90
2
 70
0
 10
405.375412
 20
328.810829
 30
0.0
 10
450.830493
 20
328.810829
 30
0.0
  0
SPLINE
  5
1c5
100
AcDbEntity
  8
B.Cu
 62
7
100
AcDbSpline
 70
8
 71
3
 72
8
 73
4
 74
0
 40
0
 40
0
 40
0
 40
0
 40
1
 40
1
 40
1
 40
1
 10
451.330493
 20
325.531529
 30
0.0
 10
451.330493
 20
325.664138
 30
0.0
 10
451.277815
 20
325.791315
 30
0.0
 10
451.184046
 20
325.885083
 30
0.0
  0
SPLINE
  5
1c6
100
AcDbEntity
  8
B.Cu
 62
7
100
AcDbSpline
 70
8
 71
3
 72
8
 73
4
 74
0
 40
0
 40
0
 40
0
 40
0
 40
1
 40
1
 40
1
 40
1
 10
451.184046
 20
325.885083
 30
0.0
 10
451.090278
 20
325.978851
 30
0.0
 10
450.963101
 20
326.031529
 30
0.0
 10
450.830493
 20
326.031529
 30
0.0
  0
LWPOLYLINE
  5
1c7
100
AcDbEntity
  8
B.Cu
 62
7
100
AcDbPolyline
 90
6
 70
0
 10
451.330493
 20
329.310829
 30
0.0
 10
451.330493
 20
330.131129
 30
0.0
 10
456.756273
 20
330.131129
 30
0.0
 10
456.756273
 20
324.701429
 30
0.0
 10
451.330493
 20
324.701429
 30
0.0
 10
451.330493
 20
325.531529
 30
0.0
  0
SPLINE
  5
1c8
100
AcDbEntity
  8
B.Cu
 62
7
100
AcDbSpline
 70
8
 71
3
 72
8
 73
4
 74
0
 40
0
 40
0
 40
0
 40
0
 40
1
 40
1
 40
1
 40
1
 10
405.350012
 20
326.006529
 30
0.0
 10
405.228907
 20
325.996146
 30
0.0
 10
405.115732
 20
325.942005
 30
0.0
 10
405.031652
 20
325.854229
 30
0.0
  0
LWPOLYLINE
  5
1c9
100
AcDbEntity
  8
B.Cu
 62
7
100
AcDbPolyline
 90
3
 70
0
 10
450.830493
 20
326.031529
 30
0.0
 10
405.375412
 20
326.031529
 30
0.0
 10
405.350012
 20
326.006529
 30
0.0
  0
SPLINE
  5
1ca
100
AcDbEntity
  8
B.Cu
 62
7
100
AcDbSpline
 70
8
 71
3
 72
8
 73
4
 74
0
 40
0
 40
0
 40
0
 40
0
 40
1
 40
1
 40
1
 40
1
 10
400.496472
 20
327.725729
 30
0.0
 10
400.501245
 20
327.854021
 30
0.0
 10
400.456488
 20
327.979233
 30
0.0
 10
400.371471
 20
328.075429
 30
0.0
  0
LWPOLYLINE
  5
1cb
100
AcDbEntity
  8
B.Cu
 62
7
100
AcDbPolyline
 90
17
 70
0
 10
405.031652
 20
325.854229
 30
0.0
 10
405.002352
 20
325.854229
 30
0.0
 10
404.619542
 20
325.469429
 30
0.0
 10
404.203532
 20
325.190129
 30
0.0
 10
403.748452
 20
325.002629
 30
0.0
 10
403.264072
 20
324.910629
 30
0.0
 10
402.775792
 20
324.910629
 30
0.0
 10
402.291422
 20
325.002629
 30
0.0
 10
401.832432
 20
325.192029
 30
0.0
 10
401.420322
 20
325.469429
 30
0.0
 10
401.074622
 20
325.815129
 30
0.0
 10
400.795322
 20
326.229229
 30
0.0
 10
400.605872
 20
326.692029
 30
0.0
 10
400.510172
 20
327.170629
 30
0.0
 10
400.510172
 20
327.664729
 30
0.0
 10
400.510172
 20
327.711729
 30
0.0
 10
400.496472
 20
327.725729
 30
0.0
  0
SPLINE
  5
1cc
100
AcDbEntity
  8
B.Cu
 62
7
100
AcDbSpline
 70
8
 71
3
 72
8
 73
4
 74
0
 40
0
 40
0
 40
0
 40
0
 40
1
 40
1
 40
1
 40
1
 10
381.803111
 20
346.664930
 30
0.0
 10
381.734853
 20
346.679375
 30
0.0
 10
381.664328
 20
346.679375
 30
0.0
 10
381.596071
 20
346.664930
 30
0.0
  0
SPLINE
  5
1cd
100
AcDbEntity
  8
B.Cu
 62
7
100
AcDbSpline
 70
8
 71
3
 72
8
 73
4
 74
0
 40
0
 40
0
 40
0
 40
0
 40
1
 40
1
 40
1
 40
1
 10
381.596071
 20
346.664930
 30
0.0
 10
381.558007
 20
346.723454
 30
0.0
 10
381.508110
 20
346.773358
 30
0.0
 10
381.449591
 20
346.811430
 30
0.0
  0
LWPOLYLINE
  5
1ce
100
AcDbEntity
  8
B.Cu
 62
7
100
AcDbPolyline
 90
3
 70
0
 10
400.371471
 20
328.075429
 30
0.0
 10
400.371471
 20
328.104429
 30
0.0
 10
381.803111
 20
346.664930
 30
0.0
  0
SPLINE
  5
1cf
100
AcDbEntity
  8
B.Cu
 62
7
100
AcDbSpline
 70
8
 71
3
 72
8
 73
4
 74
0
 40
0
 40
0
 40
0
 40
0
 40
1
 40
1
 40
1
 40
1
 10
340.896860
 20
346.811430
 30
0.0
 10
340.812733
 20
346.765498
 30
0.0
 10
340.743580
 20
346.696353
 30
0.0
 10
340.697640
 20
346.612230
 30
0.0
  0
SPLINE
  5
1d0
100
AcDbEntity
  8
B.Cu
 62
7
100
AcDbSpline
 70
8
 71
3
 72
8
 73
4
 74
0
 40
0
 40
0
 40
0
 40
0
 40
1
 40
1
 40
1
 40
1
 10
340.697640
 20
346.612230
 30
0.0
 10
340.600986
 20
346.602161
 30
0.0
 10
340.509361
 20
346.564144
 30
0.0
 10
340.433970
 20
346.502830
 30
0.0
  0
LWPOLYLINE
  5
1d1
100
AcDbEntity
  8
B.Cu
 62
7
100
AcDbPolyline
 90
2
 70
0
 10
381.449591
 20
346.811430
 30
0.0
 10
340.896860
 20
346.811430
 30
0.0
  0
LWPOLYLINE
  5
1d2
100
AcDbEntity
  8
B.Cu
 62
7
100
AcDbPolyline
 90
25
 70
0
 10
340.433970
 20
346.502830
 30
0.0
 10
340.375370
 20
346.360230
 30
0.0
 10
340.080450
 20
345.922730
 30
0.0
 10
339.705450
 20
345.541930
 30
0.0
 10
339.266000
 20
345.246930
 30
0.0
 10
338.766000
 20
345.041930
 30
0.0
 10
338.254280
 20
344.941930
 30
0.0
 10
337.713260
 20
344.941930
 30
0.0
 10
337.201540
 20
345.041930
 30
0.0
 10
336.701540
 20
345.246930
 30
0.0
 10
336.266000
 20
345.537930
 30
0.0
 10
335.887090
 20
345.922730
 30
0.0
 10
335.592170
 20
346.360230
 30
0.0
 10
335.389040
 20
346.852430
 30
0.0
 10
335.283570
 20
347.377830
 30
0.0
 10
335.271870
 20
347.641530
 30
0.0
 10
335.271870
 20
348.772330
 30
0.0
 10
335.283570
 20
349.026230
 30
0.0
 10
335.389040
 20
349.551630
 30
0.0
 10
335.594120
 20
350.047730
 30
0.0
 10
335.891000
 20
350.493030
 30
0.0
 10
336.269900
 20
350.868030
 30
0.0
 10
336.701540
 20
351.157130
 30
0.0
 10
337.199590
 20
351.362230
 30
0.0
 10
337.717080
 20
351.479830
 30
0.0
  0
SPLINE
  5
1d3
100
AcDbEntity
  8
B.Cu
 62
7
100
AcDbSpline
 70
8
 71
3
 72
8
 73
4
 74
0
 40
0
 40
0
 40
0
 40
0
 40
1
 40
1
 40
1
 40
1
 10
71.810942
 20
299.082329
 30
0.0
 10
71.810942
 20
298.949720
 30
0.0
 10
71.863620
 20
298.822543
 30
0.0
 10
71.957389
 20
298.728775
 30
0.0
  0
SPLINE
  5
1d4
100
AcDbEntity
  8
B.Cu
 62
7
100
AcDbSpline
 70
8
 71
3
 72
8
 73
4
 74
0
 40
0
 40
0
 40
0
 40
0
 40
1
 40
1
 40
1
 40
1
 10
71.957389
 20
298.728775
 30
0.0
 10
72.051157
 20
298.635007
 30
0.0
 10
72.178334
 20
298.582329
 30
0.0
 10
72.310942
 20
298.582329
 30
0.0
  0
LWPOLYLINE
  5
1d5
100
AcDbEntity
  8
B.Cu
 62
7
100
AcDbPolyline
 90
26
 70
0
 10
46.586241
 20
363.470130
 30
0.0
 10
47.597961
 20
363.470130
 30
0.0
 10
48.590151
 20
363.356830
 30
0.0
 10
49.576471
 20
363.126330
 30
0.0
 10
50.513971
 20
362.798230
 30
0.0
 10
51.424131
 20
362.358730
 30
0.0
 10
52.271792
 20
361.831430
 30
0.0
 10
53.062802
 20
361.200530
 30
0.0
 10
53.420222
 20
360.866630
 30
0.0
 10
53.431922
 20
360.854630
 30
0.0
 10
69.178022
 20
345.108530
 30
0.0
 10
69.189722
 20
345.096530
 30
0.0
 10
69.537382
 20
344.721530
 30
0.0
 10
69.541382
 20
344.721530
 30
0.0
 10
70.160522
 20
343.940330
 30
0.0
 10
70.426142
 20
343.518430
 30
0.0
 10
70.693722
 20
343.092630
 30
0.0
 10
71.125362
 20
342.202030
 30
0.0
 10
71.461302
 20
341.243030
 30
0.0
 10
71.682002
 20
340.274330
 30
0.0
 10
71.797242
 20
339.246930
 30
0.0
 10
71.799242
 20
339.236930
 30
0.0
 10
71.810942
 20
338.762330
 30
0.0
 10
71.810942
 20
338.748330
 30
0.0
 10
71.810942
 20
312.312729
 30
0.0
 10
71.810942
 20
299.082329
 30
0.0
  0
SPLINE
  5
1d6
100
AcDbEntity
  8
B.Cu
 62
7
100
AcDbSpline
 70
8
 71
3
 72
8
 73
4
 74
0
 40
0
 40
0
 40
0
 40
0
 40
1
 40
1
 40
1
 40
1
 10
181.916415
 20
298.582329
 30
0.0
 10
182.049023
 20
298.582329
 30
0.0
 10
182.176200
 20
298.635007
 30
0.0
 10
182.269969
 20
298.728775
 30
0.0
  0
SPLINE
  5
1d7
100
AcDbEntity
  8
B.Cu
 62
7
100
AcDbSpline
 70
8
 71
3
 72
8
 73
4
 74
0
 40
0
 40
0
 40
0
 40
0
 40
1
 40
1
 40
1
 40
1
 10
182.269969
 20
298.728775
 30
0.0
 10
182.363737
 20
298.822543
 30
0.0
 10
182.416415
 20
298.949720
 30
0.0
 10
182.416415
 20
299.082329
 30
0.0
  0
LWPOLYLINE
  5
1d8
100
AcDbEntity
  8
B.Cu
 62
7
100
AcDbPolyline
 90
2
 70
0
 10
72.310942
 20
298.582329
 30
0.0
 10
181.916415
 20
298.582329
 30
0.0
  0
SPLINE
  5
1d9
100
AcDbEntity
  8
B.Cu
 62
7
100
AcDbSpline
 70
8
 71
3
 72
8
 73
4
 74
0
 40
0
 40
0
 40
0
 40
0
 40
1
 40
1
 40
1
 40
1
 10
192.756216
 20
299.082329
 30
0.0
 10
192.756216
 20
298.949720
 30
0.0
 10
192.808894
 20
298.822543
 30
0.0
 10
192.902662
 20
298.728775
 30
0.0
  0
SPLINE
  5
1da
100
AcDbEntity
  8
B.Cu
 62
7
100
AcDbSpline
 70
8
 71
3
 72
8
 73
4
 74
0
 40
0
 40
0
 40
0
 40
0
 40
1
 40
1
 40
1
 40
1
 10
192.902662
 20
298.728775
 30
0.0
 10
192.996430
 20
298.635007
 30
0.0
 10
193.123607
 20
298.582329
 30
0.0
 10
193.256216
 20
298.582329
 30
0.0
  0
LWPOLYLINE
  5
1db
100
AcDbEntity
  8
B.Cu
 62
7
100
AcDbPolyline
 90
26
 70
0
 10
182.416415
 20
299.082329
 30
0.0
 10
182.416415
 20
316.072529
 30
0.0
 10
182.416415
 20
316.092529
 30
0.0
 10
182.432015
 20
316.485129
 30
0.0
 10
182.562875
 20
317.303529
 30
0.0
 10
182.808975
 20
318.065229
 30
0.0
 10
183.180065
 20
318.789829
 30
0.0
 10
183.658575
 20
319.449929
 30
0.0
 10
184.232795
 20
320.024229
 30
0.0
 10
184.881235
 20
320.492929
 30
0.0
 10
185.603895
 20
320.858129
 30
0.0
 10
186.389045
 20
321.117929
 30
0.0
 10
187.183975
 20
321.242929
 30
0.0
 10
187.990615
 20
321.242929
 30
0.0
 10
188.781625
 20
321.117929
 30
0.0
 10
189.570685
 20
320.858129
 30
0.0
 10
190.285535
 20
320.496829
 30
0.0
 10
190.939825
 20
320.024229
 30
0.0
 10
191.514045
 20
319.449929
 30
0.0
 10
191.992566
 20
318.791729
 30
0.0
 10
192.359756
 20
318.074929
 30
0.0
 10
192.611706
 20
317.291729
 30
0.0
 10
192.740616
 20
316.487029
 30
0.0
 10
192.756216
 20
316.092529
 30
0.0
 10
192.756216
 20
316.072529
 30
0.0
 10
192.756216
 20
299.082329
 30
0.0
  0
SPLINE
  5
1dc
100
AcDbEntity
  8
B.Cu
 62
7
100
AcDbSpline
 70
8
 71
3
 72
8
 73
4
 74
0
 40
0
 40
0
 40
0
 40
0
 40
1
 40
1
 40
1
 40
1
 10
208.719106
 20
298.582329
 30
0.0
 10
208.777618
 20
298.620370
 30
0.0
 10
208.827519
 20
298.670240
 30
0.0
 10
208.865596
 20
298.728729
 30
0.0
  0
SPLINE
  5
1dd
100
AcDbEntity
  8
B.Cu
 62
7
100
AcDbSpline
 70
8
 71
3
 72
8
 73
4
 74
0
 40
0
 40
0
 40
0
 40
0
 40
1
 40
1
 40
1
 40
1
 10
208.865596
 20
298.728729
 30
0.0
 10
208.933850
 20
298.714285
 30
0.0
 10
209.004372
 20
298.714285
 30
0.0
 10
209.072626
 20
298.728729
 30
0.0
  0
LWPOLYLINE
  5
1de
100
AcDbEntity
  8
B.Cu
 62
7
100
AcDbPolyline
 90
2
 70
0
 10
193.256216
 20
298.582329
 30
0.0
 10
208.719106
 20
298.582329
 30
0.0
  0
SPLINE
  5
1df
100
AcDbEntity
  8
B.Cu
 62
7
100
AcDbSpline
 70
8
 71
3
 72
8
 73
4
 74
0
 40
0
 40
0
 40
0
 40
0
 40
1
 40
1
 40
1
 40
1
 10
72.310862
 20
288.241628
 30
0.0
 10
72.178254
 20
288.241628
 30
0.0
 10
72.051077
 20
288.188950
 30
0.0
 10
71.957309
 20
288.095182
 30
0.0
  0
SPLINE
  5
1e0
100
AcDbEntity
  8
B.Cu
 62
7
100
AcDbSpline
 70
8
 71
3
 72
8
 73
4
 74
0
 40
0
 40
0
 40
0
 40
0
 40
1
 40
1
 40
1
 40
1
 10
71.957309
 20
288.095182
 30
0.0
 10
71.863540
 20
288.001413
 30
0.0
 10
71.810862
 20
287.874237
 30
0.0
 10
71.810862
 20
287.741628
 30
0.0
  0
LWPOLYLINE
  5
1e1
100
AcDbEntity
  8
B.Cu
 62
7
100
AcDbPolyline
 90
36
 70
0
 10
209.072626
 20
298.728729
 30
0.0
 10
224.404656
 20
314.064729
 30
0.0
 10
224.420256
 20
314.078729
 30
0.0
 10
224.717136
 20
314.350229
 30
0.0
 10
225.371436
 20
314.824829
 30
0.0
 10
226.094086
 20
315.197929
 30
0.0
 10
226.865577
 20
315.445929
 30
0.0
 10
227.672217
 20
315.572929
 30
0.0
 10
228.476897
 20
315.572929
 30
0.0
 10
229.283537
 20
315.445929
 30
0.0
 10
230.055027
 20
315.197929
 30
0.0
 10
230.777687
 20
314.824829
 30
0.0
 10
231.428077
 20
314.354129
 30
0.0
 10
231.996437
 20
313.787729
 30
0.0
 10
232.476897
 20
313.127629
 30
0.0
 10
232.847997
 20
312.404929
 30
0.0
 10
233.099947
 20
311.621729
 30
0.0
 10
233.226897
 20
310.822929
 30
0.0
 10
233.226897
 20
310.014329
 30
0.0
 10
233.101897
 20
309.217429
 30
0.0
 10
232.846037
 20
308.440129
 30
0.0
 10
232.480807
 20
307.723329
 30
0.0
 10
231.996437
 20
307.057329
 30
0.0
 10
231.728857
 20
306.766229
 30
0.0
 10
231.715157
 20
306.750229
 30
0.0
 10
214.738586
 20
289.771728
 30
0.0
 10
214.722986
 20
289.755728
 30
0.0
 10
214.428066
 20
289.486128
 30
0.0
 10
213.769856
 20
289.011528
 30
0.0
 10
213.037436
 20
288.632628
 30
0.0
 10
212.275716
 20
288.390428
 30
0.0
 10
211.463216
 20
288.259628
 30
0.0
 10
211.066736
 20
288.241628
 30
0.0
 10
211.045236
 20
288.241628
 30
0.0
 10
187.586255
 20
288.241628
 30
0.0
 10
72.310862
 20
288.241628
 30
0.0
  0
SPLINE
  5
1e2
100
AcDbEntity
  8
B.Cu
 62
7
100
AcDbSpline
 70
8
 71
3
 72
8
 73
4
 74
0
 40
0
 40
0
 40
0
 40
0
 40
1
 40
1
 40
1
 40
1
 10
71.810862
 20
112.132223
 30
0.0
 10
71.848926
 20
112.073699
 30
0.0
 10
71.898823
 20
112.023795
 30
0.0
 10
71.957342
 20
111.985723
 30
0.0
  0
SPLINE
  5
1e3
100
AcDbEntity
  8
B.Cu
 62
7
100
AcDbSpline
 70
8
 71
3
 72
8
 73
4
 74
0
 40
0
 40
0
 40
0
 40
0
 40
1
 40
1
 40
1
 40
1
 10
71.957342
 20
111.985723
 30
0.0
 10
71.942903
 20
111.917479
 30
0.0
 10
71.942903
 20
111.846968
 30
0.0
 10
71.957342
 20
111.778723
 30
0.0
  0
LWPOLYLINE
  5
1e4
100
AcDbEntity
  8
B.Cu
 62
7
100
AcDbPolyline
 90
2
 70
0
 10
71.810862
 20
287.741628
 30
0.0
 10
71.810862
 20
112.132223
 30
0.0
  0
SPLINE
  5
1e5
100
AcDbEntity
  8
B.Cu
 62
7
100
AcDbSpline
 70
8
 71
3
 72
8
 73
4
 74
0
 40
0
 40
0
 40
0
 40
0
 40
1
 40
1
 40
1
 40
1
 10
87.930013
 20
70.289022
 30
0.0
 10
87.891946
 20
70.347547
 30
0.0
 10
87.842045
 20
70.397452
 30
0.0
 10
87.783523
 20
70.435522
 30
0.0
  0
SPLINE
  5
1e6
100
AcDbEntity
  8
B.Cu
 62
7
100
AcDbSpline
 70
8
 71
3
 72
8
 73
4
 74
0
 40
0
 40
0
 40
0
 40
0
 40
1
 40
1
 40
1
 40
1
 10
87.783523
 20
70.435522
 30
0.0
 10
87.797962
 20
70.503767
 30
0.0
 10
87.797962
 20
70.574277
 30
0.0
 10
87.783523
 20
70.642522
 30
0.0
  0
LWPOLYLINE
  5
1e7
100
AcDbEntity
  8
B.Cu
 62
7
100
AcDbPolyline
 90
52
 70
0
 10
71.957342
 20
111.778723
 30
0.0
 10
103.193673
 20
80.540422
 30
0.0
 10
103.205373
 20
80.528422
 30
0.0
 10
103.543263
 20
80.167122
 30
0.0
 10
104.162403
 20
79.391722
 30
0.0
 10
104.168403
 20
79.381722
 30
0.0
 10
104.441843
 20
78.957922
 30
0.0
 10
104.445843
 20
78.957922
 30
0.0
 10
104.709523
 20
78.538022
 30
0.0
 10
105.141163
 20
77.637622
 30
0.0
 10
105.475143
 20
76.676722
 30
0.0
 10
105.697803
 20
75.707922
 30
0.0
 10
105.813033
 20
74.690422
 30
0.0
 10
105.815033
 20
74.680422
 30
0.0
 10
105.826733
 20
74.207722
 30
0.0
 10
105.826733
 20
74.191722
 30
0.0
 10
105.826733
 20
62.881222
 30
0.0
 10
105.826733
 20
62.867222
 30
0.0
 10
105.815033
 20
62.392622
 30
0.0
 10
105.813033
 20
62.382622
 30
0.0
 10
105.697803
 20
61.363122
 30
0.0
 10
105.475143
 20
60.386522
 30
0.0
 10
105.145063
 20
59.441222
 30
0.0
 10
104.709523
 20
58.536922
 30
0.0
 10
104.170453
 20
57.677522
 30
0.0
 10
103.547413
 20
56.898322
 30
0.0
 10
102.842333
 20
56.191222
 30
0.0
 10
102.049363
 20
55.560422
 30
0.0
 10
101.203663
 20
55.033022
 30
0.0
 10
100.328663
 20
54.609222
 30
0.0
 10
100.320663
 20
54.609222
 30
0.0
 10
99.355823
 20
54.271322
 30
0.0
 10
98.377303
 20
54.044722
 30
0.0
 10
97.369493
 20
53.929522
 30
0.0
 10
96.387073
 20
53.929522
 30
0.0
 10
95.381213
 20
54.042822
 30
0.0
 10
94.400743
 20
54.271322
 30
0.0
 10
93.451523
 20
54.605322
 30
0.0
 10
92.558953
 20
55.033022
 30
0.0
 10
91.697623
 20
55.568222
 30
0.0
 10
90.922233
 20
56.187322
 30
0.0
 10
90.199573
 20
56.910022
 30
0.0
 10
89.586293
 20
57.681422
 30
0.0
 10
89.047233
 20
58.540822
 30
0.0
 10
88.609733
 20
59.445122
 30
0.0
 10
88.279653
 20
60.390422
 30
0.0
 10
88.056993
 20
61.368922
 30
0.0
 10
87.943713
 20
62.386522
 30
0.0
 10
87.941713
 20
62.396522
 30
0.0
 10
87.928013
 20
62.869122
 30
0.0
 10
87.930013
 20
62.869122
 30
0.0
 10
87.930013
 20
70.289022
 30
0.0
  0
SPLINE
  5
1e8
100
AcDbEntity
  8
B.Cu
 62
7
100
AcDbSpline
 70
8
 71
3
 72
8
 73
4
 74
0
 40
0
 40
0
 40
0
 40
0
 40
1
 40
1
 40
1
 40
1
 10
53.912402
 20
334.856330
 30
0.0
 10
53.874338
 20
334.914854
 30
0.0
 10
53.824440
 20
334.964758
 30
0.0
 10
53.765922
 20
335.002830
 30
0.0
  0
SPLINE
  5
1e9
100
AcDbEntity
  8
B.Cu
 62
7
100
AcDbSpline
 70
8
 71
3
 72
8
 73
4
 74
0
 40
0
 40
0
 40
0
 40
0
 40
1
 40
1
 40
1
 40
1
 10
53.765922
 20
335.002830
 30
0.0
 10
53.780375
 20
335.071106
 30
0.0
 10
53.780375
 20
335.141653
 30
0.0
 10
53.765922
 20
335.209930
 30
0.0
  0
LWPOLYLINE
  5
1ea
100
AcDbEntity
  8
B.Cu
 62
7
100
AcDbPolyline
 90
18
 70
0
 10
87.783523
 20
70.642522
 30
0.0
 10
56.547202
 20
101.878923
 30
0.0
 10
56.535502
 20
101.892923
 30
0.0
 10
56.533502
 20
101.892923
 30
0.0
 10
56.195612
 20
102.254323
 30
0.0
 10
55.566712
 20
103.047223
 30
0.0
 10
55.265932
 20
103.514023
 30
0.0
 10
55.263932
 20
103.514023
 30
0.0
 10
55.033462
 20
103.883223
 30
0.0
 10
54.595972
 20
104.791423
 30
0.0
 10
54.263932
 20
105.744523
 30
0.0
 10
54.039322
 20
106.732823
 30
0.0
 10
53.928002
 20
107.699623
 30
0.0
 10
53.928002
 20
107.709623
 30
0.0
 10
53.912402
 20
108.215423
 30
0.0
 10
53.912402
 20
108.229423
 30
0.0
 10
53.912402
 20
312.315329
 30
0.0
 10
53.912402
 20
334.856330
 30
0.0
  0
SPLINE
  5
1eb
100
AcDbEntity
  8
B.Cu
 62
7
100
AcDbSpline
 70
8
 71
3
 72
8
 73
4
 74
0
 40
0
 40
0
 40
0
 40
0
 40
1
 40
1
 40
1
 40
1
 10
39.935761
 20
349.177030
 30
0.0
 10
39.863173
 20
349.202695
 30
0.0
 10
39.785639
 20
349.211251
 30
0.0
 10
39.709201
 20
349.202030
 30
0.0
  0
SPLINE
  5
1ec
100
AcDbEntity
  8
B.Cu
 62
7
100
AcDbSpline
 70
8
 71
3
 72
8
 73
4
 74
0
 40
0
 40
0
 40
0
 40
0
 40
1
 40
1
 40
1
 40
1
 10
39.709201
 20
349.202030
 30
0.0
 10
39.668448
 20
349.267889
 30
0.0
 10
39.612953
 20
349.323381
 30
0.0
 10
39.547091
 20
349.364130
 30
0.0
  0
LWPOLYLINE
  5
1ed
100
AcDbEntity
  8
B.Cu
 62
7
100
AcDbPolyline
 90
6
 70
0
 10
53.765922
 20
335.209930
 30
0.0
 10
40.775681
 20
348.196230
 30
0.0
 10
40.761981
 20
348.210230
 30
0.0
 10
40.435811
 20
348.559830
 30
0.0
 10
40.433811
 20
348.559830
 30
0.0
 10
39.935761
 20
349.177030
 30
0.0
  0
SPLINE
  5
1ee
100
AcDbEntity
  8
B.Cu
 62
7
100
AcDbSpline
 70
8
 71
3
 72
8
 73
4
 74
0
 40
0
 40
0
 40
0
 40
0
 40
1
 40
1
 40
1
 40
1
 10
28.324431
 20
350.071530
 30
0.0
 10
28.279704
 20
350.063130
 30
0.0
 10
28.236334
 20
350.048663
 30
0.0
 10
28.195521
 20
350.028530
 30
0.0
  0
SPLINE
  5
1ef
100
AcDbEntity
  8
B.Cu
 62
7
100
AcDbSpline
 70
8
 71
3
 72
8
 73
4
 74
0
 40
0
 40
0
 40
0
 40
0
 40
1
 40
1
 40
1
 40
1
 10
28.195521
 20
350.028530
 30
0.0
 10
28.168126
 20
350.064726
 30
0.0
 10
28.135931
 20
350.097023
 30
0.0
 10
28.099821
 20
350.124530
 30
0.0
  0
LWPOLYLINE
  5
1f0
100
AcDbEntity
  8
B.Cu
 62
7
100
AcDbPolyline
 90
6
 70
0
 10
39.547091
 20
349.364130
 30
0.0
 10
30.906461
 20
349.364130
 30
0.0
 10
30.509981
 20
349.382130
 30
0.0
 10
29.709201
 20
349.509030
 30
0.0
 10
28.929901
 20
349.766830
 30
0.0
 10
28.324431
 20
350.071530
 30
0.0
  0
SPLINE
  5
1f1
100
AcDbEntity
  8
B.Cu
 62
7
100
AcDbSpline
 70
8
 71
3
 72
8
 73
4
 74
0
 40
0
 40
0
 40
0
 40
0
 40
1
 40
1
 40
1
 40
1
 10
26.492399
 20
351.734230
 30
0.0
 10
26.464544
 20
351.771265
 30
0.0
 10
26.431676
 20
351.804247
 30
0.0
 10
26.394739
 20
351.832230
 30
0.0
  0
SPLINE
  5
1f2
100
AcDbEntity
  8
B.Cu
 62
7
100
AcDbSpline
 70
8
 71
3
 72
8
 73
4
 74
0
 40
0
 40
0
 40
0
 40
0
 40
1
 40
1
 40
1
 40
1
 10
26.394739
 20
351.832230
 30
0.0
 10
26.415034
 20
351.873672
 30
0.0
 10
26.429494
 20
351.917723
 30
0.0
 10
26.437709
 20
351.963130
 30
0.0
  0
LWPOLYLINE
  5
1f3
100
AcDbEntity
  8
B.Cu
 62
7
100
AcDbPolyline
 90
7
 70
0
 10
28.099821
 20
350.124530
 30
0.0
 10
26.982631
 20
350.124530
 30
0.0
 10
26.771700
 20
350.165530
 30
0.0
 10
26.627169
 20
350.265530
 30
0.0
 10
26.535369
 20
350.400330
 30
0.0
 10
26.492399
 20
350.619030
 30
0.0
 10
26.492399
 20
351.734230
 30
0.0
  0
SPLINE
  5
1f4
100
AcDbEntity
  8
B.Cu
 62
7
100
AcDbSpline
 70
8
 71
3
 72
8
 73
4
 74
0
 40
0
 40
0
 40
0
 40
0
 40
1
 40
1
 40
1
 40
1
 10
26.439662
 20
357.119330
 30
0.0
 10
26.455793
 20
357.179796
 30
0.0
 10
26.460430
 20
357.242753
 30
0.0
 10
26.453332
 20
357.304930
 30
0.0
  0
SPLINE
  5
1f5
100
AcDbEntity
  8
B.Cu
 62
7
100
AcDbSpline
 70
8
 71
3
 72
8
 73
4
 74
0
 40
0
 40
0
 40
0
 40
0
 40
1
 40
1
 40
1
 40
1
 10
26.453332
 20
357.304930
 30
0.0
 10
26.467060
 20
357.317201
 30
0.0
 10
26.480100
 20
357.330221
 30
0.0
 10
26.492392
 20
357.343930
 30
0.0
  0
LWPOLYLINE
  5
1f6
100
AcDbEntity
  8
B.Cu
 62
7
100
AcDbPolyline
 90
8
 70
0
 10
26.437709
 20
351.963130
 30
0.0
 10
26.131068
 20
352.558830
 30
0.0
 10
25.881068
 20
353.336130
 30
0.0
 10
25.754115
 20
354.134930
 30
0.0
 10
25.754115
 20
354.943530
 30
0.0
 10
25.879115
 20
355.740430
 30
0.0
 10
26.131068
 20
356.513830
 30
0.0
 10
26.439662
 20
357.119330
 30
0.0
  0
SPLINE
  5
1f7
100
AcDbEntity
  8
B.Cu
 62
7
100
AcDbSpline
 70
8
 71
3
 72
8
 73
4
 74
0
 40
0
 40
0
 40
0
 40
0
 40
1
 40
1
 40
1
 40
1
 10
28.099811
 20
358.955630
 30
0.0
 10
28.135921
 20
358.983138
 30
0.0
 10
28.168116
 20
359.015434
 30
0.0
 10
28.195511
 20
359.051630
 30
0.0
  0
SPLINE
  5
1f8
100
AcDbEntity
  8
B.Cu
 62
7
100
AcDbSpline
 70
8
 71
3
 72
8
 73
4
 74
0
 40
0
 40
0
 40
0
 40
0
 40
1
 40
1
 40
1
 40
1
 10
28.195511
 20
359.051630
 30
0.0
 10
28.236324
 20
359.031497
 30
0.0
 10
28.279694
 20
359.017030
 30
0.0
 10
28.324421
 20
359.008630
 30
0.0
  0
LWPOLYLINE
  5
1f9
100
AcDbEntity
  8
B.Cu
 62
7
100
AcDbPolyline
 90
7
 70
0
 10
26.492392
 20
357.343930
 30
0.0
 10
26.492392
 20
358.455230
 30
0.0
 10
26.535362
 20
358.670130
 30
0.0
 10
26.631062
 20
358.816630
 30
0.0
 10
26.771687
 20
358.914630
 30
0.0
 10
26.992391
 20
358.955630
 30
0.0
 10
28.099811
 20
358.955630
 30
0.0
  0
SPLINE
  5
1fa
100
AcDbEntity
  8
B.Cu
 62
7
100
AcDbSpline
 70
8
 71
3
 72
8
 73
4
 74
0
 40
0
 40
0
 40
0
 40
0
 40
1
 40
1
 40
1
 40
1
 10
39.560761
 20
359.720130
 30
0.0
 10
39.706665
 20
359.720639
 30
0.0
 10
39.845068
 20
359.784852
 30
0.0
 10
39.939671
 20
359.895930
 30
0.0
  0
LWPOLYLINE
  5
1fb
100
AcDbEntity
  8
B.Cu
 62
7
100
AcDbPolyline
 90
8
 70
0
 10
28.324421
 20
359.008630
 30
0.0
 10
28.929891
 20
359.313330
 30
0.0
 10
29.699421
 20
359.567230
 30
0.0
 10
30.508011
 20
359.696130
 30
0.0
 10
30.906451
 20
359.706130
 30
0.0
 10
30.918151
 20
359.706130
 30
0.0
 10
39.547061
 20
359.706130
 30
0.0
 10
39.560761
 20
359.720130
 30
0.0
  0
LWPOLYLINE
  5
1fc
100
AcDbEntity
  8
B.Cu
 62
7
100
AcDbPolyline
 90
9
 70
0
 10
39.939671
 20
359.895930
 30
0.0
 10
40.422091
 20
360.505330
 30
0.0
 10
41.127171
 20
361.210430
 30
0.0
 10
41.912321
 20
361.837330
 30
0.0
 10
42.752171
 20
362.360730
 30
0.0
 10
43.670131
 20
362.804130
 30
0.0
 10
44.607631
 20
363.132230
 30
0.0
 10
45.592011
 20
363.360730
 30
0.0
 10
46.586241
 20
363.470130
 30
0.0
  0
SPLINE
  5
1fd
100
AcDbEntity
  8
B.Cu
 62
7
100
AcDbSpline
 70
8
 71
3
 72
8
 73
4
 74
0
 40
0
 40
0
 40
0
 40
0
 40
1
 40
1
 40
1
 40
1
 10
193.609706
 20
356.473130
 30
0.0
 10
193.515954
 20
356.566910
 30
0.0
 10
193.388790
 20
356.619607
 30
0.0
 10
193.256186
 20
356.619630
 30
0.0
  0
SPLINE
  5
1fe
100
AcDbEntity
  8
B.Cu
 62
7
100
AcDbSpline
 70
8
 71
3
 72
8
 73
4
 74
0
 40
0
 40
0
 40
0
 40
0
 40
1
 40
1
 40
1
 40
1
 10
193.256186
 20
356.619630
 30
0.0
 10
193.123585
 20
356.619605
 30
0.0
 10
192.996424
 20
356.566907
 30
0.0
 10
192.902676
 20
356.473130
 30
0.0
  0
SPLINE
  5
1ff
100
AcDbEntity
  8
B.Cu
 62
7
100
AcDbSpline
 70
8
 71
3
 72
8
 73
4
 74
0
 40
0
 40
0
 40
0
 40
0
 40
1
 40
1
 40
1
 40
1
 10
192.902676
 20
356.473130
 30
0.0
 10
192.808905
 20
356.379382
 30
0.0
 10
192.756211
 20
356.252226
 30
0.0
 10
192.756186
 20
356.119630
 30
0.0
  0
LWPOLYLINE
  5
200
100
AcDbEntity
  8
B.Cu
 62
7
100
AcDbPolyline
 90
37
 70
0
 10
161.152695
 20
370.390031
 30
0.0
 10
187.586285
 20
370.390031
 30
0.0
 10
192.146836
 20
370.390031
 30
0.0
 10
192.168336
 20
370.390031
 30
0.0
 10
192.564816
 20
370.372031
 30
0.0
 10
193.375366
 20
370.241231
 30
0.0
 10
194.142946
 20
369.997031
 30
0.0
 10
194.861696
 20
369.625931
 30
0.0
 10
195.537476
 20
369.139631
 30
0.0
 10
195.824586
 20
368.875931
 30
0.0
 10
195.840186
 20
368.859931
 30
0.0
 10
231.721037
 20
332.975130
 30
0.0
 10
231.729037
 20
332.965130
 30
0.0
 10
231.731037
 20
332.965130
 30
0.0
 10
231.998617
 20
332.681930
 30
0.0
 10
232.477127
 20
332.021730
 30
0.0
 10
232.846267
 20
331.293230
 30
0.0
 10
233.102127
 20
330.513929
 30
0.0
 10
233.227127
 20
329.717029
 30
0.0
 10
233.227127
 20
328.910429
 30
0.0
 10
233.102127
 20
328.113529
 30
0.0
 10
232.848227
 20
327.340129
 30
0.0
 10
232.477127
 20
326.603729
 30
0.0
 10
232.002517
 20
325.951429
 30
0.0
 10
231.436117
 20
325.385029
 30
0.0
 10
230.774007
 20
324.906529
 30
0.0
 10
230.051347
 20
324.541229
 30
0.0
 10
229.281817
 20
324.287329
 30
0.0
 10
228.477127
 20
324.158429
 30
0.0
 10
227.672447
 20
324.158429
 30
0.0
 10
226.867757
 20
324.287329
 30
0.0
 10
226.104086
 20
324.539329
 30
0.0
 10
225.369706
 20
324.910429
 30
0.0
 10
224.709556
 20
325.386929
 30
0.0
 10
224.420486
 20
325.662329
 30
0.0
 10
224.410486
 20
325.672329
 30
0.0
 10
193.609706
 20
356.473130
 30
0.0
  0
SPLINE
  5
201
100
AcDbEntity
  8
B.Cu
 62
7
100
AcDbSpline
 70
8
 71
3
 72
8
 73
4
 74
0
 40
0
 40
0
 40
0
 40
0
 40
1
 40
1
 40
1
 40
1
 10
182.416385
 20
359.549330
 30
0.0
 10
182.416385
 20
359.681939
 30
0.0
 10
182.363707
 20
359.809116
 30
0.0
 10
182.269939
 20
359.902884
 30
0.0
  0
SPLINE
  5
202
100
AcDbEntity
  8
B.Cu
 62
7
100
AcDbSpline
 70
8
 71
3
 72
8
 73
4
 74
0
 40
0
 40
0
 40
0
 40
0
 40
1
 40
1
 40
1
 40
1
 10
182.269939
 20
359.902884
 30
0.0
 10
182.176170
 20
359.996652
 30
0.0
 10
182.048993
 20
360.049330
 30
0.0
 10
181.916385
 20
360.049330
 30
0.0
  0
LWPOLYLINE
  5
203
100
AcDbEntity
  8
B.Cu
 62
7
100
AcDbPolyline
 90
26
 70
0
 10
192.756186
 20
356.119630
 30
0.0
 10
192.756186
 20
335.000430
 30
0.0
 10
192.756186
 20
334.978430
 30
0.0
 10
192.740586
 20
334.587830
 30
0.0
 10
192.611676
 20
333.779230
 30
0.0
 10
192.359726
 20
332.998030
 30
0.0
 10
191.992536
 20
332.279230
 30
0.0
 10
191.517925
 20
331.626930
 30
0.0
 10
190.945655
 20
331.052730
 30
0.0
 10
190.285505
 20
330.576129
 30
0.0
 10
189.558945
 20
330.208929
 30
0.0
 10
188.791365
 20
329.957029
 30
0.0
 10
187.990585
 20
329.828129
 30
0.0
 10
187.183945
 20
329.828129
 30
0.0
 10
186.379255
 20
329.957029
 30
0.0
 10
185.615585
 20
330.208929
 30
0.0
 10
184.881205
 20
330.580029
 30
0.0
 10
184.226905
 20
331.052730
 30
0.0
 10
183.654645
 20
331.626930
 30
0.0
 10
183.176125
 20
332.287030
 30
0.0
 10
182.808945
 20
333.007730
 30
0.0
 10
182.562845
 20
333.767530
 30
0.0
 10
182.431985
 20
334.587830
 30
0.0
 10
182.416385
 20
334.978430
 30
0.0
 10
182.416385
 20
335.000430
 30
0.0
 10
182.416385
 20
359.549330
 30
0.0
  0
LWPOLYLINE
  5
204
100
AcDbEntity
  8
B.Cu
 62
7
100
AcDbPolyline
 90
23
 70
0
 10
181.916385
 20
360.049330
 30
0.0
 10
161.152715
 20
360.049330
 30
0.0
 10
160.734745
 20
360.066330
 30
0.0
 10
159.920285
 20
360.197230
 30
0.0
 10
159.148805
 20
360.443330
 30
0.0
 10
158.437865
 20
360.812430
 30
0.0
 10
157.769895
 20
361.294830
 30
0.0
 10
157.197635
 20
361.867130
 30
0.0
 10
156.719115
 20
362.529230
 30
0.0
 10
156.353884
 20
363.244130
 30
0.0
 10
156.107784
 20
364.007730
 30
0.0
 10
155.978884
 20
364.820230
 30
0.0
 10
155.978884
 20
365.638631
 30
0.0
 10
156.107784
 20
366.431631
 30
0.0
 10
156.351924
 20
367.189431
 30
0.0
 10
156.719115
 20
367.910131
 30
0.0
 10
157.197635
 20
368.570231
 30
0.0
 10
157.769895
 20
369.142531
 30
0.0
 10
158.437865
 20
369.624931
 30
0.0
 10
159.158565
 20
369.996031
 30
0.0
 10
159.920285
 20
370.240231
 30
0.0
 10
160.734745
 20
370.371031
 30
0.0
 10
161.152695
 20
370.390031
 30
0.0
  0
SPLINE
  5
205
100
AcDbEntity
  8
B.Cu
 62
7
100
AcDbSpline
 70
8
 71
3
 72
8
 73
4
 74
0
 40
0
 40
0
 40
0
 40
0
 40
1
 40
1
 40
1
 40
1
 10
58.976912
 20
378.803331
 30
0.0
 10
58.908657
 20
378.817774
 30
0.0
 10
58.838136
 20
378.817774
 30
0.0
 10
58.769882
 20
378.803331
 30
0.0
  0
SPLINE
  5
206
100
AcDbEntity
  8
B.Cu
 62
7
100
AcDbSpline
 70
8
 71
3
 72
8
 73
4
 74
0
 40
0
 40
0
 40
0
 40
0
 40
1
 40
1
 40
1
 40
1
 10
58.769882
 20
378.803331
 30
0.0
 10
58.731807
 20
378.861819
 30
0.0
 10
58.681910
 20
378.911688
 30
0.0
 10
58.623402
 20
378.949731
 30
0.0
  0
LWPOLYLINE
  5
207
100
AcDbEntity
  8
B.Cu
 62
7
100
AcDbPolyline
 90
35
 70
0
 10
13.728890
 20
389.290431
 30
0.0
 10
13.750370
 20
389.290431
 30
0.0
 10
60.949592
 20
389.290431
 30
0.0
 10
61.367562
 20
389.272431
 30
0.0
 10
62.182012
 20
389.141631
 30
0.0
 10
62.943732
 20
388.899431
 30
0.0
 10
63.674202
 20
388.520531
 30
0.0
 10
64.340222
 20
388.040031
 30
0.0
 10
64.627322
 20
387.776331
 30
0.0
 10
64.642922
 20
387.760331
 30
0.0
 10
83.510112
 20
368.891231
 30
0.0
 10
83.525712
 20
368.875231
 30
0.0
 10
83.791342
 20
368.584231
 30
0.0
 10
84.275712
 20
367.918231
 30
0.0
 10
84.648762
 20
367.189731
 30
0.0
 10
84.894852
 20
366.420131
 30
0.0
 10
85.021812
 20
365.627230
 30
0.0
 10
85.021812
 20
364.820530
 30
0.0
 10
84.894852
 20
364.019830
 30
0.0
 10
84.646812
 20
363.244430
 30
0.0
 10
84.275712
 20
362.519830
 30
0.0
 10
83.801102
 20
361.867430
 30
0.0
 10
83.224932
 20
361.289330
 30
0.0
 10
82.562822
 20
360.812730
 30
0.0
 10
81.849932
 20
360.443630
 30
0.0
 10
81.078452
 20
360.197530
 30
0.0
 10
80.273762
 20
360.068630
 30
0.0
 10
79.467122
 20
360.068630
 30
0.0
 10
78.660482
 20
360.197530
 30
0.0
 10
77.888992
 20
360.443630
 30
0.0
 10
77.183922
 20
360.808830
 30
0.0
 10
76.502272
 20
361.299130
 30
0.0
 10
76.215172
 20
361.562730
 30
0.0
 10
76.199572
 20
361.576730
 30
0.0
 10
58.976912
 20
378.803331
 30
0.0
  0
SPLINE
  5
208
100
AcDbEntity
  8
B.Cu
 62
7
100
AcDbSpline
 70
8
 71
3
 72
8
 73
4
 74
0
 40
0
 40
0
 40
0
 40
0
 40
1
 40
1
 40
1
 40
1
 10
17.375372
 20
378.949731
 30
0.0
 10
17.242764
 20
378.949731
 30
0.0
 10
17.115587
 20
378.897052
 30
0.0
 10
17.021819
 20
378.803284
 30
0.0
  0
SPLINE
  5
209
100
AcDbEntity
  8
B.Cu
 62
7
100
AcDbSpline
 70
8
 71
3
 72
8
 73
4
 74
0
 40
0
 40
0
 40
0
 40
0
 40
1
 40
1
 40
1
 40
1
 10
17.021819
 20
378.803284
 30
0.0
 10
16.928051
 20
378.709516
 30
0.0
 10
16.875372
 20
378.582339
 30
0.0
 10
16.875372
 20
378.449731
 30
0.0
  0
LWPOLYLINE
  5
20a
100
AcDbEntity
  8
B.Cu
 62
7
100
AcDbPolyline
 90
2
 70
0
 10
58.623402
 20
378.949731
 30
0.0
 10
17.375372
 20
378.949731
 30
0.0
  0
SPLINE
  5
20b
100
AcDbEntity
  8
B.Cu
 62
7
100
AcDbSpline
 70
8
 71
3
 72
8
 73
4
 74
0
 40
0
 40
0
 40
0
 40
0
 40
1
 40
1
 40
1
 40
1
 10
16.875372
 20
337.020130
 30
0.0
 10
16.910079
 20
336.969627
 30
0.0
 10
16.953774
 20
336.925934
 30
0.0
 10
17.004278
 20
336.891230
 30
0.0
  0
SPLINE
  5
20c
100
AcDbEntity
  8
B.Cu
 62
7
100
AcDbSpline
 70
8
 71
3
 72
8
 73
4
 74
0
 40
0
 40
0
 40
0
 40
0
 40
1
 40
1
 40
1
 40
1
 10
17.004278
 20
336.891230
 30
0.0
 10
16.986427
 20
336.831773
 30
0.0
 10
16.979804
 20
336.769511
 30
0.0
 10
16.984748
 20
336.707630
 30
0.0
  0
LWPOLYLINE
  5
20d
100
AcDbEntity
  8
B.Cu
 62
7
100
AcDbPolyline
 90
3
 70
0
 10
16.875372
 20
378.449731
 30
0.0
 10
16.875372
 20
354.529830
 30
0.0
 10
16.875372
 20
337.020130
 30
0.0
  0
SPLINE
  5
20e
100
AcDbEntity
  8
B.Cu
 62
7
100
AcDbSpline
 70
8
 71
3
 72
8
 73
4
 74
0
 40
0
 40
0
 40
0
 40
0
 40
1
 40
1
 40
1
 40
1
 10
6.256245
 20
339.340730
 30
0.0
 10
6.403715
 20
339.427527
 30
0.0
 10
6.496555
 20
339.583711
 30
0.0
 10
6.502339
 20
339.754730
 30
0.0
  0
SPLINE
  5
20f
100
AcDbEntity
  8
B.Cu
 62
7
100
AcDbSpline
 70
8
 71
3
 72
8
 73
4
 74
0
 40
0
 40
0
 40
0
 40
0
 40
1
 40
1
 40
1
 40
1
 10
6.502339
 20
339.754730
 30
0.0
 10
6.514631
 20
339.765807
 30
0.0
 10
6.526366
 20
339.777488
 30
0.0
 10
6.537499
 20
339.789730
 30
0.0
  0
LWPOLYLINE
  5
210
100
AcDbEntity
  8
B.Cu
 62
7
100
AcDbPolyline
 90
59
 70
0
 10
16.984748
 20
336.707630
 30
0.0
 10
17.244513
 20
336.383330
 30
0.0
 10
17.783577
 20
335.531830
 30
0.0
 10
18.221077
 20
334.617730
 30
0.0
 10
18.547249
 20
333.684130
 30
0.0
 10
18.771858
 20
332.693930
 30
0.0
 10
18.883186
 20
331.684130
 30
0.0
 10
18.885186
 20
331.674130
 30
0.0
 10
18.896906
 20
331.199430
 30
0.0
 10
18.896906
 20
331.185430
 30
0.0
 10
18.896906
 20
225.392426
 30
0.0
 10
18.896906
 20
225.378426
 30
0.0
 10
18.885186
 20
224.903826
 30
0.0
 10
18.883186
 20
224.893826
 30
0.0
 10
18.771858
 20
223.893826
 30
0.0
 10
18.547249
 20
222.895726
 30
0.0
 10
18.217171
 20
221.954326
 30
0.0
 10
17.775764
 20
221.040226
 30
0.0
 10
17.246467
 20
220.196526
 30
0.0
 10
16.619513
 20
219.409426
 30
0.0
 10
15.914435
 20
218.704326
 30
0.0
 10
15.129279
 20
218.077426
 30
0.0
 10
14.267951
 20
217.540226
 30
0.0
 10
13.377326
 20
217.112526
 30
0.0
 10
12.410529
 20
216.774626
 30
0.0
 10
11.445685
 20
216.550026
 30
0.0
 10
10.457404
 20
216.438726
 30
0.0
 10
9.439826
 20
216.438726
 30
0.0
 10
8.451545
 20
216.550026
 30
0.0
 10
7.486701
 20
216.774626
 30
0.0
 10
6.521857
 20
217.112526
 30
0.0
 10
5.623420
 20
217.544126
 30
0.0
 10
4.769904
 20
218.077426
 30
0.0
 10
3.982795
 20
218.704326
 30
0.0
 10
3.295295
 20
219.389926
 30
0.0
 10
3.287495
 20
219.399926
 30
0.0
 10
2.650776
 20
220.198726
 30
0.0
 10
2.121480
 20
221.040526
 30
0.0
 10
1.685933
 20
221.939026
 30
0.0
 10
1.351948
 20
222.898026
 30
0.0
 10
1.129292
 20
223.878426
 30
0.0
 10
1.014058
 20
224.894126
 30
0.0
 10
1.012058
 20
224.904126
 30
0.0
 10
1.000338
 20
225.378726
 30
0.0
 10
1.000338
 20
225.392726
 30
0.0
 10
1.000338
 20
331.185730
 30
0.0
 10
1.000338
 20
331.199730
 30
0.0
 10
1.012058
 20
331.674430
 30
0.0
 10
1.014058
 20
331.684430
 30
0.0
 10
1.129292
 20
332.709830
 30
0.0
 10
1.346089
 20
333.668830
 30
0.0
 10
1.683980
 20
334.633630
 30
0.0
 10
2.113667
 20
335.532130
 30
0.0
 10
2.652730
 20
336.383630
 30
0.0
 10
3.279683
 20
337.168830
 30
0.0
 10
3.992573
 20
337.881730
 30
0.0
 10
4.769917
 20
338.500830
 30
0.0
 10
5.623433
 20
339.034030
 30
0.0
 10
6.256245
 20
339.340730
 30
0.0
  0
LWPOLYLINE
  5
211
100
AcDbEntity
  8
B.Cu
 62
7
100
AcDbPolyline
 90
19
 70
0
 10
6.537499
 20
339.789730
 30
0.0
 10
6.537499
 20
354.529930
 30
0.0
 10
6.537499
 20
382.078831
 30
0.0
 10
6.537499
 20
382.099831
 30
0.0
 10
6.553129
 20
382.490531
 30
0.0
 10
6.682035
 20
383.301031
 30
0.0
 10
6.930082
 20
384.070531
 30
0.0
 10
7.295317
 20
384.789331
 30
0.0
 10
7.783598
 20
385.463131
 30
0.0
 10
8.051176
 20
385.756131
 30
0.0
 10
8.066806
 20
385.772131
 30
0.0
 10
10.057040
 20
387.760431
 30
0.0
 10
10.072670
 20
387.776431
 30
0.0
 10
10.367592
 20
388.045931
 30
0.0
 10
11.025795
 20
388.520631
 30
0.0
 10
11.758217
 20
388.899531
 30
0.0
 10
12.521889
 20
389.141731
 30
0.0
 10
13.332436
 20
389.272531
 30
0.0
 10
13.728890
 20
389.290431
 30
0.0
  0
ENDSEC
  0
SECTION
  2
OBJECTS
  0
DICTIONARY
  5
C
330
0
100
AcDbDictionary
  3
ACAD_GROUP
350
D
  3
ACAD_MLINESTYLE
350
17
  0
DICTIONARY
  5
D
330
C
100
AcDbDictionary
  0
DICTIONARY
  5
1A
330
C
100
AcDbDictionary
  0
DICTIONARY
  5
17
330
C
100
AcDbDictionary
  3
STANDARD
350
18
  0
DICTIONARY
  5
19
330
C
100
AcDbDictionary
  0
ENDSEC
  0
EOF
